SplineFontDB: 1.0
FontName: THFahkwang
FullName: THFahkwang
FamilyName: TH Fah kwang
Weight: Book
Copyright: Copyright (c) 2006 by Department of Intellectual Property (DIP), Ministry of Commerce and Software Industry Promotion Agency (Public Organization) (SIPA). All rights reserved.
Version: 1.1
ItalicAngle: 0
UnderlinePosition: -35
UnderlineWidth: 30
Ascent: 800
Descent: 200
Order2: 1
XUID: [1021 375 425136265 4039945]
FSType: 0
OS2Version: 3
OS2_WeightWidthSlopeOnly: 0
OS2_UseTypoMetrics: 1
CreationTime: 1158666960
ModificationTime: 1174405908
PfmFamily: 17
TTFWeight: 400
TTFWidth: 5
LineGap: 60
VLineGap: 0
Panose: 2 0 5 6 0 0 0 2 0 4
OS2TypoAscent: 0
OS2TypoAOffset: 1
OS2TypoDescent: 0
OS2TypoDOffset: 1
OS2TypoLinegap: 0
OS2WinAscent: 5
OS2WinAOffset: 1
OS2WinDescent: -196
OS2WinDOffset: 1
HheadAscent: 5
HheadAOffset: 1
HheadDescent: 196
HheadDOffset: 1
OS2SubXSize: 700
OS2SubYSize: 650
OS2SubXOff: 0
OS2SubYOff: 140
OS2SupXSize: 700
OS2SupYSize: 650
OS2SupXOff: 0
OS2SupYOff: 477
OS2StrikeYSize: 30
OS2StrikeYPos: 250
OS2FamilyClass: 773
OS2Vendor: 'ipth'
ScriptLang: 2
 1 latn 1 dflt 
 0 
ChainSub: coverage 0 0 'liga' 0 0 0 1
 1 0 1
  Coverage: 64 uni0E48.alt2 uni0E49.alt2 uni0E4A.alt2 uni0E4B.alt2 uni0E4C.alt2
  FCoverage: 7 uni0E33
 1
  SeqLookup: 0 'L026'
EndFPST
ChainSub: coverage 0 0 'liga' 0 0 0 1
 1 1 0
  Coverage: 7 uni0E47
  BCoverage: 12 uni0E2C.alt1
 1
  SeqLookup: 0 'L025'
EndFPST
ChainSub: coverage 0 0 'liga' 0 0 0 1
 1 0 1
  Coverage: 7 uni0E2C
  FCoverage: 39 uni0E34 uni0E35 uni0E36 uni0E37 uni0E47
 1
  SeqLookup: 0 'L025'
EndFPST
ChainSub: coverage 0 0 'liga' 0 0 0 1
 1 0 1
  Coverage: 15 uni0E0E uni0E0F
  FCoverage: 38 uni0E38.alt1 uni0E39.alt1 uni0E3A.alt1
 1
  SeqLookup: 0 'L025'
EndFPST
ChainSub: coverage 0 0 'liga' 0 0 0 1
 1 1 0
  Coverage: 5 a b c
  BCoverage: 23 uni0E1B uni0E1D uni0E1F
 1
  SeqLookup: 0 'L025'
EndFPST
ChainSub: coverage 0 0 'liga' 0 0 0 1
 1 0 1
  Coverage: 5 a b c

StartChar: .notdef
Encoding: 65536 -1 0
Width: 357
Flags: W
Fore
0 0 m 1,0,-1
 0 511 l 1,1,-1
 357 511 l 1,2,-1
 357 0 l 1,3,-1
 0 0 l 1,0,-1
310 482 m 1,4,-1
 45 482 l 1,5,-1
 178 281 l 1,6,-1
 310 482 l 1,4,-1
160 254 m 1,7,-1
 29 455 l 1,8,-1
 29 55 l 1,9,-1
 160 254 l 1,7,-1
46 29 m 1,10,-1
 310 29 l 1,11,-1
 178 228 l 1,12,-1
 46 29 l 1,10,-1
195 254 m 1,13,-1
 328 53 l 1,14,-1
 328 457 l 1,15,-1
 195 254 l 1,13,-1
EndSplineSet
EndChar
StartChar: numbersign
Encoding: 35 35 4
Width: 478
Flags: W
Fore
331 276 m 1,0,-1
 317 172 l 1,1,-1
 390 172 l 1,2,-1
 390 145 l 1,3,-1
 313 145 l 1,4,-1
 293 0 l 1,5,-1
 262 0 l 1,6,-1
 282 145 l 1,7,-1
 181 145 l 1,8,-1
 161 0 l 1,9,-1
 130 0 l 1,10,-1
 150 145 l 1,11,-1
 68 145 l 1,12,-1
 68 172 l 1,13,-1
 154 172 l 1,14,-1
 168 276 l 1,15,-1
 88 276 l 1,16,-1
 88 303 l 1,17,-1
 172 303 l 1,18,-1
 192 448 l 1,19,-1
 223 448 l 1,20,-1
 203 303 l 1,21,-1
 305 303 l 1,22,-1
 325 448 l 1,23,-1
 355 448 l 1,24,-1
 335 303 l 1,25,-1
 409 303 l 1,26,-1
 409 276 l 1,27,-1
 331 276 l 1,0,-1
199 276 m 1,28,-1
 185 172 l 1,29,-1
 286 172 l 1,30,-1
 301 276 l 1,31,-1
 199 276 l 1,28,-1
EndSplineSet
EndChar
StartChar: dollar
Encoding: 36 36 5
Width: 478
Flags: W
Fore
429 142 m 0,0,1
 429 107 429 107 413.5 83.5 c 128,-1,2
 398 60 398 60 373 45 c 128,-1,3
 348 30 348 30 318 23 c 128,-1,4
 288 16 288 16 259 14 c 1,5,-1
 259 -54 l 1,6,-1
 238 -54 l 1,7,-1
 238 14 l 1,8,9
 210 14 210 14 178 21 c 128,-1,10
 146 28 146 28 118.5 43 c 128,-1,11
 91 58 91 58 71 81.5 c 128,-1,12
 51 105 51 105 48 137 c 1,13,-1
 106 137 l 1,14,15
 107 113 107 113 118.5 93.5 c 128,-1,16
 130 74 130 74 148 60.5 c 128,-1,17
 166 47 166 47 188 40 c 128,-1,18
 210 33 210 33 233 33 c 0,19,20
 255 33 255 33 280.5 37.5 c 128,-1,21
 306 42 306 42 327.5 52.5 c 128,-1,22
 349 63 349 63 363 81 c 128,-1,23
 377 99 377 99 377 127 c 0,24,25
 377 157 377 157 354.5 173.5 c 128,-1,26
 332 190 332 190 298 201 c 128,-1,27
 264 212 264 212 224 220.5 c 128,-1,28
 184 229 184 229 150 241 c 128,-1,29
 116 253 116 253 93.5 273 c 128,-1,30
 71 293 71 293 71 327 c 0,31,32
 71 358 71 358 87.5 379.5 c 128,-1,33
 104 401 104 401 129 414 c 128,-1,34
 154 427 154 427 183.5 432.5 c 128,-1,35
 213 438 213 438 238 438 c 1,36,-1
 238 503 l 1,37,-1
 259 503 l 1,38,-1
 259 438 l 1,39,40
 284 437 284 437 309 431 c 128,-1,41
 334 425 334 425 355.5 413 c 128,-1,42
 377 401 377 401 394.5 383 c 128,-1,43
 412 365 412 365 421 340 c 1,44,-1
 369 340 l 1,45,46
 352 380 352 380 318.5 401 c 128,-1,47
 285 422 285 422 243 422 c 0,48,49
 224 422 224 422 203 418 c 128,-1,50
 182 414 182 414 164.5 404.5 c 128,-1,51
 147 395 147 395 135.5 379 c 128,-1,52
 124 363 124 363 124 340 c 0,53,54
 124 315 124 315 146.5 301 c 128,-1,55
 169 287 169 287 203 277 c 128,-1,56
 237 267 237 267 276.5 258 c 128,-1,57
 316 249 316 249 350 235 c 128,-1,58
 384 221 384 221 406.5 199.5 c 128,-1,59
 429 178 429 178 429 142 c 0,0,1
EndSplineSet
EndChar
StartChar: percent
Encoding: 37 37 6
Width: 492
Flags: W
Fore
473 126 m 256,0,1
 473 104 473 104 466 81.5 c 128,-1,2
 459 59 459 59 446 40.5 c 128,-1,3
 433 22 433 22 413.5 10.5 c 128,-1,4
 394 -1 394 -1 370 -1 c 256,5,6
 346 -1 346 -1 326.5 10.5 c 128,-1,7
 307 22 307 22 293.5 40.5 c 128,-1,8
 280 59 280 59 273 81.5 c 128,-1,9
 266 104 266 104 266 126 c 256,10,11
 266 148 266 148 273 170.5 c 128,-1,12
 280 193 280 193 293.5 211 c 128,-1,13
 307 229 307 229 326.5 240.5 c 128,-1,14
 346 252 346 252 370 252 c 256,15,16
 394 252 394 252 413.5 240.5 c 128,-1,17
 433 229 433 229 446 211 c 128,-1,18
 459 193 459 193 466 170.5 c 128,-1,19
 473 148 473 148 473 126 c 256,0,1
121 -11 m 1,20,-1
 95 -11 l 1,21,-1
 372 460 l 1,22,-1
 398 460 l 1,23,-1
 121 -11 l 1,20,-1
228 323 m 256,24,25
 228 301 228 301 221 278.5 c 128,-1,26
 214 256 214 256 201 237.5 c 128,-1,27
 188 219 188 219 168.5 207.5 c 128,-1,28
 149 196 149 196 125 196 c 256,29,30
 101 196 101 196 81.5 207.5 c 128,-1,31
 62 219 62 219 48.5 237.5 c 128,-1,32
 35 256 35 256 28 278.5 c 128,-1,33
 21 301 21 301 21 323 c 0,34,35
 21 344 21 344 28 366.5 c 128,-1,36
 35 389 35 389 48 407.5 c 128,-1,37
 61 426 61 426 80.5 437.5 c 128,-1,38
 100 449 100 449 124 449 c 256,39,40
 148 449 148 449 167.5 437.5 c 128,-1,41
 187 426 187 426 200.5 408 c 128,-1,42
 214 390 214 390 221 367.5 c 128,-1,43
 228 345 228 345 228 323 c 256,24,25
435 126 m 0,44,45
 435 139 435 139 431.5 159 c 128,-1,46
 428 179 428 179 420.5 197 c 128,-1,47
 413 215 413 215 401 228 c 128,-1,48
 389 241 389 241 371 241 c 256,49,50
 353 241 353 241 340.5 228 c 128,-1,51
 328 215 328 215 320 197 c 128,-1,52
 312 179 312 179 308.5 159.5 c 128,-1,53
 305 140 305 140 305 126 c 256,54,55
 305 112 305 112 308.5 92.5 c 128,-1,56
 312 73 312 73 319.5 55 c 128,-1,57
 327 37 327 37 339.5 24 c 128,-1,58
 352 11 352 11 370 11 c 256,59,60
 388 11 388 11 400.5 24 c 128,-1,61
 413 37 413 37 420.5 55 c 128,-1,62
 428 73 428 73 431.5 92.5 c 128,-1,63
 435 112 435 112 435 126 c 0,44,45
189 323 m 0,64,65
 189 336 189 336 185.5 356 c 128,-1,66
 182 376 182 376 174.5 394 c 128,-1,67
 167 412 167 412 155 425 c 128,-1,68
 143 438 143 438 125 438 c 256,69,70
 107 438 107 438 95 425 c 128,-1,71
 83 412 83 412 75.5 394 c 128,-1,72
 68 376 68 376 64.5 356 c 128,-1,73
 61 336 61 336 61 323 c 0,74,75
 61 309 61 309 64.5 289 c 128,-1,76
 68 269 68 269 75.5 251 c 128,-1,77
 83 233 83 233 95 220 c 128,-1,78
 107 207 107 207 125 207 c 256,79,80
 143 207 143 207 155 220 c 128,-1,81
 167 233 167 233 174.5 251 c 128,-1,82
 182 269 182 269 185.5 289 c 128,-1,83
 189 309 189 309 189 323 c 0,64,65
EndSplineSet
EndChar
StartChar: ampersand
Encoding: 38 38 7
Width: 518
Flags: W
Fore
420 0 m 1,0,1
 404 8 404 8 390 18 c 128,-1,2
 376 28 376 28 362 39 c 1,3,4
 330 13 330 13 291 -0.5 c 128,-1,5
 252 -14 252 -14 210 -14 c 0,6,7
 183 -14 183 -14 153 -8 c 128,-1,8
 123 -2 123 -2 98.5 11.5 c 128,-1,9
 74 25 74 25 58 48 c 128,-1,10
 42 71 42 71 42 104 c 0,11,12
 42 131 42 131 52 150.5 c 128,-1,13
 62 170 62 170 78.5 185 c 128,-1,14
 95 200 95 200 116 211.5 c 128,-1,15
 137 223 137 223 158 234 c 1,16,17
 140 254 140 254 125.5 278.5 c 128,-1,18
 111 303 111 303 111 331 c 0,19,20
 111 382 111 382 144.5 415 c 128,-1,21
 178 448 178 448 229 448 c 0,22,23
 247 448 247 448 264.5 443 c 128,-1,24
 282 438 282 438 296.5 428 c 128,-1,25
 311 418 311 418 320 403 c 128,-1,26
 329 388 329 388 329 368 c 0,27,28
 329 343 329 343 318.5 324 c 128,-1,29
 308 305 308 305 292 291 c 128,-1,30
 276 277 276 277 255.5 266 c 128,-1,31
 235 255 235 255 216 246 c 1,32,33
 253 204 253 204 292.5 165.5 c 128,-1,34
 332 127 332 127 377 93 c 1,35,36
 388 113 388 113 393 135.5 c 128,-1,37
 398 158 398 158 398 181 c 0,38,39
 398 206 398 206 392 229 c 1,40,-1
 456 229 l 1,41,42
 454 187 454 187 439 148 c 128,-1,43
 424 109 424 109 398 76 c 1,44,45
 425 55 425 55 454 36 c 128,-1,46
 483 17 483 17 513 0 c 1,47,-1
 420 0 l 1,0,1
285 362 m 0,48,49
 285 394 285 394 264.5 415 c 128,-1,50
 244 436 244 436 212 436 c 0,51,52
 186 436 186 436 168 415.5 c 128,-1,53
 150 395 150 395 150 369 c 0,54,55
 150 334 150 334 167 309 c 128,-1,56
 184 284 184 284 206 258 c 1,57,58
 239 274 239 274 262 297.5 c 128,-1,59
 285 321 285 321 285 362 c 0,48,49
347 52 m 1,60,61
 299 90 299 90 255 133 c 128,-1,62
 211 176 211 176 169 221 c 1,63,64
 140 205 140 205 119.5 182.5 c 128,-1,65
 99 160 99 160 99 125 c 0,66,67
 99 101 99 101 110 78.5 c 128,-1,68
 121 56 121 56 139.5 38.5 c 128,-1,69
 158 21 158 21 181 10.5 c 128,-1,70
 204 0 204 0 228 0 c 0,71,72
 262 0 262 0 293 13 c 128,-1,73
 324 26 324 26 347 52 c 1,60,61
EndSplineSet
EndChar
StartChar: quotesingle
Encoding: 39 39 8
Width: 156
Flags: W
Fore
103 449 m 0,0,1
 103 401 103 401 95.5 350.5 c 128,-1,2
 88 300 88 300 83 252 c 1,3,-1
 73 252 l 1,4,5
 68 300 68 300 60.5 351 c 128,-1,6
 53 402 53 402 53 450 c 0,7,8
 53 462 53 462 58.5 471.5 c 128,-1,9
 64 481 64 481 78 481 c 256,10,11
 92 481 92 481 97.5 470.5 c 128,-1,12
 103 460 103 460 103 449 c 0,0,1
EndSplineSet
EndChar
StartChar: parenleft
Encoding: 40 40 9
Width: 200
Flags: W
Fore
145 -146 m 1,0,1
 92 -73 92 -73 63 1.5 c 128,-1,2
 34 76 34 76 34 168 c 0,3,4
 34 258 34 258 63 334 c 128,-1,5
 92 410 92 410 145 482 c 1,6,-1
 157 482 l 1,7,8
 133 440 133 440 118 403.5 c 128,-1,9
 103 367 103 367 95 331 c 128,-1,10
 87 295 87 295 84 255.5 c 128,-1,11
 81 216 81 216 81 168 c 256,12,13
 81 120 81 120 84 80.5 c 128,-1,14
 87 41 87 41 95 5 c 128,-1,15
 103 -31 103 -31 118 -67.5 c 128,-1,16
 133 -104 133 -104 157 -146 c 1,17,-1
 145 -146 l 1,0,1
EndSplineSet
EndChar
StartChar: parenright
Encoding: 41 41 10
Width: 200
Flags: W
Fore
157 168 m 0,0,1
 157 76 157 76 127.5 1.5 c 128,-1,2
 98 -73 98 -73 45 -146 c 1,3,-1
 34 -146 l 1,4,5
 58 -104 58 -104 72.5 -67.5 c 128,-1,6
 87 -31 87 -31 95.5 5 c 128,-1,7
 104 41 104 41 107 80.5 c 128,-1,8
 110 120 110 120 110 168 c 256,9,10
 110 216 110 216 107 255.5 c 128,-1,11
 104 295 104 295 95.5 331 c 128,-1,12
 87 367 87 367 72.5 403.5 c 128,-1,13
 58 440 58 440 34 482 c 1,14,-1
 45 482 l 1,15,16
 97 410 97 410 127 334 c 128,-1,17
 157 258 157 258 157 168 c 0,0,1
EndSplineSet
EndChar
StartChar: asterisk
Encoding: 42 42 11
Width: 334
Flags: W
Fore
178 334 m 1,0,-1
 265 250 l 1,1,-1
 221 217 l 1,2,-1
 167 326 l 1,3,-1
 113 217 l 1,4,-1
 69 250 l 1,5,-1
 156 334 l 1,6,-1
 41 351 l 1,7,-1
 58 402 l 1,8,-1
 159 349 l 1,9,-1
 138 467 l 1,10,-1
 193 467 l 1,11,-1
 173 348 l 1,12,-1
 277 402 l 1,13,-1
 293 351 l 1,14,-1
 178 334 l 1,0,-1
EndSplineSet
EndChar
StartChar: plus
Encoding: 43 43 12
Width: 442
Flags: W
Fore
239 171 m 1,0,-1
 239 0 l 1,1,-1
 203 0 l 1,2,-1
 203 171 l 1,3,-1
 35 171 l 1,4,-1
 35 208 l 1,5,-1
 203 208 l 1,6,-1
 203 379 l 1,7,-1
 239 379 l 1,8,-1
 239 208 l 1,9,-1
 407 208 l 1,10,-1
 407 171 l 1,11,-1
 239 171 l 1,0,-1
EndSplineSet
EndChar
StartChar: comma
Encoding: 44 44 13
Width: 240
Flags: W
Fore
155 12 m 0,0,1
 155 -17 155 -17 140.5 -45.5 c 128,-1,2
 126 -74 126 -74 101 -88 c 1,3,-1
 97 -84 l 1,4,5
 111 -71 111 -71 122.5 -51 c 128,-1,6
 134 -31 134 -31 132 -11 c 2,7,-1
 132 -2 l 1,8,9
 128 -3 128 -3 124.5 -4 c 128,-1,10
 121 -5 121 -5 117 -5 c 0,11,12
 103 -5 103 -5 93.5 4.5 c 128,-1,13
 84 14 84 14 84 28 c 256,14,15
 84 42 84 42 94 52 c 128,-1,16
 104 62 104 62 118 62 c 0,17,18
 140 62 140 62 147.5 45.5 c 128,-1,19
 155 29 155 29 155 12 c 0,0,1
EndSplineSet
EndChar
StartChar: hyphen
Encoding: 45 45 14
Width: 268
Flags: W
Fore
253 178 m 1,0,-1
 15 178 l 1,1,-1
 15 217 l 1,2,-1
 253 217 l 1,3,-1
 253 178 l 1,0,-1
EndSplineSet
EndChar
StartChar: period
Encoding: 46 46 15
Width: 240
Flags: W
Fore
155 27 m 256,0,1
 155 13 155 13 145 2 c 128,-1,2
 135 -9 135 -9 120 -9 c 0,3,4
 106 -9 106 -9 96 2 c 128,-1,5
 86 13 86 13 86 27 c 256,6,7
 86 41 86 41 96 51 c 128,-1,8
 106 61 106 61 120 61 c 256,9,10
 134 61 134 61 144.5 51 c 128,-1,11
 155 41 155 41 155 27 c 256,0,1
EndSplineSet
EndChar
StartChar: slash
Encoding: 47 47 16
Width: 207
Flags: W
Fore
26 -15 m 1,0,-1
 -8 -15 l 1,1,-1
 182 481 l 1,2,-1
 215 481 l 1,3,-1
 26 -15 l 1,0,-1
EndSplineSet
EndChar
StartChar: zero
Encoding: 48 48 17
Width: 442
Flags: W
Fore
421 228 m 0,0,1
 421 184 421 184 407.5 142 c 128,-1,2
 394 100 394 100 368.5 67 c 128,-1,3
 343 34 343 34 306 13.5 c 128,-1,4
 269 -7 269 -7 221 -7 c 256,5,6
 173 -7 173 -7 136 13.5 c 128,-1,7
 99 34 99 34 73.5 67 c 128,-1,8
 48 100 48 100 34.5 142 c 128,-1,9
 21 184 21 184 21 228 c 0,10,11
 21 271 21 271 34.5 313 c 128,-1,12
 48 355 48 355 73.5 388 c 128,-1,13
 99 421 99 421 136 441.5 c 128,-1,14
 173 462 173 462 221 462 c 256,15,16
 269 462 269 462 306 441.5 c 128,-1,17
 343 421 343 421 368.5 388 c 128,-1,18
 394 355 394 355 407.5 313 c 128,-1,19
 421 271 421 271 421 228 c 0,0,1
366 228 m 0,20,21
 366 263 366 263 360 300.5 c 128,-1,22
 354 338 354 338 337.5 368.5 c 128,-1,23
 321 399 321 399 293 418.5 c 128,-1,24
 265 438 265 438 221 438 c 256,25,26
 177 438 177 438 149 418.5 c 128,-1,27
 121 399 121 399 104.5 368.5 c 128,-1,28
 88 338 88 338 82 300.5 c 128,-1,29
 76 263 76 263 76 228 c 0,30,31
 76 192 76 192 82 155 c 128,-1,32
 88 118 88 118 104.5 87 c 128,-1,33
 121 56 121 56 149 36.5 c 128,-1,34
 177 17 177 17 221 17 c 256,35,36
 265 17 265 17 293 36.5 c 128,-1,37
 321 56 321 56 337.5 87 c 128,-1,38
 354 118 354 118 360 155 c 128,-1,39
 366 192 366 192 366 228 c 0,20,21
EndSplineSet
EndChar
StartChar: one
Encoding: 49 49 18
Width: 442
Flags: W
Fore
201 0 m 1,0,-1
 201 365 l 1,1,-1
 89 365 l 1,2,-1
 89 387 l 1,3,4
 115 387 115 387 135.5 389 c 128,-1,5
 156 391 156 391 172.5 398.5 c 128,-1,6
 189 406 189 406 202 420.5 c 128,-1,7
 215 435 215 435 226 461 c 1,8,-1
 254 461 l 1,9,-1
 254 0 l 1,10,-1
 201 0 l 1,0,-1
EndSplineSet
EndChar
StartChar: two
Encoding: 50 50 19
Width: 442
Flags: W
Fore
29 0 m 1,0,1
 35 44 35 44 61 74 c 128,-1,2
 87 104 87 104 122 126 c 128,-1,3
 157 148 157 148 196 166.5 c 128,-1,4
 235 185 235 185 267.5 205.5 c 128,-1,5
 300 226 300 226 321.5 252.5 c 128,-1,6
 343 279 343 279 343 318 c 0,7,8
 343 347 343 347 332 369 c 128,-1,9
 321 391 321 391 302.5 406 c 128,-1,10
 284 421 284 421 260 429 c 128,-1,11
 236 437 236 437 209 437 c 256,12,13
 182 437 182 437 157 428.5 c 128,-1,14
 132 420 132 420 113 404.5 c 128,-1,15
 94 389 94 389 82.5 366 c 128,-1,16
 71 343 71 343 71 315 c 1,17,-1
 18 315 l 1,18,19
 23 351 23 351 41 378 c 128,-1,20
 59 405 59 405 85 422.5 c 128,-1,21
 111 440 111 440 143 449 c 128,-1,22
 175 458 175 458 209 458 c 0,23,24
 242 458 242 458 275 450.5 c 128,-1,25
 308 443 308 443 335 426 c 128,-1,26
 362 409 362 409 379 382 c 128,-1,27
 396 355 396 355 396 317 c 0,28,29
 396 275 396 275 374.5 246 c 128,-1,30
 353 217 353 217 320 196.5 c 128,-1,31
 287 176 287 176 248 160.5 c 128,-1,32
 209 145 209 145 175 129.5 c 128,-1,33
 141 114 141 114 117 95 c 128,-1,34
 93 76 93 76 89 48 c 1,35,-1
 406 48 l 1,36,-1
 406 0 l 1,37,-1
 29 0 l 1,0,1
EndSplineSet
EndChar
StartChar: three
Encoding: 51 51 20
Width: 442
Flags: W
Fore
419 131 m 0,0,1
 419 92 419 92 399 65.5 c 128,-1,2
 379 39 379 39 348.5 23 c 128,-1,3
 318 7 318 7 282 0 c 128,-1,4
 246 -7 246 -7 214 -7 c 0,5,6
 180 -7 180 -7 148 1.5 c 128,-1,7
 116 10 116 10 90 27.5 c 128,-1,8
 64 45 64 45 46 71.5 c 128,-1,9
 28 98 28 98 23 134 c 1,10,-1
 76 134 l 1,11,12
 76 105 76 105 87.5 83 c 128,-1,13
 99 61 99 61 118.5 46 c 128,-1,14
 138 31 138 31 162.5 23 c 128,-1,15
 187 15 187 15 214 15 c 0,16,17
 240 15 240 15 267 22 c 128,-1,18
 294 29 294 29 316 43.5 c 128,-1,19
 338 58 338 58 352 80 c 128,-1,20
 366 102 366 102 366 132 c 0,21,22
 366 160 366 160 352.5 179 c 128,-1,23
 339 198 339 198 318.5 209.5 c 128,-1,24
 298 221 298 221 273 225.5 c 128,-1,25
 248 230 248 230 224 230 c 0,26,27
 210 230 210 230 195.5 228.5 c 128,-1,28
 181 227 181 227 167 225 c 1,29,-1
 167 254 l 1,30,31
 188 251 188 251 208 251 c 0,32,33
 230 251 230 251 253.5 256 c 128,-1,34
 277 261 277 261 296.5 272.5 c 128,-1,35
 316 284 316 284 328.5 302 c 128,-1,36
 341 320 341 320 341 346 c 0,37,38
 341 371 341 371 330 388.5 c 128,-1,39
 319 406 319 406 301 417 c 128,-1,40
 283 428 283 428 261 432.5 c 128,-1,41
 239 437 239 437 217 437 c 0,42,43
 167 437 167 437 137 410 c 128,-1,44
 107 383 107 383 104 332 c 1,45,-1
 51 332 l 1,46,47
 53 364 53 364 68.5 388 c 128,-1,48
 84 412 84 412 107.5 427.5 c 128,-1,49
 131 443 131 443 159.5 450.5 c 128,-1,50
 188 458 188 458 217 458 c 0,51,52
 244 458 244 458 275 453 c 128,-1,53
 306 448 306 448 332.5 435.5 c 128,-1,54
 359 423 359 423 376.5 401.5 c 128,-1,55
 394 380 394 380 394 346 c 0,56,57
 394 323 394 323 384.5 305.5 c 128,-1,58
 375 288 375 288 359.5 275.5 c 128,-1,59
 344 263 344 263 324 255 c 128,-1,60
 304 247 304 247 284 243 c 1,61,62
 309 241 309 241 333 233.5 c 128,-1,63
 357 226 357 226 376 212.5 c 128,-1,64
 395 199 395 199 407 179 c 128,-1,65
 419 159 419 159 419 131 c 0,0,1
EndSplineSet
EndChar
StartChar: four
Encoding: 52 52 21
Width: 442
Flags: W
Fore
396 111 m 1,0,-1
 306 111 l 1,1,-1
 306 0 l 1,2,-1
 254 0 l 1,3,-1
 254 111 l 1,4,-1
 13 111 l 1,5,-1
 2 125 l 1,6,-1
 300 461 l 1,7,-1
 306 461 l 1,8,-1
 306 144 l 1,9,-1
 409 144 l 1,10,-1
 396 111 l 1,0,-1
254 373 m 1,11,-1
 52 144 l 1,12,-1
 254 144 l 1,13,-1
 254 373 l 1,11,-1
EndSplineSet
EndChar
StartChar: five
Encoding: 53 53 22
Width: 442
Flags: W
Fore
420 134 m 0,0,1
 420 96 420 96 400.5 69 c 128,-1,2
 381 42 381 42 351.5 25 c 128,-1,3
 322 8 322 8 286.5 0.5 c 128,-1,4
 251 -7 251 -7 219 -7 c 0,5,6
 186 -7 186 -7 153.5 1.5 c 128,-1,7
 121 10 121 10 94.5 27.5 c 128,-1,8
 68 45 68 45 50 71.5 c 128,-1,9
 32 98 32 98 27 134 c 1,10,-1
 80 134 l 1,11,12
 80 105 80 105 91.5 82.5 c 128,-1,13
 103 60 103 60 122.5 45 c 128,-1,14
 142 30 142 30 166.5 22 c 128,-1,15
 191 14 191 14 218 14 c 0,16,17
 244 14 244 14 270 22.5 c 128,-1,18
 296 31 296 31 317 46.5 c 128,-1,19
 338 62 338 62 351 84.5 c 128,-1,20
 364 107 364 107 364 136 c 0,21,22
 364 168 364 168 350.5 191.5 c 128,-1,23
 337 215 337 215 315.5 230 c 128,-1,24
 294 245 294 245 266 252.5 c 128,-1,25
 238 260 238 260 210 260 c 0,26,27
 175 260 175 260 142.5 252 c 128,-1,28
 110 244 110 244 81 224 c 1,29,-1
 61 229 l 1,30,-1
 84 453 l 1,31,-1
 392 453 l 1,32,-1
 377 405 l 1,33,-1
 105 405 l 1,34,-1
 89 253 l 1,35,36
 115 271 115 271 151.5 278 c 128,-1,37
 188 285 188 285 219 285 c 0,38,39
 255 285 255 285 291 277 c 128,-1,40
 327 269 327 269 355.5 251.5 c 128,-1,41
 384 234 384 234 402 205 c 128,-1,42
 420 176 420 176 420 134 c 0,0,1
EndSplineSet
EndChar
StartChar: six
Encoding: 54 54 23
Width: 442
Flags: W
Fore
418 160 m 0,0,1
 418 119 418 119 402 88 c 128,-1,2
 386 57 386 57 359.5 36 c 128,-1,3
 333 15 333 15 298 4 c 128,-1,4
 263 -7 263 -7 226 -7 c 0,5,6
 179 -7 179 -7 141.5 11 c 128,-1,7
 104 29 104 29 77.5 59 c 128,-1,8
 51 89 51 89 36.5 129 c 128,-1,9
 22 169 22 169 22 213 c 0,10,11
 22 262 22 262 35 306.5 c 128,-1,12
 48 351 48 351 74.5 385 c 128,-1,13
 101 419 101 419 141 438.5 c 128,-1,14
 181 458 181 458 234 458 c 0,15,16
 259 458 259 458 289.5 452 c 128,-1,17
 320 446 320 446 346 433 c 128,-1,18
 372 420 372 420 390 398.5 c 128,-1,19
 408 377 408 377 408 346 c 1,20,-1
 355 346 l 1,21,22
 355 368 355 368 343 384.5 c 128,-1,23
 331 401 331 401 313 412 c 128,-1,24
 295 423 295 423 273.5 428 c 128,-1,25
 252 433 252 433 233 433 c 0,26,27
 195 433 195 433 166 416.5 c 128,-1,28
 137 400 137 400 117.5 373 c 128,-1,29
 98 346 98 346 88 312 c 128,-1,30
 78 278 78 278 78 244 c 0,31,32
 78 238 78 238 78.5 232 c 128,-1,33
 79 226 79 226 80 220 c 1,34,35
 99 268 99 268 143.5 291.5 c 128,-1,36
 188 315 188 315 237 315 c 0,37,38
 272 315 272 315 305 305 c 128,-1,39
 338 295 338 295 363 275.5 c 128,-1,40
 388 256 388 256 403 227 c 128,-1,41
 418 198 418 198 418 160 c 0,0,1
361 153 m 0,42,43
 361 181 361 181 350.5 205.5 c 128,-1,44
 340 230 340 230 322 248 c 128,-1,45
 304 266 304 266 279.5 276.5 c 128,-1,46
 255 287 255 287 227 287 c 256,47,48
 199 287 199 287 174.5 276.5 c 128,-1,49
 150 266 150 266 131.5 248 c 128,-1,50
 113 230 113 230 102.5 205.5 c 128,-1,51
 92 181 92 181 92 153 c 256,52,53
 92 125 92 125 102.5 100.5 c 128,-1,54
 113 76 113 76 131.5 57.5 c 128,-1,55
 150 39 150 39 174.5 28.5 c 128,-1,56
 199 18 199 18 227 18 c 0,57,58
 256 18 256 18 280.5 28 c 128,-1,59
 305 38 305 38 323 56 c 128,-1,60
 341 74 341 74 351 99 c 128,-1,61
 361 124 361 124 361 153 c 0,42,43
EndSplineSet
EndChar
StartChar: seven
Encoding: 55 55 24
Width: 442
Flags: W
Fore
420 453 m 1,0,1
 420 425 420 425 402.5 398 c 128,-1,2
 385 371 385 371 359 341 c 128,-1,3
 333 311 333 311 302.5 277.5 c 128,-1,4
 272 244 272 244 245.5 203 c 128,-1,5
 219 162 219 162 202 112 c 128,-1,6
 185 62 185 62 185 0 c 1,7,-1
 127 0 l 1,8,9
 127 56 127 56 144.5 102 c 128,-1,10
 162 148 162 148 188 186.5 c 128,-1,11
 214 225 214 225 245 256 c 128,-1,12
 276 287 276 287 302 313 c 128,-1,13
 328 339 328 339 345.5 361.5 c 128,-1,14
 363 384 363 384 363 405 c 1,15,-1
 31 405 l 1,16,-1
 46 453 l 1,17,-1
 420 453 l 1,18,-1
 420 453 l 1,0,1
EndSplineSet
EndChar
StartChar: eight
Encoding: 56 56 25
Width: 442
Flags: W
Fore
426 134 m 0,0,1
 426 95 426 95 405.5 68 c 128,-1,2
 385 41 385 41 354.5 24.5 c 128,-1,3
 324 8 324 8 287.5 0.5 c 128,-1,4
 251 -7 251 -7 219 -7 c 0,5,6
 188 -7 188 -7 152.5 -1 c 128,-1,7
 117 5 117 5 86.5 20 c 128,-1,8
 56 35 56 35 36 60.5 c 128,-1,9
 16 86 16 86 16 125 c 0,10,11
 16 151 16 151 27.5 172 c 128,-1,12
 39 193 39 193 58 208 c 128,-1,13
 77 223 77 223 100.5 232.5 c 128,-1,14
 124 242 124 242 147 246 c 1,15,16
 129 252 129 252 111 261.5 c 128,-1,17
 93 271 93 271 79 284 c 128,-1,18
 65 297 65 297 56.5 314 c 128,-1,19
 48 331 48 331 48 353 c 0,20,21
 48 384 48 384 66.5 405.5 c 128,-1,22
 85 427 85 427 112 439.5 c 128,-1,23
 139 452 139 452 170 457.5 c 128,-1,24
 201 463 201 463 226 463 c 0,25,26
 248 463 248 463 277.5 458.5 c 128,-1,27
 307 454 307 454 333 442.5 c 128,-1,28
 359 431 359 431 377.5 412 c 128,-1,29
 396 393 396 393 396 364 c 0,30,31
 396 342 396 342 383.5 324.5 c 128,-1,32
 371 307 371 307 352 293.5 c 128,-1,33
 333 280 333 280 311 272 c 128,-1,34
 289 264 289 264 271 261 c 1,35,36
 295 255 295 255 322 245.5 c 128,-1,37
 349 236 349 236 372.5 221.5 c 128,-1,38
 396 207 396 207 411 185.5 c 128,-1,39
 426 164 426 164 426 134 c 0,0,1
344 361 m 0,40,41
 344 383 344 383 332 398.5 c 128,-1,42
 320 414 320 414 302.5 423.5 c 128,-1,43
 285 433 285 433 264 437 c 128,-1,44
 243 441 243 441 225 441 c 0,45,46
 208 441 208 441 186 437.5 c 128,-1,47
 164 434 164 434 144.5 425 c 128,-1,48
 125 416 125 416 111.5 401.5 c 128,-1,49
 98 387 98 387 98 365 c 0,50,51
 98 342 98 342 114 326.5 c 128,-1,52
 130 311 130 311 153 301 c 128,-1,53
 176 291 176 291 200.5 285 c 128,-1,54
 225 279 225 279 242 275 c 1,55,56
 257 279 257 279 275 286 c 128,-1,57
 293 293 293 293 308.5 303 c 128,-1,58
 324 313 324 313 334 327 c 128,-1,59
 344 341 344 341 344 361 c 0,40,41
373 130 m 0,60,61
 373 149 373 149 350.5 168 c 128,-1,62
 328 187 328 187 297.5 201 c 128,-1,63
 267 215 267 215 236 224 c 128,-1,64
 205 233 205 233 189 233 c 0,65,66
 170 233 170 233 150 225 c 128,-1,67
 130 217 130 217 113.5 203.5 c 128,-1,68
 97 190 97 190 86 172 c 128,-1,69
 75 154 75 154 75 134 c 0,70,71
 75 106 75 106 88 84.5 c 128,-1,72
 101 63 101 63 122 48 c 128,-1,73
 143 33 143 33 168.5 25.5 c 128,-1,74
 194 18 194 18 219 18 c 0,75,76
 243 18 243 18 270 24.5 c 128,-1,77
 297 31 297 31 320 45 c 128,-1,78
 343 59 343 59 358 80 c 128,-1,79
 373 101 373 101 373 130 c 0,60,61
EndSplineSet
EndChar
StartChar: nine
Encoding: 57 57 26
Width: 442
Flags: W
Fore
420 238 m 0,0,1
 420 188 420 188 407 144 c 128,-1,2
 394 100 394 100 367.5 66 c 128,-1,3
 341 32 341 32 301 12.5 c 128,-1,4
 261 -7 261 -7 208 -7 c 0,5,6
 183 -7 183 -7 152.5 -1 c 128,-1,7
 122 5 122 5 96 18.5 c 128,-1,8
 70 32 70 32 52 53.5 c 128,-1,9
 34 75 34 75 34 106 c 1,10,-1
 87 106 l 1,11,12
 87 83 87 83 99 66.5 c 128,-1,13
 111 50 111 50 129 39 c 128,-1,14
 147 28 147 28 168.5 23 c 128,-1,15
 190 18 190 18 209 18 c 0,16,17
 247 18 247 18 276 34.5 c 128,-1,18
 305 51 305 51 324.5 78 c 128,-1,19
 344 105 344 105 354 139 c 128,-1,20
 364 173 364 173 364 208 c 0,21,22
 364 214 364 214 363.5 219.5 c 128,-1,23
 363 225 363 225 362 231 c 1,24,25
 343 183 343 183 298.5 159.5 c 128,-1,26
 254 136 254 136 205 136 c 0,27,28
 170 136 170 136 137 146 c 128,-1,29
 104 156 104 156 79 175.5 c 128,-1,30
 54 195 54 195 39 224 c 128,-1,31
 24 253 24 253 24 291 c 0,32,33
 24 332 24 332 40 363 c 128,-1,34
 56 394 56 394 82.5 415 c 128,-1,35
 109 436 109 436 143.5 447 c 128,-1,36
 178 458 178 458 216 458 c 0,37,38
 263 458 263 458 300.5 440.5 c 128,-1,39
 338 423 338 423 364.5 393 c 128,-1,40
 391 363 391 363 405.5 323 c 128,-1,41
 420 283 420 283 420 238 c 0,0,1
350 299 m 0,42,43
 350 326 350 326 339.5 350.5 c 128,-1,44
 329 375 329 375 310.5 393.5 c 128,-1,45
 292 412 292 412 267.5 422.5 c 128,-1,46
 243 433 243 433 215 433 c 0,47,48
 186 433 186 433 161.5 423 c 128,-1,49
 137 413 137 413 119 395 c 128,-1,50
 101 377 101 377 91 352.5 c 128,-1,51
 81 328 81 328 81 299 c 0,52,53
 81 271 81 271 91.5 246.5 c 128,-1,54
 102 222 102 222 120 203.5 c 128,-1,55
 138 185 138 185 162.5 174.5 c 128,-1,56
 187 164 187 164 215 164 c 256,57,58
 243 164 243 164 267.5 174.5 c 128,-1,59
 292 185 292 185 310.5 203.5 c 128,-1,60
 329 222 329 222 339.5 246.5 c 128,-1,61
 350 271 350 271 350 299 c 0,42,43
EndSplineSet
EndChar
StartChar: colon
Encoding: 58 58 27
Width: 240
Flags: W
Fore
155 299 m 256,0,1
 155 285 155 285 144.5 274.5 c 128,-1,2
 134 264 134 264 120 264 c 256,3,4
 106 264 106 264 96 274.5 c 128,-1,5
 86 285 86 285 86 299 c 256,6,7
 86 313 86 313 96 323.5 c 128,-1,8
 106 334 106 334 120 334 c 256,9,10
 134 334 134 334 144.5 323.5 c 128,-1,11
 155 313 155 313 155 299 c 256,0,1
155 27 m 256,12,13
 155 13 155 13 145 2 c 128,-1,14
 135 -9 135 -9 120 -9 c 0,15,16
 106 -9 106 -9 96 2 c 128,-1,17
 86 13 86 13 86 27 c 256,18,19
 86 41 86 41 96 51 c 128,-1,20
 106 61 106 61 120 61 c 256,21,22
 134 61 134 61 144.5 51 c 128,-1,23
 155 41 155 41 155 27 c 256,12,13
EndSplineSet
EndChar
StartChar: semicolon
Encoding: 59 59 28
Width: 240
Flags: W
Fore
155 299 m 256,0,1
 155 285 155 285 144.5 274.5 c 128,-1,2
 134 264 134 264 120 264 c 256,3,4
 106 264 106 264 96 274.5 c 128,-1,5
 86 285 86 285 86 299 c 256,6,7
 86 313 86 313 96 323.5 c 128,-1,8
 106 334 106 334 120 334 c 256,9,10
 134 334 134 334 144.5 323.5 c 128,-1,11
 155 313 155 313 155 299 c 256,0,1
155 12 m 0,12,13
 155 -17 155 -17 140.5 -45.5 c 128,-1,14
 126 -74 126 -74 101 -88 c 1,15,-1
 97 -84 l 1,16,17
 111 -71 111 -71 122.5 -51 c 128,-1,18
 134 -31 134 -31 132 -11 c 2,19,-1
 132 -2 l 1,20,21
 128 -3 128 -3 124.5 -4 c 128,-1,22
 121 -5 121 -5 117 -5 c 0,23,24
 103 -5 103 -5 93.5 4.5 c 128,-1,25
 84 14 84 14 84 28 c 256,26,27
 84 42 84 42 94 52 c 128,-1,28
 104 62 104 62 118 62 c 0,29,30
 140 62 140 62 147.5 45.5 c 128,-1,31
 155 29 155 29 155 12 c 0,12,13
EndSplineSet
EndChar
StartChar: less
Encoding: 60 60 29
Width: 442
Flags: W
Fore
39 171 m 1,0,-1
 39 209 l 1,1,-1
 403 379 l 1,2,-1
 403 339 l 1,3,-1
 81 190 l 1,4,-1
 403 41 l 1,5,-1
 403 1 l 1,6,-1
 39 171 l 1,0,-1
EndSplineSet
EndChar
StartChar: equal
Encoding: 61 61 30
Width: 442
Flags: W
Fore
35 248 m 1,0,-1
 35 285 l 1,1,-1
 407 285 l 1,2,-1
 407 248 l 1,3,-1
 35 248 l 1,0,-1
35 100 m 1,4,-1
 35 137 l 1,5,-1
 407 137 l 1,6,-1
 407 100 l 1,7,-1
 35 100 l 1,4,-1
EndSplineSet
EndChar
StartChar: greater
Encoding: 62 62 31
Width: 442
Flags: W
Fore
39 1 m 1,0,-1
 39 41 l 1,1,-1
 361 190 l 1,2,-1
 39 339 l 1,3,-1
 39 379 l 1,4,-1
 403 209 l 1,5,-1
 403 171 l 1,6,-1
 39 1 l 1,0,-1
EndSplineSet
EndChar
StartChar: question
Encoding: 63 63 32
Width: 369
Flags: W
Fore
333 350 m 0,0,1
 333 323 333 323 321 303.5 c 128,-1,2
 309 284 309 284 291 267.5 c 128,-1,3
 273 251 273 251 251.5 235 c 128,-1,4
 230 219 230 219 212.5 198.5 c 128,-1,5
 195 178 195 178 183.5 150.5 c 128,-1,6
 172 123 172 123 173 84 c 1,7,-1
 161 84 l 1,8,9
 158 105 158 105 158 125 c 0,10,11
 158 176 158 176 175 206 c 128,-1,12
 192 236 192 236 212 258 c 128,-1,13
 232 280 232 280 249 300.5 c 128,-1,14
 266 321 266 321 266 352 c 0,15,16
 266 399 266 399 247 430 c 128,-1,17
 228 461 228 461 177 461 c 0,18,19
 148 461 148 461 129.5 450 c 128,-1,20
 111 439 111 439 100 421 c 128,-1,21
 89 403 89 403 84.5 379.5 c 128,-1,22
 80 356 80 356 80 332 c 1,23,-1
 27 332 l 1,24,25
 27 401 27 401 68.5 441 c 128,-1,26
 110 481 110 481 179 481 c 0,27,28
 209 481 209 481 236.5 473 c 128,-1,29
 264 465 264 465 285.5 448.5 c 128,-1,30
 307 432 307 432 320 407.5 c 128,-1,31
 333 383 333 383 333 350 c 0,0,1
201 25 m 256,32,33
 201 11 201 11 191 1 c 128,-1,34
 181 -9 181 -9 167 -9 c 256,35,36
 153 -9 153 -9 143.5 1 c 128,-1,37
 134 11 134 11 134 25 c 256,38,39
 134 39 134 39 143.5 49 c 128,-1,40
 153 59 153 59 167 59 c 256,41,42
 181 59 181 59 191 49 c 128,-1,43
 201 39 201 39 201 25 c 256,32,33
EndSplineSet
EndChar
StartChar: at
Encoding: 64 64 33
Width: 586
Flags: W
Fore
543 270 m 0,0,1
 543 243 543 243 533.5 212.5 c 128,-1,2
 524 182 524 182 506.5 157 c 128,-1,3
 489 132 489 132 464 115.5 c 128,-1,4
 439 99 439 99 408 99 c 0,5,6
 357 99 357 99 346 151 c 1,7,8
 326 127 326 127 306.5 113.5 c 128,-1,9
 287 100 287 100 255 100 c 0,10,11
 237 100 237 100 224.5 108 c 128,-1,12
 212 116 212 116 204.5 128.5 c 128,-1,13
 197 141 197 141 194 156.5 c 128,-1,14
 191 172 191 172 191 187 c 0,15,16
 191 215 191 215 200 245 c 128,-1,17
 209 275 209 275 226.5 300.5 c 128,-1,18
 244 326 244 326 268.5 342.5 c 128,-1,19
 293 359 293 359 325 359 c 0,20,21
 343 359 343 359 359 349.5 c 128,-1,22
 375 340 375 340 384 324 c 1,23,-1
 405 351 l 1,24,-1
 441 351 l 1,25,26
 436 333 436 333 428 306.5 c 128,-1,27
 420 280 420 280 412 252.5 c 128,-1,28
 404 225 404 225 398.5 199 c 128,-1,29
 393 173 393 173 393 156 c 0,30,31
 393 150 393 150 395 140 c 1,32,-1
 402 127 l 1,33,-1
 416 122 l 1,34,35
 441 122 441 122 460 137 c 128,-1,36
 479 152 479 152 492 174.5 c 128,-1,37
 505 197 505 197 511.5 222 c 128,-1,38
 518 247 518 247 518 268 c 0,39,40
 518 311 518 311 501 347 c 128,-1,41
 484 383 484 383 454.5 409 c 128,-1,42
 425 435 425 435 387 449.5 c 128,-1,43
 349 464 349 464 307 464 c 0,44,45
 257 464 257 464 218.5 444 c 128,-1,46
 180 424 180 424 153.5 390.5 c 128,-1,47
 127 357 127 357 113 314 c 128,-1,48
 99 271 99 271 99 225 c 0,49,50
 99 178 99 178 115 139 c 128,-1,51
 131 100 131 100 159.5 71.5 c 128,-1,52
 188 43 188 43 227 27.5 c 128,-1,53
 266 12 266 12 313 12 c 0,54,55
 350 12 350 12 386.5 19 c 128,-1,56
 423 26 423 26 455 44 c 1,57,-1
 466 27 l 1,58,59
 431 7 431 7 393.5 -3.5 c 128,-1,60
 356 -14 356 -14 316 -14 c 0,61,62
 264 -14 264 -14 215 2 c 128,-1,63
 166 18 166 18 127.5 48.5 c 128,-1,64
 89 79 89 79 66 123 c 128,-1,65
 43 167 43 167 43 223 c 0,66,67
 43 278 43 278 63.5 325.5 c 128,-1,68
 84 373 84 373 120 407.5 c 128,-1,69
 156 442 156 442 204 461.5 c 128,-1,70
 252 481 252 481 307 481 c 0,71,72
 354 481 354 481 396.5 466.5 c 128,-1,73
 439 452 439 452 471.5 425 c 128,-1,74
 504 398 504 398 523.5 358.5 c 128,-1,75
 543 319 543 319 543 270 c 0,0,1
373 279 m 0,76,77
 373 287 373 287 370.5 296.5 c 128,-1,78
 368 306 368 306 363.5 314 c 128,-1,79
 359 322 359 322 352 327.5 c 128,-1,80
 345 333 345 333 336 333 c 0,81,82
 309 333 309 333 290 319 c 128,-1,83
 271 305 271 305 260 283.5 c 128,-1,84
 249 262 249 262 244 236.5 c 128,-1,85
 239 211 239 211 239 189 c 0,86,87
 239 166 239 166 248.5 147.5 c 128,-1,88
 258 129 258 129 284 129 c 0,89,90
 305 129 305 129 321.5 146 c 128,-1,91
 338 163 338 163 349.5 187 c 128,-1,92
 361 211 361 211 367 236.5 c 128,-1,93
 373 262 373 262 373 279 c 0,76,77
EndSplineSet
EndChar
StartChar: A
Encoding: 65 65 34
Width: 524
Flags: W
Fore
461 0 m 1,0,-1
 335 239 l 1,1,-1
 159 239 l 1,2,-1
 32 0 l 1,3,-1
 0 0 l 1,4,-1
 264 482 l 1,5,-1
 275 482 l 1,6,-1
 524 0 l 1,7,-1
 461 0 l 1,0,-1
251 409 m 1,8,-1
 173 263 l 1,9,-1
 324 263 l 1,10,-1
 251 409 l 1,8,-1
EndSplineSet
EndChar
StartChar: B
Encoding: 66 66 35
Width: 535
Flags: W
Fore
510 128 m 0,0,1
 510 85 510 85 485 60 c 128,-1,2
 460 35 460 35 423.5 21.5 c 128,-1,3
 387 8 387 8 346 4 c 128,-1,4
 305 0 305 0 273 0 c 2,5,-1
 50 0 l 1,6,-1
 50 467 l 1,7,-1
 283 467 l 2,8,9
 309 467 309 467 340.5 463 c 128,-1,10
 372 459 372 459 400 447.5 c 128,-1,11
 428 436 428 436 446.5 415 c 128,-1,12
 465 394 465 394 465 360 c 0,13,14
 465 333 465 333 449.5 313 c 128,-1,15
 434 293 434 293 411 280 c 128,-1,16
 388 267 388 267 361 260 c 128,-1,17
 334 253 334 253 312 252 c 1,18,19
 340 250 340 250 374.5 244 c 128,-1,20
 409 238 409 238 439 224.5 c 128,-1,21
 469 211 469 211 489.5 188 c 128,-1,22
 510 165 510 165 510 128 c 0,0,1
407 355 m 0,23,24
 407 386 407 386 390.5 403.5 c 128,-1,25
 374 421 374 421 350 429.5 c 128,-1,26
 326 438 326 438 298.5 440 c 128,-1,27
 271 442 271 442 248 442 c 2,28,-1
 104 442 l 1,29,-1
 104 263 l 1,30,-1
 251 263 l 2,31,32
 273 263 273 263 300 266.5 c 128,-1,33
 327 270 327 270 351 280.5 c 128,-1,34
 375 291 375 291 391 308.5 c 128,-1,35
 407 326 407 326 407 355 c 0,23,24
447 124 m 0,36,37
 447 163 447 163 427.5 185.5 c 128,-1,38
 408 208 408 208 378.5 220 c 128,-1,39
 349 232 349 232 315 235 c 128,-1,40
 281 238 281 238 251 238 c 2,41,-1
 104 238 l 1,42,-1
 104 24 l 1,43,-1
 304 24 l 2,44,45
 327 24 327 24 352.5 29 c 128,-1,46
 378 34 378 34 399 46 c 128,-1,47
 420 58 420 58 433.5 77 c 128,-1,48
 447 96 447 96 447 124 c 0,36,37
EndSplineSet
EndChar
StartChar: C
Encoding: 67 67 36
Width: 562
Flags: W
Fore
537 134 m 1,0,1
 522 97 522 97 498.5 69 c 128,-1,2
 475 41 475 41 444.5 22.5 c 128,-1,3
 414 4 414 4 377.5 -5.5 c 128,-1,4
 341 -15 341 -15 302 -15 c 0,5,6
 250 -15 250 -15 200 2 c 128,-1,7
 150 19 150 19 111 51 c 128,-1,8
 72 83 72 83 48.5 128 c 128,-1,9
 25 173 25 173 25 229 c 0,10,11
 25 288 25 288 47.5 335 c 128,-1,12
 70 382 70 382 108.5 414.5 c 128,-1,13
 147 447 147 447 197 464.5 c 128,-1,14
 247 482 247 482 303 482 c 0,15,16
 342 482 342 482 378 472.5 c 128,-1,17
 414 463 414 463 444.5 444 c 128,-1,18
 475 425 475 425 499 397 c 128,-1,19
 523 369 523 369 537 332 c 1,20,-1
 468 332 l 1,21,22
 451 390 451 390 407.5 424.5 c 128,-1,23
 364 459 364 459 302 459 c 0,24,25
 254 459 254 459 215 442 c 128,-1,26
 176 425 176 425 148 395 c 128,-1,27
 120 365 120 365 104.5 324.5 c 128,-1,28
 89 284 89 284 89 237 c 0,29,30
 89 191 89 191 104.5 149 c 128,-1,31
 120 107 120 107 147.5 75.5 c 128,-1,32
 175 44 175 44 214.5 25.5 c 128,-1,33
 254 7 254 7 302 7 c 0,34,35
 364 7 364 7 407.5 41.5 c 128,-1,36
 451 76 451 76 468 134 c 1,37,-1
 537 134 l 1,38,-1
 537 134 l 1,0,1
EndSplineSet
EndChar
StartChar: D
Encoding: 68 68 37
Width: 557
Flags: W
Fore
532 248 m 0,0,1
 532 174 532 174 507 126.5 c 128,-1,2
 482 79 482 79 439.5 50.5 c 128,-1,3
 397 22 397 22 340.5 11 c 128,-1,4
 284 0 284 0 220 0 c 2,5,-1
 50 0 l 1,6,-1
 50 467 l 1,7,-1
 216 467 l 2,8,9
 271 467 271 467 327 458 c 128,-1,10
 383 449 383 449 428.5 424.5 c 128,-1,11
 474 400 474 400 503 357.5 c 128,-1,12
 532 315 532 315 532 248 c 0,0,1
466 248 m 0,13,14
 466 304 466 304 447.5 341 c 128,-1,15
 429 378 429 378 397.5 400.5 c 128,-1,16
 366 423 366 423 322.5 432.5 c 128,-1,17
 279 442 279 442 230 442 c 2,18,-1
 104 442 l 1,19,-1
 104 24 l 1,20,-1
 230 24 l 2,21,22
 348 24 348 24 407 74.5 c 128,-1,23
 466 125 466 125 466 248 c 0,13,14
EndSplineSet
EndChar
StartChar: E
Encoding: 69 69 38
Width: 451
Flags: W
Fore
50 0 m 1,0,-1
 50 467 l 1,1,-1
 441 467 l 1,2,-1
 441 442 l 1,3,-1
 104 442 l 1,4,-1
 104 263 l 1,5,-1
 369 263 l 1,6,-1
 369 239 l 1,7,-1
 104 239 l 1,8,-1
 104 24 l 1,9,-1
 441 24 l 1,10,-1
 441 0 l 1,11,-1
 50 0 l 1,0,-1
EndSplineSet
EndChar
StartChar: F
Encoding: 70 70 39
Width: 451
Flags: W
Fore
104 442 m 1,0,-1
 104 263 l 1,1,-1
 369 263 l 1,2,-1
 369 239 l 1,3,-1
 104 239 l 1,4,-1
 104 0 l 1,5,-1
 50 0 l 1,6,-1
 50 467 l 1,7,-1
 441 467 l 1,8,-1
 441 442 l 1,9,-1
 104 442 l 1,0,-1
EndSplineSet
EndChar
StartChar: G
Encoding: 71 71 40
Width: 562
Flags: W
Fore
468 332 m 1,0,1
 461 363 461 363 444.5 386.5 c 128,-1,2
 428 410 428 410 405.5 426 c 128,-1,3
 383 442 383 442 355 450.5 c 128,-1,4
 327 459 327 459 297 459 c 0,5,6
 250 459 250 459 212 441.5 c 128,-1,7
 174 424 174 424 147 394 c 128,-1,8
 120 364 120 364 105.5 324 c 128,-1,9
 91 284 91 284 91 239 c 256,10,11
 91 194 91 194 104.5 152.5 c 128,-1,12
 118 111 118 111 144 79 c 128,-1,13
 170 47 170 47 208 27.5 c 128,-1,14
 246 8 246 8 294 8 c 0,15,16
 316 8 316 8 340.5 12.5 c 128,-1,17
 365 17 365 17 388.5 25.5 c 128,-1,18
 412 34 412 34 433 47 c 128,-1,19
 454 60 454 60 470 77 c 1,20,-1
 470 214 l 1,21,-1
 303 214 l 1,22,-1
 303 239 l 1,23,-1
 523 239 l 1,24,-1
 523 66 l 1,25,26
 479 21 479 21 417 3 c 128,-1,27
 355 -15 355 -15 294 -15 c 0,28,29
 243 -15 243 -15 194.5 3 c 128,-1,30
 146 21 146 21 108.5 53.5 c 128,-1,31
 71 86 71 86 48 130.5 c 128,-1,32
 25 175 25 175 25 229 c 0,33,34
 25 286 25 286 47 332.5 c 128,-1,35
 69 379 69 379 106.5 412.5 c 128,-1,36
 144 446 144 446 193 464 c 128,-1,37
 242 482 242 482 297 482 c 0,38,39
 381 482 381 482 443 447.5 c 128,-1,40
 505 413 505 413 537 332 c 1,41,-1
 468 332 l 1,0,1
EndSplineSet
EndChar
StartChar: H
Encoding: 72 72 41
Width: 547
Flags: W
Fore
444 0 m 1,0,-1
 444 239 l 1,1,-1
 104 239 l 1,2,-1
 104 0 l 1,3,-1
 50 0 l 1,4,-1
 50 467 l 1,5,-1
 104 467 l 1,6,-1
 104 263 l 1,7,-1
 444 263 l 1,8,-1
 444 467 l 1,9,-1
 497 467 l 1,10,-1
 497 0 l 1,11,-1
 444 0 l 1,0,-1
EndSplineSet
EndChar
StartChar: I
Encoding: 73 73 42
Width: 154
Flags: W
Fore
50 0 m 1,0,-1
 50 467 l 1,1,-1
 104 467 l 1,2,-1
 104 0 l 1,3,-1
 50 0 l 1,0,-1
EndSplineSet
EndChar
StartChar: J
Encoding: 74 74 43
Width: 347
Flags: W
Fore
297 142 m 1,0,1
 297 109 297 109 287 79.5 c 128,-1,2
 277 50 277 50 258 28 c 128,-1,3
 239 6 239 6 211.5 -7 c 128,-1,4
 184 -20 184 -20 149 -20 c 0,5,6
 124 -20 124 -20 97.5 -13.5 c 128,-1,7
 71 -7 71 -7 49.5 6 c 128,-1,8
 28 19 28 19 13 39.5 c 128,-1,9
 -2 60 -2 60 -4 89 c 1,10,-1
 54 89 l 1,11,12
 56 49 56 49 81 25.5 c 128,-1,13
 106 2 106 2 146 2 c 0,14,15
 173 2 173 2 191 13.5 c 128,-1,16
 209 25 209 25 220.5 43 c 128,-1,17
 232 61 232 61 237 84 c 128,-1,18
 242 107 242 107 242 130 c 2,19,-1
 242 467 l 1,20,-1
 297 467 l 1,21,-1
 297 142 l 1,22,-1
 297 142 l 1,0,1
EndSplineSet
EndChar
StartChar: K
Encoding: 75 75 44
Width: 490
Flags: W
Fore
415 0 m 1,0,-1
 217 294 l 1,1,-1
 104 202 l 1,2,-1
 104 0 l 1,3,-1
 50 0 l 1,4,-1
 50 467 l 1,5,-1
 104 467 l 1,6,-1
 104 239 l 1,7,-1
 381 467 l 1,8,-1
 428 467 l 1,9,-1
 257 327 l 1,10,-1
 480 0 l 1,11,-1
 415 0 l 1,0,-1
EndSplineSet
EndChar
StartChar: L
Encoding: 76 76 45
Width: 399
Flags: W
Fore
50 0 m 1,0,-1
 50 467 l 1,1,-1
 104 467 l 1,2,-1
 104 24 l 1,3,-1
 394 24 l 1,4,-1
 394 0 l 1,5,-1
 50 0 l 1,0,-1
EndSplineSet
EndChar
StartChar: M
Encoding: 77 77 46
Width: 616
Flags: W
Fore
512 0 m 1,0,-1
 512 427 l 1,1,-1
 295 -9 l 1,2,-1
 287 -9 l 1,3,-1
 81 414 l 1,4,-1
 81 0 l 1,5,-1
 50 0 l 1,6,-1
 50 467 l 1,7,-1
 119 467 l 1,8,-1
 308 76 l 1,9,-1
 503 467 l 1,10,-1
 566 467 l 1,11,-1
 566 0 l 1,12,-1
 512 0 l 1,0,-1
EndSplineSet
EndChar
StartChar: N
Encoding: 78 78 47
Width: 534
Flags: W
Fore
477 -14 m 1,0,-1
 81 419 l 1,1,-1
 81 0 l 1,2,-1
 50 0 l 1,3,-1
 50 467 l 1,4,-1
 110 467 l 1,5,-1
 453 91 l 1,6,-1
 453 467 l 1,7,-1
 484 467 l 1,8,-1
 484 -14 l 1,9,-1
 477 -14 l 1,0,-1
EndSplineSet
EndChar
StartChar: O
Encoding: 79 79 48
Width: 595
Flags: W
Fore
570 233 m 0,0,1
 570 177 570 177 547 131 c 128,-1,2
 524 85 524 85 486 52 c 128,-1,3
 448 19 448 19 399 1 c 128,-1,4
 350 -17 350 -17 297 -17 c 256,5,6
 244 -17 244 -17 195 1 c 128,-1,7
 146 19 146 19 108 52 c 128,-1,8
 70 85 70 85 47.5 131 c 128,-1,9
 25 177 25 177 25 232 c 256,10,11
 25 287 25 287 48 333 c 128,-1,12
 71 379 71 379 109.5 412 c 128,-1,13
 148 445 148 445 197 463.5 c 128,-1,14
 246 482 246 482 298 482 c 256,15,16
 350 482 350 482 399.5 464 c 128,-1,17
 449 446 449 446 486.5 413 c 128,-1,18
 524 380 524 380 547 334 c 128,-1,19
 570 288 570 288 570 233 c 0,0,1
503 233 m 0,20,21
 503 279 503 279 489.5 321 c 128,-1,22
 476 363 476 363 449.5 394.5 c 128,-1,23
 423 426 423 426 385 444.5 c 128,-1,24
 347 463 347 463 298 463 c 0,25,26
 248 463 248 463 209.5 444.5 c 128,-1,27
 171 426 171 426 145 394.5 c 128,-1,28
 119 363 119 363 105 321 c 128,-1,29
 91 279 91 279 91 232 c 256,30,31
 91 185 91 185 104.5 143.5 c 128,-1,32
 118 102 118 102 144.5 70.5 c 128,-1,33
 171 39 171 39 209 20.5 c 128,-1,34
 247 2 247 2 297 2 c 0,35,36
 346 2 346 2 384.5 20.5 c 128,-1,37
 423 39 423 39 449.5 71 c 128,-1,38
 476 103 476 103 489.5 144.5 c 128,-1,39
 503 186 503 186 503 233 c 0,20,21
EndSplineSet
EndChar
StartChar: P
Encoding: 80 80 49
Width: 495
Flags: W
Fore
470 344 m 0,0,1
 470 305 470 305 449.5 280.5 c 128,-1,2
 429 256 429 256 396.5 241.5 c 128,-1,3
 364 227 364 227 323.5 220.5 c 128,-1,4
 283 214 283 214 242 212.5 c 128,-1,5
 201 211 201 211 164.5 212 c 128,-1,6
 128 213 128 213 104 213 c 1,7,-1
 104 0 l 1,8,-1
 50 0 l 1,9,-1
 50 467 l 1,10,-1
 201 467 l 2,11,12
 222 467 222 467 250.5 466.5 c 128,-1,13
 279 466 279 466 309 462.5 c 128,-1,14
 339 459 339 459 368 451.5 c 128,-1,15
 397 444 397 444 419.5 430 c 128,-1,16
 442 416 442 416 456 395 c 128,-1,17
 470 374 470 374 470 344 c 0,0,1
408 345 m 0,18,19
 408 379 408 379 384.5 398.5 c 128,-1,20
 361 418 361 418 328.5 427.5 c 128,-1,21
 296 437 296 437 261 439.5 c 128,-1,22
 226 442 226 442 202 442 c 2,23,-1
 104 442 l 1,24,-1
 104 239 l 1,25,-1
 200 239 l 2,26,27
 228 239 228 239 264.5 241 c 128,-1,28
 301 243 301 243 332.5 253 c 128,-1,29
 364 263 364 263 386 284.5 c 128,-1,30
 408 306 408 306 408 345 c 0,18,19
EndSplineSet
EndChar
StartChar: Q
Encoding: 81 81 50
Width: 595
Flags: W
Fore
570 233 m 0,0,1
 570 185 570 185 551.5 143.5 c 128,-1,2
 533 102 533 102 502 70 c 128,-1,3
 471 38 471 38 429.5 16 c 128,-1,4
 388 -6 388 -6 343 -14 c 1,5,6
 348 -47 348 -47 365 -70 c 128,-1,7
 382 -93 382 -93 406 -107 c 128,-1,8
 430 -121 430 -121 458.5 -125.5 c 128,-1,9
 487 -130 487 -130 515 -125 c 1,10,-1
 508 -147 l 1,11,12
 471 -159 471 -159 431.5 -153.5 c 128,-1,13
 392 -148 392 -148 358.5 -129 c 128,-1,14
 325 -110 325 -110 300.5 -81 c 128,-1,15
 276 -52 276 -52 268 -16 c 1,16,17
 220 -11 220 -11 176 10 c 128,-1,18
 132 31 132 31 98.5 63.5 c 128,-1,19
 65 96 65 96 45 139 c 128,-1,20
 25 182 25 182 25 232 c 0,21,22
 25 287 25 287 48 333 c 128,-1,23
 71 379 71 379 109 412 c 128,-1,24
 147 445 147 445 196 463.5 c 128,-1,25
 245 482 245 482 298 482 c 0,26,27
 350 482 350 482 399.5 464 c 128,-1,28
 449 446 449 446 486.5 413 c 128,-1,29
 524 380 524 380 547 334 c 128,-1,30
 570 288 570 288 570 233 c 0,0,1
503 233 m 0,31,32
 503 279 503 279 489.5 321 c 128,-1,33
 476 363 476 363 449.5 394.5 c 128,-1,34
 423 426 423 426 385 444.5 c 128,-1,35
 347 463 347 463 298 463 c 0,36,37
 248 463 248 463 209.5 444.5 c 128,-1,38
 171 426 171 426 145 394.5 c 128,-1,39
 119 363 119 363 105 321 c 128,-1,40
 91 279 91 279 91 232 c 256,41,42
 91 185 91 185 104.5 143.5 c 128,-1,43
 118 102 118 102 144.5 70.5 c 128,-1,44
 171 39 171 39 209 20.5 c 128,-1,45
 247 2 247 2 297 2 c 0,46,47
 346 2 346 2 384.5 20.5 c 128,-1,48
 423 39 423 39 449.5 71 c 128,-1,49
 476 103 476 103 489.5 144.5 c 128,-1,50
 503 186 503 186 503 233 c 0,31,32
EndSplineSet
EndChar
StartChar: R
Encoding: 82 82 51
Width: 533
Flags: W
Fore
442 0 m 1,0,1
 422 23 422 23 410.5 59 c 128,-1,2
 399 95 399 95 386 129.5 c 128,-1,3
 373 164 373 164 353 188.5 c 128,-1,4
 333 213 333 213 294 213 c 2,5,-1
 104 213 l 1,6,-1
 104 0 l 1,7,-1
 50 0 l 1,8,-1
 50 467 l 1,9,-1
 207 467 l 2,10,11
 229 467 229 467 257.5 466.5 c 128,-1,12
 286 466 286 466 315.5 463 c 128,-1,13
 345 460 345 460 373.5 452.5 c 128,-1,14
 402 445 402 445 424.5 431.5 c 128,-1,15
 447 418 447 418 460.5 396.5 c 128,-1,16
 474 375 474 375 474 344 c 0,17,18
 474 317 474 317 461 296.5 c 128,-1,19
 448 276 448 276 427.5 262 c 128,-1,20
 407 248 407 248 382.5 239 c 128,-1,21
 358 230 358 230 336 226 c 1,22,23
 370 225 370 225 391 212.5 c 128,-1,24
 412 200 412 200 425 181 c 128,-1,25
 438 162 438 162 446.5 138 c 128,-1,26
 455 114 455 114 463 89 c 128,-1,27
 471 64 471 64 482.5 41 c 128,-1,28
 494 18 494 18 513 0 c 1,29,-1
 442 0 l 1,0,1
406 345 m 0,30,31
 406 381 406 381 385.5 400.5 c 128,-1,32
 365 420 365 420 335 429.5 c 128,-1,33
 305 439 305 439 271 440.5 c 128,-1,34
 237 442 237 442 211 442 c 2,35,-1
 104 442 l 1,36,-1
 104 239 l 1,37,-1
 223 239 l 2,38,39
 252 239 252 239 284.5 241 c 128,-1,40
 317 243 317 243 344 253.5 c 128,-1,41
 371 264 371 264 388.5 285 c 128,-1,42
 406 306 406 306 406 345 c 0,30,31
EndSplineSet
EndChar
StartChar: S
Encoding: 83 83 52
Width: 484
Flags: W
Fore
459 133 m 0,0,1
 459 88 459 88 438.5 59.5 c 128,-1,2
 418 31 418 31 386 14 c 128,-1,3
 354 -3 354 -3 315 -9.5 c 128,-1,4
 276 -16 276 -16 240 -16 c 0,5,6
 205 -16 205 -16 168 -7.5 c 128,-1,7
 131 1 131 1 100.5 19.5 c 128,-1,8
 70 38 70 38 49 66.5 c 128,-1,9
 28 95 28 95 25 135 c 1,10,-1
 91 135 l 1,11,12
 93 105 93 105 105.5 81.5 c 128,-1,13
 118 58 118 58 138.5 41.5 c 128,-1,14
 159 25 159 25 185 16 c 128,-1,15
 211 7 211 7 240 7 c 0,16,17
 265 7 265 7 293.5 12.5 c 128,-1,18
 322 18 322 18 345.5 30.5 c 128,-1,19
 369 43 369 43 384.5 64 c 128,-1,20
 400 85 400 85 400 116 c 0,21,22
 400 152 400 152 373.5 172 c 128,-1,23
 347 192 347 192 306.5 204 c 128,-1,24
 266 216 266 216 219.5 224.5 c 128,-1,25
 173 233 173 233 132.5 247 c 128,-1,26
 92 261 92 261 65.5 284.5 c 128,-1,27
 39 308 39 308 39 350 c 0,28,29
 39 388 39 388 59 413 c 128,-1,30
 79 438 79 438 109.5 453 c 128,-1,31
 140 468 140 468 175.5 474 c 128,-1,32
 211 480 211 480 241 480 c 0,33,34
 270 480 270 480 304 474.5 c 128,-1,35
 338 469 338 469 368 456 c 128,-1,36
 398 443 398 443 420 420 c 128,-1,37
 442 397 442 397 448 363 c 1,38,-1
 390 363 l 1,39,40
 385 390 385 390 370 408.5 c 128,-1,41
 355 427 355 427 334 438 c 128,-1,42
 313 449 313 449 288.5 453.5 c 128,-1,43
 264 458 264 458 240 458 c 0,44,45
 218 458 218 458 193 454 c 128,-1,46
 168 450 168 450 147 439.5 c 128,-1,47
 126 429 126 429 112.5 411 c 128,-1,48
 99 393 99 393 99 365 c 0,49,50
 99 330 99 330 125.5 310.5 c 128,-1,51
 152 291 152 291 192 279.5 c 128,-1,52
 232 268 232 268 279 259.5 c 128,-1,53
 326 251 326 251 366 236.5 c 128,-1,54
 406 222 406 222 432.5 198.5 c 128,-1,55
 459 175 459 175 459 133 c 0,0,1
EndSplineSet
EndChar
StartChar: T
Encoding: 84 84 53
Width: 459
Flags: W
Fore
257 442 m 1,0,-1
 257 0 l 1,1,-1
 201 0 l 1,2,-1
 201 442 l 1,3,-1
 10 442 l 1,4,-1
 10 467 l 1,5,-1
 449 467 l 1,6,-1
 449 442 l 1,7,-1
 257 442 l 1,0,-1
EndSplineSet
EndChar
StartChar: U
Encoding: 85 85 54
Width: 573
Flags: W
Fore
523 190 m 1,0,1
 523 136 523 136 504.5 97.5 c 128,-1,2
 486 59 486 59 454 33.5 c 128,-1,3
 422 8 422 8 378.5 -4 c 128,-1,4
 335 -16 335 -16 286 -16 c 256,5,6
 237 -16 237 -16 194 -4 c 128,-1,7
 151 8 151 8 119 33.5 c 128,-1,8
 87 59 87 59 68.5 98 c 128,-1,9
 50 137 50 137 50 190 c 2,10,-1
 50 467 l 1,11,-1
 104 467 l 1,12,-1
 104 179 l 2,13,14
 104 139 104 139 118 107 c 128,-1,15
 132 75 132 75 156.5 52.5 c 128,-1,16
 181 30 181 30 214 18 c 128,-1,17
 247 6 247 6 286 6 c 256,18,19
 325 6 325 6 358.5 18 c 128,-1,20
 392 30 392 30 416.5 52.5 c 128,-1,21
 441 75 441 75 455.5 107 c 128,-1,22
 470 139 470 139 470 179 c 2,23,-1
 470 467 l 1,24,-1
 523 467 l 1,25,-1
 523 190 l 1,26,-1
 523 190 l 1,0,1
EndSplineSet
EndChar
StartChar: V
Encoding: 86 86 55
Width: 514
Flags: W
Fore
255 -13 m 1,0,-1
 245 -13 l 1,1,-1
 5 467 l 1,2,-1
 66 467 l 1,3,-1
 267 65 l 1,4,-1
 477 467 l 1,5,-1
 509 467 l 1,6,-1
 255 -13 l 1,0,-1
EndSplineSet
EndChar
StartChar: W
Encoding: 87 87 56
Width: 684
Flags: W
Fore
495 -13 m 1,0,-1
 486 -13 l 1,1,-1
 331 368 l 1,2,-1
 198 -13 l 1,3,-1
 188 -13 l 1,4,-1
 5 467 l 1,5,-1
 64 467 l 1,6,-1
 207 94 l 1,7,-1
 340 467 l 1,8,-1
 353 467 l 1,9,-1
 352 467 l 1,10,-1
 506 87 l 1,11,-1
 651 467 l 1,12,-1
 679 467 l 1,13,-1
 495 -13 l 1,0,-1
EndSplineSet
EndChar
StartChar: X
Encoding: 88 88 57
Width: 436
Flags: W
Fore
371 -1 m 1,0,-1
 213 211 l 1,1,-1
 34 -1 l 1,2,-1
 5 -1 l 1,3,-1
 200 229 l 1,4,-1
 27 467 l 1,5,-1
 88 467 l 1,6,-1
 233 269 l 1,7,-1
 401 467 l 1,8,-1
 430 467 l 1,9,-1
 247 251 l 1,10,-1
 431 -1 l 1,11,-1
 371 -1 l 1,0,-1
EndSplineSet
EndChar
StartChar: Y
Encoding: 89 89 58
Width: 481
Flags: W
Fore
262 210 m 1,0,-1
 262 0 l 1,1,-1
 206 0 l 1,2,-1
 206 200 l 1,3,-1
 5 467 l 1,4,-1
 64 467 l 1,5,-1
 247 228 l 1,6,-1
 444 467 l 1,7,-1
 476 467 l 1,8,-1
 262 210 l 1,0,-1
EndSplineSet
EndChar
StartChar: Z
Encoding: 90 90 59
Width: 429
Flags: W
Fore
91 24 m 1,0,-1
 410 24 l 1,1,-1
 402 0 l 1,2,-1
 10 0 l 1,3,-1
 340 442 l 1,4,-1
 33 442 l 1,5,-1
 41 467 l 1,6,-1
 419 467 l 1,7,-1
 91 24 l 1,0,-1
EndSplineSet
EndChar
StartChar: bracketleft
Encoding: 91 91 60
Width: 199
Flags: W
Fore
148 -132 m 1,0,1
 117 -132 117 -132 97 -121 c 128,-1,2
 77 -110 77 -110 65 -91 c 128,-1,3
 53 -72 53 -72 48.5 -47.5 c 128,-1,4
 44 -23 44 -23 44 3 c 2,5,-1
 44 347 l 2,6,7
 44 373 44 373 48.5 397.5 c 128,-1,8
 53 422 53 422 65 440.5 c 128,-1,9
 77 459 77 459 97 470 c 128,-1,10
 117 481 117 481 148 481 c 1,11,-1
 148 470 l 1,12,13
 125 467 125 467 113 458 c 128,-1,14
 101 449 101 449 95.5 435.5 c 128,-1,15
 90 422 90 422 89 404.5 c 128,-1,16
 88 387 88 387 88 368 c 2,17,-1
 88 -19 l 2,18,19
 88 -38 88 -38 89 -55.5 c 128,-1,20
 90 -73 90 -73 95.5 -86.5 c 128,-1,21
 101 -100 101 -100 113 -109 c 128,-1,22
 125 -118 125 -118 148 -121 c 1,23,-1
 148 -132 l 1,24,-1
 148 -132 l 1,0,1
EndSplineSet
EndChar
StartChar: backslash
Encoding: 92 92 61
Width: 213
Flags: W
Fore
184 -15 m 1,0,-1
 -8 481 l 1,1,-1
 32 481 l 1,2,-1
 224 -15 l 1,3,-1
 184 -15 l 1,0,-1
EndSplineSet
EndChar
StartChar: bracketright
Encoding: 93 93 62
Width: 199
Flags: W
Fore
154 3 m 1,0,1
 154 -23 154 -23 149.5 -47.5 c 128,-1,2
 145 -72 145 -72 133.5 -91 c 128,-1,3
 122 -110 122 -110 102 -121 c 128,-1,4
 82 -132 82 -132 51 -132 c 1,5,-1
 51 -121 l 1,6,7
 73 -118 73 -118 85.5 -108.5 c 128,-1,8
 98 -99 98 -99 104 -85.5 c 128,-1,9
 110 -72 110 -72 111 -54.5 c 128,-1,10
 112 -37 112 -37 112 -19 c 2,11,-1
 112 368 l 2,12,13
 112 387 112 387 111 404 c 128,-1,14
 110 421 110 421 104 434.5 c 128,-1,15
 98 448 98 448 85.5 457.5 c 128,-1,16
 73 467 73 467 51 470 c 1,17,-1
 51 481 l 1,18,19
 82 481 82 481 102 470 c 128,-1,20
 122 459 122 459 133.5 440 c 128,-1,21
 145 421 145 421 149.5 397 c 128,-1,22
 154 373 154 373 154 347 c 2,23,-1
 154 3 l 1,24,-1
 154 3 l 1,0,1
EndSplineSet
EndChar
StartChar: asciicircum
Encoding: 94 94 63
Width: 448
Flags: W
Fore
332 183 m 1,0,-1
 225 398 l 1,1,-1
 117 183 l 1,2,-1
 71 183 l 1,3,-1
 204 448 l 1,4,-1
 246 448 l 1,5,-1
 378 183 l 1,6,-1
 332 183 l 1,0,-1
EndSplineSet
EndChar
StartChar: underscore
Encoding: 95 95 64
Width: 375
Flags: W
Fore
5 -91 m 1,0,-1
 5 -55 l 1,1,-1
 370 -55 l 1,2,-1
 370 -91 l 1,3,-1
 5 -91 l 1,0,-1
EndSplineSet
EndChar
StartChar: grave
Encoding: 96 96 65
Width: 199
Flags: W
Fore
128 424 m 1,0,1
 96 445 96 445 62 465.5 c 128,-1,2
 28 486 28 486 1 513 c 1,3,-1
 -5 528 l 1,4,-1
 1 543 l 1,5,6
 8 550 8 550 16 550 c 0,7,8
 29 550 29 550 49 533 c 128,-1,9
 69 516 69 516 89 494 c 128,-1,10
 109 472 109 472 126 451.5 c 128,-1,11
 143 431 143 431 150 424 c 1,12,-1
 128 424 l 1,0,1
EndSplineSet
EndChar
StartChar: a
Encoding: 97 97 66
Width: 402
Flags: W
Fore
326 0 m 1,0,1
 321 16 321 16 318 29.5 c 128,-1,2
 315 43 315 43 314 58 c 1,3,4
 287 19 287 19 250.5 4.5 c 128,-1,5
 214 -10 214 -10 166 -10 c 0,6,7
 141 -10 141 -10 115 -4 c 128,-1,8
 89 2 89 2 68 15 c 128,-1,9
 47 28 47 28 33.5 49 c 128,-1,10
 20 70 20 70 20 99 c 0,11,12
 20 130 20 130 35.5 150.5 c 128,-1,13
 51 171 51 171 76 184 c 128,-1,14
 101 197 101 197 133 204 c 128,-1,15
 165 211 165 211 197 213.5 c 128,-1,16
 229 216 229 216 259 216 c 128,-1,17
 289 216 289 216 310 216 c 1,18,-1
 310 230 l 2,19,20
 310 282 310 282 279.5 308 c 128,-1,21
 249 334 249 334 198 334 c 0,22,23
 181 334 181 334 162.5 328.5 c 128,-1,24
 144 323 144 323 128.5 312.5 c 128,-1,25
 113 302 113 302 103 286.5 c 128,-1,26
 93 271 93 271 93 252 c 1,27,-1
 38 252 l 1,28,29
 45 282 45 282 60.5 302.5 c 128,-1,30
 76 323 76 323 97 335.5 c 128,-1,31
 118 348 118 348 144 353.5 c 128,-1,32
 170 359 170 359 198 359 c 0,33,34
 245 359 245 359 275 349 c 128,-1,35
 305 339 305 339 322 321.5 c 128,-1,36
 339 304 339 304 346 280 c 128,-1,37
 353 256 353 256 355 229 c 0,38,39
 356 201 356 201 354 171.5 c 128,-1,40
 352 142 352 142 352 112.5 c 128,-1,41
 352 83 352 83 355.5 54.5 c 128,-1,42
 359 26 359 26 372 0 c 1,43,-1
 326 0 l 1,0,1
242 191 m 2,44,45
 218 191 218 191 189.5 187.5 c 128,-1,46
 161 184 161 184 136 174 c 128,-1,47
 111 164 111 164 94.5 146 c 128,-1,48
 78 128 78 128 78 98 c 0,49,50
 78 77 78 77 87.5 61.5 c 128,-1,51
 97 46 97 46 112 35 c 128,-1,52
 127 24 127 24 146 18.5 c 128,-1,53
 165 13 165 13 184 13 c 0,54,55
 215 13 215 13 238.5 25 c 128,-1,56
 262 37 262 37 278 57 c 128,-1,57
 294 77 294 77 302 103.5 c 128,-1,58
 310 130 310 130 310 159 c 2,59,-1
 310 191 l 1,60,-1
 242 191 l 2,44,45
EndSplineSet
Substitution: 0 65534 'L025' uni0E38
Substitution: 0 65534 'L025' uni0E38
EndChar
StartChar: b
Encoding: 98 98 67
Width: 436
Flags: W
Fore
416 175 m 0,0,1
 416 137 416 137 402.5 103.5 c 128,-1,2
 389 70 389 70 365 44.5 c 128,-1,3
 341 19 341 19 308 4 c 128,-1,4
 275 -11 275 -11 236 -11 c 0,5,6
 191 -11 191 -11 152.5 7 c 128,-1,7
 114 25 114 25 91 63 c 1,8,-1
 91 0 l 1,9,-1
 45 0 l 1,10,-1
 45 484 l 1,11,-1
 91 484 l 1,12,-1
 91 277 l 1,13,14
 111 320 111 320 149.5 340 c 128,-1,15
 188 360 188 360 236 360 c 0,16,17
 277 360 277 360 310 346 c 128,-1,18
 343 332 343 332 366.5 307 c 128,-1,19
 390 282 390 282 403 248.5 c 128,-1,20
 416 215 416 215 416 175 c 0,0,1
361 173 m 256,21,22
 361 203 361 203 352 232 c 128,-1,23
 343 261 343 261 326 284.5 c 128,-1,24
 309 308 309 308 283 322 c 128,-1,25
 257 336 257 336 224 336 c 0,26,27
 193 336 193 336 168.5 321 c 128,-1,28
 144 306 144 306 126.5 282.5 c 128,-1,29
 109 259 109 259 100 230 c 128,-1,30
 91 201 91 201 91 173 c 0,31,32
 91 144 91 144 100 116 c 128,-1,33
 109 88 109 88 126.5 65 c 128,-1,34
 144 42 144 42 168.5 28 c 128,-1,35
 193 14 193 14 224 14 c 0,36,37
 257 14 257 14 282.5 27.5 c 128,-1,38
 308 41 308 41 325.5 63.5 c 128,-1,39
 343 86 343 86 352 114.5 c 128,-1,40
 361 143 361 143 361 173 c 256,21,22
EndSplineSet
Substitution: 0 65534 'L025' uni0E39
Substitution: 0 65534 'L025' uni0E39
EndChar
StartChar: c
Encoding: 99 99 68
Width: 411
Flags: W
Fore
333 252 m 1,0,1
 319 292 319 292 288 313 c 128,-1,2
 257 334 257 334 215 334 c 0,3,4
 183 334 183 334 157.5 320.5 c 128,-1,5
 132 307 132 307 114.5 285 c 128,-1,6
 97 263 97 263 87.5 235 c 128,-1,7
 78 207 78 207 78 178 c 0,8,9
 78 147 78 147 86.5 118 c 128,-1,10
 95 89 95 89 112.5 66 c 128,-1,11
 130 43 130 43 155.5 29 c 128,-1,12
 181 15 181 15 215 15 c 0,13,14
 257 15 257 15 288.5 35.5 c 128,-1,15
 320 56 320 56 334 96 c 1,16,-1
 391 96 l 1,17,18
 383 67 383 67 365 46.5 c 128,-1,19
 347 26 347 26 323.5 13.5 c 128,-1,20
 300 1 300 1 272.5 -5 c 128,-1,21
 245 -11 245 -11 219 -11 c 0,22,23
 179 -11 179 -11 143 2.5 c 128,-1,24
 107 16 107 16 79.5 40.5 c 128,-1,25
 52 65 52 65 36 99 c 128,-1,26
 20 133 20 133 20 174 c 256,27,28
 20 215 20 215 36 249 c 128,-1,29
 52 283 52 283 79.5 307.5 c 128,-1,30
 107 332 107 332 143 345.5 c 128,-1,31
 179 359 179 359 219 359 c 0,32,33
 245 359 245 359 272.5 353 c 128,-1,34
 300 347 300 347 323.5 334.5 c 128,-1,35
 347 322 347 322 365 301.5 c 128,-1,36
 383 281 383 281 391 252 c 1,37,-1
 333 252 l 1,0,1
EndSplineSet
Substitution: 0 65534 'L025' uni0E3A
Substitution: 0 65534 'L025' uni0E3A
EndChar
StartChar: d
Encoding: 100 100 69
Width: 436
Flags: W
Fore
345 0 m 1,0,-1
 345 63 l 1,1,2
 322 25 322 25 283.5 7 c 128,-1,3
 245 -11 245 -11 200 -11 c 0,4,5
 161 -11 161 -11 128 4 c 128,-1,6
 95 19 95 19 71 44.5 c 128,-1,7
 47 70 47 70 33.5 103.5 c 128,-1,8
 20 137 20 137 20 175 c 0,9,10
 20 215 20 215 33 248.5 c 128,-1,11
 46 282 46 282 69.5 307 c 128,-1,12
 93 332 93 332 126 346 c 128,-1,13
 159 360 159 360 200 360 c 0,14,15
 248 360 248 360 286.5 340 c 128,-1,16
 325 320 325 320 345 277 c 1,17,-1
 345 484 l 1,18,-1
 391 484 l 1,19,-1
 391 0 l 1,20,-1
 345 0 l 1,0,-1
345 173 m 0,21,22
 345 201 345 201 336 230.5 c 128,-1,23
 327 260 327 260 310 283 c 128,-1,24
 293 306 293 306 268 321 c 128,-1,25
 243 336 243 336 212 336 c 0,26,27
 179 336 179 336 153.5 322 c 128,-1,28
 128 308 128 308 110.5 284.5 c 128,-1,29
 93 261 93 261 84.5 232 c 128,-1,30
 76 203 76 203 76 173 c 256,31,32
 76 143 76 143 85 114.5 c 128,-1,33
 94 86 94 86 111.5 63.5 c 128,-1,34
 129 41 129 41 154 27.5 c 128,-1,35
 179 14 179 14 212 14 c 0,36,37
 243 14 243 14 268 28 c 128,-1,38
 293 42 293 42 310 64.5 c 128,-1,39
 327 87 327 87 336 115.5 c 128,-1,40
 345 144 345 144 345 173 c 0,21,22
EndSplineSet
EndChar
StartChar: e
Encoding: 101 101 70
Width: 429
Flags: W
Fore
88 217 m 1,0,1
 84 206 84 206 84.5 194 c 128,-1,2
 85 182 85 182 85 171 c 0,3,4
 85 139 85 139 94.5 110.5 c 128,-1,5
 104 82 104 82 122.5 60.5 c 128,-1,6
 141 39 141 39 168 26.5 c 128,-1,7
 195 14 195 14 229 14 c 0,8,9
 251 14 251 14 272.5 22.5 c 128,-1,10
 294 31 294 31 311 46 c 128,-1,11
 328 61 328 61 339 81 c 128,-1,12
 350 101 350 101 352 124 c 1,13,-1
 401 124 l 1,14,15
 399 91 399 91 382.5 65.5 c 128,-1,16
 366 40 366 40 341.5 23 c 128,-1,17
 317 6 317 6 287.5 -2.5 c 128,-1,18
 258 -11 258 -11 228 -11 c 0,19,20
 189 -11 189 -11 152.5 2 c 128,-1,21
 116 15 116 15 87.5 38.5 c 128,-1,22
 59 62 59 62 42 95.5 c 128,-1,23
 25 129 25 129 25 170 c 0,24,25
 25 212 25 212 40 246.5 c 128,-1,26
 55 281 55 281 81 306 c 128,-1,27
 107 331 107 331 142.5 345 c 128,-1,28
 178 359 178 359 220 359 c 0,29,30
 253 359 253 359 284.5 350.5 c 128,-1,31
 316 342 316 342 341.5 324.5 c 128,-1,32
 367 307 367 307 384 280 c 128,-1,33
 401 253 401 253 404 217 c 1,34,-1
 88 217 l 1,0,1
344 242 m 1,35,36
 330 284 330 284 295.5 309.5 c 128,-1,37
 261 335 261 335 216 335 c 0,38,39
 173 335 173 335 140.5 309 c 128,-1,40
 108 283 108 283 97 242 c 1,41,-1
 344 242 l 1,35,36
EndSplineSet
EndChar
StartChar: f
Encoding: 102 102 71
Width: 208
Flags: W
Fore
223 436 m 1,0,1
 202 445 202 445 185 445 c 0,2,3
 158 445 158 445 139 429 c 128,-1,4
 120 413 120 413 120 385 c 2,5,-1
 120 331 l 1,6,-1
 187 331 l 1,7,-1
 176 305 l 1,8,-1
 120 305 l 1,9,-1
 120 0 l 1,10,-1
 73 0 l 1,11,-1
 73 305 l 1,12,-1
 15 305 l 1,13,-1
 26 331 l 1,14,-1
 73 331 l 1,15,16
 73 361 73 361 81.5 389.5 c 128,-1,17
 90 418 90 418 107 439.5 c 128,-1,18
 124 461 124 461 149 473 c 128,-1,19
 174 485 174 485 209 484 c 2,20,-1
 223 483 l 1,21,-1
 223 436 l 1,22,-1
 223 436 l 1,0,1
EndSplineSet
EndChar
StartChar: g
Encoding: 103 103 72
Width: 430
Flags: W
Fore
405 -21 m 0,0,1
 405 -57 405 -57 381.5 -79 c 128,-1,2
 358 -101 358 -101 325 -113 c 128,-1,3
 292 -125 292 -125 256 -129 c 128,-1,4
 220 -133 220 -133 194 -133 c 0,5,6
 173 -133 173 -133 141.5 -128.5 c 128,-1,7
 110 -124 110 -124 80.5 -113 c 128,-1,8
 51 -102 51 -102 30 -83.5 c 128,-1,9
 9 -65 9 -65 9 -36 c 0,10,11
 9 -17 9 -17 20 -4 c 128,-1,12
 31 9 31 9 47 18 c 128,-1,13
 63 27 63 27 81.5 32.5 c 128,-1,14
 100 38 100 38 115 41 c 1,15,16
 100 46 100 46 87 55.5 c 128,-1,17
 74 65 74 65 74 82 c 0,18,19
 74 101 74 101 93 111 c 128,-1,20
 112 121 112 121 130 123 c 1,21,22
 113 129 113 129 96 140.5 c 128,-1,23
 79 152 79 152 65.5 167 c 128,-1,24
 52 182 52 182 43.5 199.5 c 128,-1,25
 35 217 35 217 35 235 c 0,26,27
 35 266 35 266 52 289 c 128,-1,28
 69 312 69 312 94.5 327 c 128,-1,29
 120 342 120 342 149.5 349.5 c 128,-1,30
 179 357 179 357 205 357 c 0,31,32
 221 357 221 357 236.5 355 c 128,-1,33
 252 353 252 353 267 348 c 1,34,35
 290 380 290 380 318.5 393 c 128,-1,36
 347 406 347 406 385 405 c 2,37,-1
 397 405 l 1,38,-1
 397 352 l 1,39,40
 384 356 384 356 372.5 358.5 c 128,-1,41
 361 361 361 361 350 361 c 0,42,43
 335 361 335 361 319 356 c 128,-1,44
 303 351 303 351 291 341 c 1,45,46
 307 334 307 334 322 323.5 c 128,-1,47
 337 313 337 313 349 300 c 128,-1,48
 361 287 361 287 368 270.5 c 128,-1,49
 375 254 375 254 375 235 c 0,50,51
 375 196 375 196 356.5 172.5 c 128,-1,52
 338 149 338 149 310 136.5 c 128,-1,53
 282 124 282 124 249 119.5 c 128,-1,54
 216 115 216 115 187 114 c 0,55,56
 183 114 183 114 176 113.5 c 128,-1,57
 169 113 169 113 161.5 112 c 128,-1,58
 154 111 154 111 147.5 110 c 128,-1,59
 141 109 141 109 138 108 c 0,60,61
 129 105 129 105 129 96 c 0,62,63
 129 83 129 83 171 77 c 0,64,65
 190 74 190 74 214.5 72.5 c 128,-1,66
 239 71 239 71 265 68 c 256,67,68
 291 65 291 65 316 59.5 c 128,-1,69
 341 54 341 54 361 44.5 c 128,-1,70
 381 35 381 35 393 19 c 128,-1,71
 405 3 405 3 405 -21 c 0,0,1
320 234 m 0,72,73
 320 287 320 287 288 309.5 c 128,-1,74
 256 332 256 332 206 332 c 0,75,76
 157 332 157 332 124 309.5 c 128,-1,77
 91 287 91 287 91 234 c 0,78,79
 91 208 91 208 99.5 189.5 c 128,-1,80
 108 171 108 171 123.5 159.5 c 128,-1,81
 139 148 139 148 160 142.5 c 128,-1,82
 181 137 181 137 206 137 c 0,83,84
 256 137 256 137 288 159.5 c 128,-1,85
 320 182 320 182 320 234 c 0,72,73
357 -40 m 0,86,87
 357 -16 357 -16 341 -1.5 c 128,-1,88
 325 13 325 13 302 20 c 128,-1,89
 279 27 279 27 254 29 c 128,-1,90
 229 31 229 31 210 31 c 0,91,92
 190 31 190 31 164.5 29.5 c 128,-1,93
 139 28 139 28 116 21.5 c 128,-1,94
 93 15 93 15 77.5 0.5 c 128,-1,95
 62 -14 62 -14 62 -40 c 0,96,97
 62 -63 62 -63 78.5 -76.5 c 128,-1,98
 95 -90 95 -90 118.5 -98 c 128,-1,99
 142 -106 142 -106 167.5 -108.5 c 128,-1,100
 193 -111 193 -111 210 -111 c 0,101,102
 226 -111 226 -111 251 -107.5 c 128,-1,103
 276 -104 276 -104 299.5 -96 c 128,-1,104
 323 -88 323 -88 340 -74 c 128,-1,105
 357 -60 357 -60 357 -40 c 0,86,87
EndSplineSet
EndChar
StartChar: h
Encoding: 104 104 73
Width: 419
Flags: W
Fore
326 0 m 1,0,-1
 326 242 l 2,1,2
 326 266 326 266 316.5 283 c 128,-1,3
 307 300 307 300 291.5 311.5 c 128,-1,4
 276 323 276 323 256 328.5 c 128,-1,5
 236 334 236 334 214 334 c 0,6,7
 186 334 186 334 163 322.5 c 128,-1,8
 140 311 140 311 124 292 c 128,-1,9
 108 273 108 273 99.5 248 c 128,-1,10
 91 223 91 223 91 197 c 2,11,-1
 91 0 l 1,12,-1
 45 0 l 1,13,-1
 45 458 l 1,14,-1
 91 458 l 1,15,-1
 91 284 l 1,16,17
 100 300 100 300 113 314 c 128,-1,18
 126 328 126 328 142.5 338 c 128,-1,19
 159 348 159 348 177 353.5 c 128,-1,20
 195 359 195 359 214 359 c 0,21,22
 243 359 243 359 272 352.5 c 128,-1,23
 301 346 301 346 323.5 331.5 c 128,-1,24
 346 317 346 317 360 293.5 c 128,-1,25
 374 270 374 270 374 236 c 2,26,-1
 374 0 l 1,27,-1
 326 0 l 1,0,-1
EndSplineSet
EndChar
StartChar: i
Encoding: 105 105 74
Width: 178
Flags: W
Fore
123 428 m 256,0,1
 123 414 123 414 113 404 c 128,-1,2
 103 394 103 394 89 394 c 256,3,4
 75 394 75 394 65 404 c 128,-1,5
 55 414 55 414 55 428 c 256,6,7
 55 442 55 442 65 451.5 c 128,-1,8
 75 461 75 461 89 461 c 256,9,10
 103 461 103 461 113 451.5 c 128,-1,11
 123 442 123 442 123 428 c 256,0,1
65 0 m 1,12,-1
 65 349 l 1,13,-1
 111 349 l 1,14,-1
 111 0 l 1,15,-1
 65 0 l 1,12,-1
EndSplineSet
EndChar
StartChar: j
Encoding: 106 106 75
Width: 188
Flags: W
Fore
138 426 m 256,0,1
 138 412 138 412 127.5 401.5 c 128,-1,2
 117 391 117 391 103 391 c 0,3,4
 88 391 88 391 77.5 401.5 c 128,-1,5
 67 412 67 412 67 426 c 256,6,7
 67 440 67 440 77.5 450.5 c 128,-1,8
 88 461 88 461 103 461 c 0,9,10
 117 461 117 461 127.5 450.5 c 128,-1,11
 138 440 138 440 138 426 c 256,0,1
127 43 m 2,12,13
 127 16 127 16 122 -13.5 c 128,-1,14
 117 -43 117 -43 103.5 -67.5 c 128,-1,15
 90 -92 90 -92 67 -107.5 c 128,-1,16
 44 -123 44 -123 8 -123 c 0,17,18
 -6 -123 -6 -123 -24 -119 c 128,-1,19
 -42 -115 -42 -115 -56 -105 c 1,20,-1
 -35 -69 l 1,21,22
 -25 -82 -25 -82 -14.5 -86.5 c 128,-1,23
 -4 -91 -4 -91 9 -91 c 0,24,25
 32 -91 32 -91 45.5 -79 c 128,-1,26
 59 -67 59 -67 66 -48.5 c 128,-1,27
 73 -30 73 -30 75 -8.5 c 128,-1,28
 77 13 77 13 77 32 c 2,29,-1
 77 349 l 1,30,-1
 127 349 l 1,31,-1
 127 43 l 2,12,13
EndSplineSet
EndChar
StartChar: k
Encoding: 107 107 76
Width: 392
Flags: W
Fore
329 0 m 1,0,-1
 174 217 l 1,1,-1
 101 159 l 1,2,-1
 101 0 l 1,3,-1
 55 0 l 1,4,-1
 55 484 l 1,5,-1
 101 484 l 1,6,-1
 101 191 l 1,7,-1
 296 349 l 1,8,-1
 339 349 l 1,9,-1
 209 245 l 1,10,-1
 382 0 l 1,11,-1
 329 0 l 1,0,-1
EndSplineSet
EndChar
StartChar: l
Encoding: 108 108 77
Width: 156
Flags: W
Fore
55 0 m 1,0,-1
 55 484 l 1,1,-1
 101 484 l 1,2,-1
 101 0 l 1,3,-1
 55 0 l 1,0,-1
EndSplineSet
EndChar
StartChar: m
Encoding: 109 109 78
Width: 658
Flags: W
Fore
565 0 m 1,0,-1
 565 235 l 2,1,2
 565 280 565 280 535.5 306.5 c 128,-1,3
 506 333 506 333 461 333 c 0,4,5
 428 333 428 333 407.5 319 c 128,-1,6
 387 305 387 305 375.5 283 c 128,-1,7
 364 261 364 261 360.5 233 c 128,-1,8
 357 205 357 205 357 178 c 2,9,-1
 357 0 l 1,10,-1
 309 0 l 1,11,-1
 309 192 l 2,12,13
 309 217 309 217 304.5 242 c 128,-1,14
 300 267 300 267 289 287 c 128,-1,15
 278 307 278 307 258.5 320 c 128,-1,16
 239 333 239 333 209 333 c 0,17,18
 180 333 180 333 159.5 322 c 128,-1,19
 139 311 139 311 125.5 292.5 c 128,-1,20
 112 274 112 274 104 249.5 c 128,-1,21
 96 225 96 225 92 197 c 256,22,23
 88 169 88 169 87 140.5 c 128,-1,24
 86 112 86 112 87 86 c 256,25,26
 88 60 88 60 89.5 38 c 128,-1,27
 91 16 91 16 91 0 c 1,28,-1
 45 0 l 1,29,-1
 45 348 l 1,30,-1
 91 348 l 1,31,-1
 91 283 l 1,32,33
 111 321 111 321 144 339.5 c 128,-1,34
 177 358 177 358 221 358 c 0,35,36
 268 358 268 358 299.5 335 c 128,-1,37
 331 312 331 312 345 270 c 1,38,39
 360 312 360 312 388.5 335 c 128,-1,40
 417 358 417 358 465 358 c 0,41,42
 496 358 496 358 523 350 c 128,-1,43
 550 342 550 342 570 326.5 c 128,-1,44
 590 311 590 311 601.5 286.5 c 128,-1,45
 613 262 613 262 613 229 c 2,46,-1
 613 0 l 1,47,-1
 565 0 l 1,0,-1
EndSplineSet
EndChar
StartChar: n
Encoding: 110 110 79
Width: 419
Flags: W
Fore
326 0 m 1,0,-1
 326 241 l 2,1,2
 326 265 326 265 316.5 282 c 128,-1,3
 307 299 307 299 291.5 310.5 c 128,-1,4
 276 322 276 322 256 327.5 c 128,-1,5
 236 333 236 333 214 333 c 0,6,7
 186 333 186 333 163 321.5 c 128,-1,8
 140 310 140 310 124 291 c 128,-1,9
 108 272 108 272 99.5 247.5 c 128,-1,10
 91 223 91 223 91 196 c 2,11,-1
 91 0 l 1,12,-1
 45 0 l 1,13,-1
 45 348 l 1,14,-1
 91 348 l 1,15,-1
 91 283 l 1,16,17
 108 316 108 316 142 337 c 128,-1,18
 176 358 176 358 214 358 c 0,19,20
 243 358 243 358 272 351.5 c 128,-1,21
 301 345 301 345 323.5 330.5 c 128,-1,22
 346 316 346 316 360 292.5 c 128,-1,23
 374 269 374 269 374 235 c 2,24,-1
 374 0 l 1,25,-1
 326 0 l 1,0,-1
EndSplineSet
EndChar
StartChar: o
Encoding: 111 111 80
Width: 445
Flags: W
Fore
420 173 m 0,0,1
 420 131 420 131 404.5 97 c 128,-1,2
 389 63 389 63 362 39.5 c 128,-1,3
 335 16 335 16 299 3 c 128,-1,4
 263 -10 263 -10 222 -10 c 256,5,6
 181 -10 181 -10 145 3 c 128,-1,7
 109 16 109 16 82.5 39.5 c 128,-1,8
 56 63 56 63 40.5 97 c 128,-1,9
 25 131 25 131 25 173 c 256,10,11
 25 215 25 215 40.5 249 c 128,-1,12
 56 283 56 283 83 307 c 128,-1,13
 110 331 110 331 146 344 c 128,-1,14
 182 357 182 357 223 357 c 0,15,16
 265 357 265 357 301 344.5 c 128,-1,17
 337 332 337 332 363.5 308 c 128,-1,18
 390 284 390 284 405 250 c 128,-1,19
 420 216 420 216 420 173 c 0,0,1
364 173 m 256,20,21
 364 207 364 207 356 236.5 c 128,-1,22
 348 266 348 266 330.5 287 c 128,-1,23
 313 308 313 308 286.5 320 c 128,-1,24
 260 332 260 332 223 332 c 0,25,26
 185 332 185 332 158.5 320 c 128,-1,27
 132 308 132 308 115 287 c 128,-1,28
 98 266 98 266 90 237 c 128,-1,29
 82 208 82 208 82 174 c 256,30,31
 82 140 82 140 90 111 c 128,-1,32
 98 82 98 82 115.5 60.5 c 128,-1,33
 133 39 133 39 159.5 27 c 128,-1,34
 186 15 186 15 224 15 c 0,35,36
 261 15 261 15 287.5 27 c 128,-1,37
 314 39 314 39 331 60 c 128,-1,38
 348 81 348 81 356 110 c 128,-1,39
 364 139 364 139 364 173 c 256,20,21
EndSplineSet
EndChar
StartChar: p
Encoding: 112 112 81
Width: 436
Flags: W
Fore
416 172 m 0,0,1
 416 132 416 132 403 98 c 128,-1,2
 390 64 390 64 366.5 39.5 c 128,-1,3
 343 15 343 15 310 1 c 128,-1,4
 277 -13 277 -13 236 -13 c 0,5,6
 188 -13 188 -13 149.5 7 c 128,-1,7
 111 27 111 27 91 70 c 1,8,-1
 91 -129 l 1,9,-1
 45 -129 l 1,10,-1
 45 347 l 1,11,-1
 82 347 l 1,12,-1
 90 282 l 1,13,14
 113 321 113 321 152 339 c 128,-1,15
 191 357 191 357 236 357 c 0,16,17
 275 357 275 357 308 342.5 c 128,-1,18
 341 328 341 328 365 302.5 c 128,-1,19
 389 277 389 277 402.5 243.5 c 128,-1,20
 416 210 416 210 416 172 c 0,0,1
361 174 m 256,21,22
 361 204 361 204 352 232 c 128,-1,23
 343 260 343 260 325.5 282.5 c 128,-1,24
 308 305 308 305 282.5 318.5 c 128,-1,25
 257 332 257 332 224 332 c 0,26,27
 193 332 193 332 168.5 318 c 128,-1,28
 144 304 144 304 126.5 281.5 c 128,-1,29
 109 259 109 259 100 230.5 c 128,-1,30
 91 202 91 202 91 174 c 0,31,32
 91 145 91 145 100 116 c 128,-1,33
 109 87 109 87 126 64 c 128,-1,34
 143 41 143 41 167.5 26 c 128,-1,35
 192 11 192 11 224 11 c 0,36,37
 257 11 257 11 282.5 25 c 128,-1,38
 308 39 308 39 325.5 62.5 c 128,-1,39
 343 86 343 86 352 115 c 128,-1,40
 361 144 361 144 361 174 c 256,21,22
EndSplineSet
EndChar
StartChar: q
Encoding: 113 113 82
Width: 436
Flags: W
Fore
345 -129 m 1,0,-1
 345 70 l 1,1,2
 325 27 325 27 286.5 7 c 128,-1,3
 248 -13 248 -13 200 -13 c 0,4,5
 159 -13 159 -13 126 1 c 128,-1,6
 93 15 93 15 69.5 39.5 c 128,-1,7
 46 64 46 64 33 98 c 128,-1,8
 20 132 20 132 20 172 c 0,9,10
 20 210 20 210 33.5 243.5 c 128,-1,11
 47 277 47 277 71 302.5 c 128,-1,12
 95 328 95 328 128 342.5 c 128,-1,13
 161 357 161 357 200 357 c 0,14,15
 245 357 245 357 284 339 c 128,-1,16
 323 321 323 321 346 282 c 1,17,-1
 354 347 l 1,18,-1
 391 347 l 1,19,-1
 391 -129 l 1,20,-1
 345 -129 l 1,0,-1
345 174 m 256,21,22
 345 203 345 203 336 231 c 128,-1,23
 327 259 327 259 310 281.5 c 128,-1,24
 293 304 293 304 268 318 c 128,-1,25
 243 332 243 332 212 332 c 0,26,27
 179 332 179 332 154 318.5 c 128,-1,28
 129 305 129 305 111.5 282.5 c 128,-1,29
 94 260 94 260 85 232 c 128,-1,30
 76 204 76 204 76 174 c 256,31,32
 76 144 76 144 85 115 c 128,-1,33
 94 86 94 86 111 62.5 c 128,-1,34
 128 39 128 39 153.5 25 c 128,-1,35
 179 11 179 11 212 11 c 0,36,37
 244 11 244 11 268.5 25.5 c 128,-1,38
 293 40 293 40 310 63.5 c 128,-1,39
 327 87 327 87 336 116 c 128,-1,40
 345 145 345 145 345 174 c 256,21,22
EndSplineSet
EndChar
StartChar: r
Encoding: 114 114 83
Width: 239
Flags: W
Fore
222 308 m 1,0,1
 205 314 205 314 193 314 c 0,2,3
 164 314 164 314 144.5 302.5 c 128,-1,4
 125 291 125 291 113 272 c 128,-1,5
 101 253 101 253 96 229 c 128,-1,6
 91 205 91 205 91 180 c 2,7,-1
 91 0 l 1,8,-1
 45 0 l 1,9,-1
 45 348 l 1,10,-1
 91 348 l 1,11,-1
 91 271 l 1,12,13
 97 289 97 289 110 305 c 128,-1,14
 123 321 123 321 140 333 c 128,-1,15
 157 345 157 345 176 351 c 128,-1,16
 195 357 195 357 214 356 c 2,17,-1
 229 355 l 1,18,-1
 222 308 l 1,0,1
EndSplineSet
EndChar
StartChar: s
Encoding: 115 115 84
Width: 386
Flags: W
Fore
361 100 m 0,0,1
 361 66 361 66 345 44.5 c 128,-1,2
 329 23 329 23 304 10.5 c 128,-1,3
 279 -2 279 -2 249.5 -7 c 128,-1,4
 220 -12 220 -12 193 -12 c 0,5,6
 167 -12 167 -12 140 -5.5 c 128,-1,7
 113 1 113 1 89 14.5 c 128,-1,8
 65 28 65 28 48 49 c 128,-1,9
 31 70 31 70 25 99 c 1,10,-1
 74 99 l 1,11,12
 77 78 77 78 89 62 c 128,-1,13
 101 46 101 46 117.5 35 c 128,-1,14
 134 24 134 24 153.5 18.5 c 128,-1,15
 173 13 173 13 193 13 c 0,16,17
 212 13 212 13 233 16 c 128,-1,18
 254 19 254 19 271.5 27 c 128,-1,19
 289 35 289 35 300.5 49.5 c 128,-1,20
 312 64 312 64 312 87 c 0,21,22
 312 107 312 107 301 119 c 128,-1,23
 290 131 290 131 271 139 c 0,24,25
 262 143 262 143 251 145.5 c 128,-1,26
 240 148 240 148 229 150 c 0,27,28
 217 152 217 152 204.5 154.5 c 128,-1,29
 192 157 192 157 180 159 c 0,30,31
 155 163 155 163 130.5 169 c 128,-1,32
 106 175 106 175 87 186 c 128,-1,33
 68 197 68 197 56 214.5 c 128,-1,34
 44 232 44 232 44 260 c 256,35,36
 44 288 44 288 59.5 307 c 128,-1,37
 75 326 75 326 97.5 337 c 128,-1,38
 120 348 120 348 146.5 352.5 c 128,-1,39
 173 357 173 357 196 357 c 0,40,41
 222 357 222 357 248.5 351 c 128,-1,42
 275 345 275 345 297.5 331.5 c 128,-1,43
 320 318 320 318 336.5 297.5 c 128,-1,44
 353 277 353 277 358 247 c 1,45,-1
 309 247 l 1,46,47
 301 289 301 289 268 310.5 c 128,-1,48
 235 332 235 332 195 332 c 0,49,50
 179 332 179 332 161 329.5 c 128,-1,51
 143 327 143 327 127.5 320.5 c 128,-1,52
 112 314 112 314 102 301.5 c 128,-1,53
 92 289 92 289 92 270 c 0,54,55
 92 248 92 248 103 235 c 128,-1,56
 114 222 114 222 133 214 c 0,57,58
 153 205 153 205 178 200.5 c 128,-1,59
 203 196 203 196 225 192 c 0,60,61
 250 187 250 187 274 182 c 128,-1,62
 298 177 298 177 317.5 167 c 128,-1,63
 337 157 337 157 349 141 c 128,-1,64
 361 125 361 125 361 100 c 0,0,1
EndSplineSet
EndChar
StartChar: t
Encoding: 116 116 85
Width: 219
Flags: W
Fore
217 6 m 1,0,1
 190 -6 190 -6 162 -6 c 0,2,3
 136 -6 136 -6 119 3 c 128,-1,4
 102 12 102 12 91.5 27.5 c 128,-1,5
 81 43 81 43 77 63 c 128,-1,6
 73 83 73 83 73 105 c 2,7,-1
 73 305 l 1,8,-1
 20 305 l 1,9,-1
 20 329 l 1,10,-1
 68 329 l 1,11,-1
 106 428 l 1,12,-1
 119 428 l 1,13,-1
 119 329 l 1,14,-1
 187 329 l 1,15,-1
 187 305 l 1,16,-1
 119 305 l 1,17,-1
 119 90 l 2,18,19
 119 77 119 77 120.5 65 c 128,-1,20
 122 53 122 53 127.5 43.5 c 128,-1,21
 133 34 133 34 142.5 28 c 128,-1,22
 152 22 152 22 167 22 c 0,23,24
 180 22 180 22 191.5 26 c 128,-1,25
 203 30 203 30 217 37 c 1,26,-1
 217 6 l 1,27,-1
 217 6 l 1,0,1
EndSplineSet
EndChar
StartChar: u
Encoding: 117 117 86
Width: 419
Flags: W
Fore
328 0 m 1,0,-1
 328 65 l 1,1,2
 311 33 311 33 276 11 c 128,-1,3
 241 -11 241 -11 205 -11 c 0,4,5
 176 -11 176 -11 147 -4.5 c 128,-1,6
 118 2 118 2 95.5 16.5 c 128,-1,7
 73 31 73 31 59 54.5 c 128,-1,8
 45 78 45 78 45 112 c 2,9,-1
 45 348 l 1,10,-1
 93 348 l 1,11,-1
 93 106 l 2,12,13
 93 83 93 83 102.5 65.5 c 128,-1,14
 112 48 112 48 127.5 36.5 c 128,-1,15
 143 25 143 25 163 19.5 c 128,-1,16
 183 14 183 14 205 14 c 0,17,18
 233 14 233 14 256 25.5 c 128,-1,19
 279 37 279 37 295 56.5 c 128,-1,20
 311 76 311 76 319.5 101 c 128,-1,21
 328 126 328 126 328 152 c 2,22,-1
 328 348 l 1,23,-1
 374 348 l 1,24,-1
 374 0 l 1,25,-1
 328 0 l 1,0,-1
EndSplineSet
EndChar
StartChar: v
Encoding: 118 118 87
Width: 378
Flags: W
Fore
194 -11 m 1,0,-1
 187 -11 l 1,1,-1
 3 348 l 1,2,-1
 55 348 l 1,3,-1
 203 62 l 1,4,-1
 348 348 l 1,5,-1
 375 348 l 1,6,-1
 194 -11 l 1,0,-1
EndSplineSet
EndChar
StartChar: w
Encoding: 119 119 88
Width: 586
Flags: W
Fore
420 -11 m 1,0,-1
 413 -11 l 1,1,-1
 293 268 l 1,2,-1
 175 -11 l 1,3,-1
 168 -11 l 1,4,-1
 3 348 l 1,5,-1
 53 348 l 1,6,-1
 183 61 l 1,7,-1
 299 352 l 1,8,-1
 306 352 l 1,9,-1
 430 63 l 1,10,-1
 556 348 l 1,11,-1
 583 348 l 1,12,-1
 420 -11 l 1,0,-1
EndSplineSet
EndChar
StartChar: x
Encoding: 120 120 89
Width: 355
Flags: W
Fore
298 0 m 1,0,-1
 165 156 l 1,1,-1
 33 0 l 1,2,-1
 3 0 l 1,3,-1
 150 174 l 1,4,-1
 3 348 l 1,5,-1
 57 348 l 1,6,-1
 177 205 l 1,7,-1
 298 348 l 1,8,-1
 328 348 l 1,9,-1
 192 188 l 1,10,-1
 352 0 l 1,11,-1
 298 0 l 1,0,-1
EndSplineSet
EndChar
StartChar: y
Encoding: 121 121 90
Width: 381
Flags: W
Fore
69 -132 m 0,0,1
 55 -132 55 -132 38 -128 c 128,-1,2
 21 -124 21 -124 7 -114 c 1,3,-1
 28 -78 l 1,4,5
 38 -91 38 -91 48.5 -95.5 c 128,-1,6
 59 -100 59 -100 72 -100 c 0,7,8
 89 -100 89 -100 106.5 -90 c 128,-1,9
 124 -80 124 -80 138.5 -64.5 c 128,-1,10
 153 -49 153 -49 162 -30.5 c 128,-1,11
 171 -12 171 -12 171 4 c 0,12,13
 171 15 171 15 167.5 25 c 128,-1,14
 164 35 164 35 159 46 c 2,15,-1
 3 348 l 1,16,-1
 55 348 l 1,17,-1
 205 59 l 1,18,-1
 350 348 l 1,19,-1
 378 348 l 1,20,-1
 198 -10 l 2,21,22
 186 -33 186 -33 172.5 -55 c 128,-1,23
 159 -77 159 -77 142.5 -94 c 128,-1,24
 126 -111 126 -111 108 -121.5 c 128,-1,25
 90 -132 90 -132 69 -132 c 0,0,1
EndSplineSet
EndChar
StartChar: z
Encoding: 122 122 91
Width: 355
Flags: W
Fore
85 26 m 1,0,-1
 334 26 l 1,1,-1
 323 0 l 1,2,-1
 10 0 l 1,3,-1
 271 323 l 1,4,-1
 42 323 l 1,5,-1
 50 348 l 1,6,-1
 345 348 l 1,7,-1
 85 26 l 1,0,-1
EndSplineSet
EndChar
StartChar: braceleft
Encoding: 123 123 92
Width: 253
Flags: W
Fore
205 -136 m 1,0,1
 151 -136 151 -136 128.5 -116 c 128,-1,2
 106 -96 106 -96 99.5 -65 c 128,-1,3
 93 -34 93 -34 97 3 c 128,-1,4
 101 40 101 40 101.5 74.5 c 128,-1,5
 102 109 102 109 92 135.5 c 128,-1,6
 82 162 82 162 48 173 c 1,7,8
 73 181 73 181 84.5 198.5 c 128,-1,9
 96 216 96 216 99.5 239 c 128,-1,10
 103 262 103 262 101 289.5 c 128,-1,11
 99 317 99 317 97 344 c 128,-1,12
 95 371 95 371 97 396 c 128,-1,13
 99 421 99 421 109.5 440.5 c 128,-1,14
 120 460 120 460 142.5 471.5 c 128,-1,15
 165 483 165 483 205 483 c 1,16,-1
 205 470 l 1,17,18
 174 470 174 470 163 450.5 c 128,-1,19
 152 431 152 431 150.5 401 c 128,-1,20
 149 371 149 371 152 335 c 128,-1,21
 155 299 155 299 152 266 c 128,-1,22
 149 233 149 233 135.5 207.5 c 128,-1,23
 122 182 122 182 87 174 c 1,24,25
 121 166 121 166 135 140.5 c 128,-1,26
 149 115 149 115 151.5 82 c 128,-1,27
 154 49 154 49 151 12.5 c 128,-1,28
 148 -24 148 -24 150 -54.5 c 128,-1,29
 152 -85 152 -85 163 -104.5 c 128,-1,30
 174 -124 174 -124 205 -124 c 1,31,-1
 205 -136 l 1,32,-1
 205 -136 l 1,0,1
EndSplineSet
EndChar
StartChar: bar
Encoding: 124 124 93
Width: 172
Flags: W
Fore
65 -182 m 1,0,-1
 65 547 l 1,1,-1
 107 547 l 1,2,-1
 107 -182 l 1,3,-1
 65 -182 l 1,0,-1
EndSplineSet
EndChar
StartChar: braceright
Encoding: 125 125 94
Width: 253
Flags: W
Fore
205 173 m 1,0,1
 171 162 171 162 160.5 135 c 128,-1,2
 150 108 150 108 150.5 73.5 c 128,-1,3
 151 39 151 39 155 2 c 128,-1,4
 159 -35 159 -35 153 -65.5 c 128,-1,5
 147 -96 147 -96 124 -116 c 128,-1,6
 101 -136 101 -136 48 -136 c 1,7,-1
 48 -124 l 1,8,9
 78 -124 78 -124 89 -104.5 c 128,-1,10
 100 -85 100 -85 101.5 -54.5 c 128,-1,11
 103 -24 103 -24 100.5 12 c 128,-1,12
 98 48 98 48 100.5 81 c 128,-1,13
 103 114 103 114 116.5 139.5 c 128,-1,14
 130 165 130 165 165 174 c 1,15,16
 130 182 130 182 116.5 207.5 c 128,-1,17
 103 233 103 233 100.5 266 c 128,-1,18
 98 299 98 299 100.5 335 c 128,-1,19
 103 371 103 371 101.5 401 c 128,-1,20
 100 431 100 431 89 450.5 c 128,-1,21
 78 470 78 470 48 470 c 1,22,-1
 48 483 l 1,23,24
 101 483 101 483 124 463 c 128,-1,25
 147 443 147 443 153 412 c 128,-1,26
 159 381 159 381 155 343.5 c 128,-1,27
 151 306 151 306 150.5 272 c 128,-1,28
 150 238 150 238 160.5 210.5 c 128,-1,29
 171 183 171 183 205 173 c 1,0,1
EndSplineSet
EndChar
StartChar: asciitilde
Encoding: 126 126 95
Width: 448
Flags: W
Fore
393 207 m 1,0,1
 375 182 375 182 354.5 163.5 c 128,-1,2
 334 145 334 145 301 145 c 0,3,4
 280 145 280 145 261 152.5 c 128,-1,5
 242 160 242 160 224 169.5 c 128,-1,6
 206 179 206 179 186.5 186.5 c 128,-1,7
 167 194 167 194 144 194 c 0,8,9
 118 194 118 194 105.5 177.5 c 128,-1,10
 93 161 93 161 81 142 c 1,11,-1
 55 173 l 1,12,13
 65 186 65 186 73.5 197.5 c 128,-1,14
 82 209 82 209 92.5 217.5 c 128,-1,15
 103 226 103 226 116.5 230.5 c 128,-1,16
 130 235 130 235 148 235 c 0,17,18
 168 235 168 235 188.5 227 c 128,-1,19
 209 219 209 219 229 210 c 128,-1,20
 249 201 249 201 267.5 193 c 128,-1,21
 286 185 286 185 302 185 c 0,22,23
 325 185 325 185 340 202.5 c 128,-1,24
 355 220 355 220 366 237 c 1,25,-1
 393 207 l 1,26,-1
 393 207 l 1,0,1
EndSplineSet
EndChar
StartChar: uni0E33.alt1
Encoding: 65539 -1 96
Width: 374
Flags: W
Fore
-145 530 m 256,0,1
 -145 497 -145 497 -168.5 473.5 c 128,-1,2
 -192 450 -192 450 -225 450 c 256,3,4
 -258 450 -258 450 -281.5 473.5 c 128,-1,5
 -305 497 -305 497 -305 530 c 256,6,7
 -305 563 -305 563 -281.5 586.5 c 128,-1,8
 -258 610 -258 610 -225 610 c 256,9,10
 -192 610 -192 610 -168.5 586.5 c 128,-1,11
 -145 563 -145 563 -145 530 c 256,0,1
274 0 m 1,12,-1
 274 275 l 2,13,14
 274 323 274 323 247.5 355 c 128,-1,15
 221 387 221 387 166 387 c 0,16,17
 136 387 136 387 115.5 378 c 128,-1,18
 95 369 95 369 81.5 354 c 128,-1,19
 68 339 68 339 60.5 321 c 128,-1,20
 53 303 53 303 50 285 c 1,21,-1
 -1 285 l 1,22,23
 8 338 8 338 50.5 372.5 c 128,-1,24
 93 407 93 407 166 407 c 0,25,26
 238 407 238 407 281 374 c 128,-1,27
 324 341 324 341 324 269 c 2,28,-1
 324 0 l 1,29,-1
 274 0 l 1,12,-1
-170 529 m 256,30,31
 -170 552 -170 552 -186 568 c 128,-1,32
 -202 584 -202 584 -225 584 c 256,33,34
 -248 584 -248 584 -264 568 c 128,-1,35
 -280 552 -280 552 -280 529 c 256,36,37
 -280 506 -280 506 -264 490 c 128,-1,38
 -248 474 -248 474 -225 474 c 256,39,40
 -202 474 -202 474 -186 490 c 128,-1,41
 -170 506 -170 506 -170 529 c 256,30,31
EndSplineSet
EndChar
StartChar: quotedbl
Encoding: 34 34 97
Width: 246
Flags: W
Fore
201 449 m 0,0,1
 201 401 201 401 193.5 350.5 c 128,-1,2
 186 300 186 300 181 252 c 1,3,-1
 171 252 l 1,4,5
 166 300 166 300 158.5 350.5 c 128,-1,6
 151 401 151 401 151 449 c 0,7,8
 151 461 151 461 156.5 471 c 128,-1,9
 162 481 162 481 176 481 c 256,10,11
 190 481 190 481 195.5 470.5 c 128,-1,12
 201 460 201 460 201 449 c 0,0,1
95 449 m 0,13,14
 95 401 95 401 87.5 350.5 c 128,-1,15
 80 300 80 300 75 252 c 1,16,-1
 65 252 l 1,17,18
 60 300 60 300 52.5 351 c 128,-1,19
 45 402 45 402 45 450 c 0,20,21
 45 462 45 462 51 471.5 c 128,-1,22
 57 481 57 481 71 481 c 256,23,24
 85 481 85 481 90 470.5 c 128,-1,25
 95 460 95 460 95 449 c 0,13,14
EndSplineSet
EndChar
StartChar: exclam
Encoding: 33 33 98
Width: 206
Flags: W
Fore
139 419 m 0,0,1
 135 335 135 335 125 251 c 128,-1,2
 115 167 115 167 107 84 c 1,3,-1
 99 84 l 1,4,5
 91 166 91 166 79 251 c 128,-1,6
 67 336 67 336 67 419 c 0,7,8
 67 428 67 428 68 439 c 128,-1,9
 69 450 69 450 73 459.5 c 128,-1,10
 77 469 77 469 84.5 475.5 c 128,-1,11
 92 482 92 482 104 482 c 256,12,13
 116 482 116 482 123 475.5 c 128,-1,14
 130 469 130 469 134 459.5 c 128,-1,15
 138 450 138 450 138.5 439 c 128,-1,16
 139 428 139 428 139 419 c 0,0,1
138 24 m 256,17,18
 138 10 138 10 128.5 0 c 128,-1,19
 119 -10 119 -10 105 -10 c 256,20,21
 91 -10 91 -10 81 0 c 128,-1,22
 71 10 71 10 71 24 c 256,23,24
 71 38 71 38 81 47.5 c 128,-1,25
 91 57 91 57 105 57 c 0,26,27
 118 57 118 57 128 47.5 c 128,-1,28
 138 38 138 38 138 24 c 256,17,18
EndSplineSet
EndChar
StartChar: uni0E4E.alt1
Encoding: 65540 -1 99
Width: 0
Flags: W
Fore
-90 656 m 1,0,-1
 -95 637 l 1,1,2
 -130 643 -130 643 -155 634 c 128,-1,3
 -180 625 -180 625 -180 597 c 0,4,5
 -180 582 -180 582 -163.5 569 c 128,-1,6
 -147 556 -147 556 -127 555 c 1,7,-1
 -133 540 l 1,8,9
 -151 538 -151 538 -168.5 534.5 c 128,-1,10
 -186 531 -186 531 -199 524 c 128,-1,11
 -212 517 -212 517 -220 507.5 c 128,-1,12
 -228 498 -228 498 -228 484 c 0,13,14
 -228 473 -228 473 -219.5 465 c 128,-1,15
 -211 457 -211 457 -197 452.5 c 128,-1,16
 -183 448 -183 448 -166 446 c 128,-1,17
 -149 444 -149 444 -132 446 c 1,18,-1
 -139 426 l 1,19,20
 -164 423 -164 423 -190 422.5 c 128,-1,21
 -216 422 -216 422 -237.5 428 c 128,-1,22
 -259 434 -259 434 -273 447.5 c 128,-1,23
 -287 461 -287 461 -287 484 c 0,24,25
 -287 517 -287 517 -256 532.5 c 128,-1,26
 -225 548 -225 548 -180 552 c 1,27,28
 -197 557 -197 557 -214 566.5 c 128,-1,29
 -231 576 -231 576 -231 601 c 0,30,31
 -231 622 -231 622 -219.5 635 c 128,-1,32
 -208 648 -208 648 -188.5 654 c 128,-1,33
 -169 660 -169 660 -143.5 660.5 c 128,-1,34
 -118 661 -118 661 -90 656 c 1,0,-1
EndSplineSet
EndChar
StartChar: exclamdown
Encoding: 161 161 100
Width: 187
Flags: W
Fore
89 300 m 1,0,-1
 98 300 l 1,1,-1
 129 -20 l 2,2,3
 130 -34 130 -34 129.5 -48 c 128,-1,4
 129 -62 129 -62 125 -73.5 c 128,-1,5
 121 -85 121 -85 113.5 -92.5 c 128,-1,6
 106 -100 106 -100 93 -100 c 256,7,8
 80 -100 80 -100 73 -93 c 128,-1,9
 66 -86 66 -86 62.5 -75 c 128,-1,10
 59 -64 59 -64 58.5 -49.5 c 128,-1,11
 58 -35 58 -35 59 -20 c 2,12,-1
 89 300 l 1,0,-1
59 359 m 256,13,14
 59 373 59 373 68.5 382.5 c 128,-1,15
 78 392 78 392 92 392 c 256,16,17
 106 392 106 392 116 382.5 c 128,-1,18
 126 373 126 373 126 359 c 256,19,20
 126 345 126 345 116 335 c 128,-1,21
 106 325 106 325 92 325 c 256,22,23
 78 325 78 325 68.5 335 c 128,-1,24
 59 345 59 345 59 359 c 256,13,14
EndSplineSet
EndChar
StartChar: cent
Encoding: 162 162 101
Width: 392
Flags: W
Fore
234 -12 m 1,0,-1
 209 -12 l 1,1,-1
 209 62 l 1,2,3
 176 64 176 64 146.5 77 c 128,-1,4
 117 90 117 90 95.5 111 c 128,-1,5
 74 132 74 132 61 160.5 c 128,-1,6
 48 189 48 189 48 223 c 256,7,8
 48 257 48 257 61 285.5 c 128,-1,9
 74 314 74 314 95.5 335 c 128,-1,10
 117 356 117 356 146.5 369 c 128,-1,11
 176 382 176 382 209 384 c 1,12,-1
 209 461 l 1,13,-1
 234 461 l 1,14,-1
 234 384 l 1,15,16
 283 381 283 381 321.5 358.5 c 128,-1,17
 360 336 360 336 372 292 c 1,18,-1
 323 292 l 1,19,20
 308 329 308 329 279.5 347 c 128,-1,21
 251 365 251 365 219 365 c 0,22,23
 193 365 193 365 171.5 354 c 128,-1,24
 150 343 150 343 134 324 c 128,-1,25
 118 305 118 305 109 280 c 128,-1,26
 100 255 100 255 100 227 c 0,27,28
 100 195 100 195 109 168.5 c 128,-1,29
 118 142 118 142 134 123 c 128,-1,30
 150 104 150 104 172 93.5 c 128,-1,31
 194 83 194 83 219 83 c 0,32,33
 252 83 252 83 280.5 100.5 c 128,-1,34
 309 118 309 118 323 155 c 1,35,-1
 372 155 l 1,36,37
 360 110 360 110 321.5 87.5 c 128,-1,38
 283 65 283 65 234 62 c 1,39,-1
 234 -12 l 1,0,-1
EndSplineSet
EndChar
StartChar: sterling
Encoding: 163 163 102
Width: 467
Flags: W
Fore
172 97 m 1,0,1
 158 103 158 103 142 105.5 c 128,-1,2
 126 108 126 108 108 108 c 0,3,4
 79 108 79 108 58 93 c 128,-1,5
 37 78 37 78 37 51 c 0,6,7
 37 32 37 32 52 24.5 c 128,-1,8
 67 17 67 17 89 17 c 0,9,10
 117 17 117 17 140.5 40 c 128,-1,11
 164 63 164 63 172 97 c 1,0,1
155 249 m 1,12,13
 150 264 150 264 147 280 c 128,-1,14
 144 296 144 296 144 316 c 0,15,16
 144 379 144 379 178.5 415.5 c 128,-1,17
 213 452 213 452 273 452 c 0,18,19
 319 452 319 452 354.5 435.5 c 128,-1,20
 390 419 390 419 412 377 c 1,21,-1
 360 357 l 1,22,23
 356 395 356 395 324.5 414 c 128,-1,24
 293 433 293 433 256 433 c 0,25,26
 226 433 226 433 203.5 411.5 c 128,-1,27
 181 390 181 390 181 363 c 0,28,29
 181 328 181 328 192.5 301.5 c 128,-1,30
 204 275 204 275 215 249 c 1,31,-1
 338 249 l 1,32,-1
 328 227 l 1,33,-1
 224 227 l 1,34,35
 228 213 228 213 230.5 198.5 c 128,-1,36
 233 184 233 184 233 167 c 0,37,38
 233 137 233 137 218 107 c 1,39,40
 242 98 242 98 262 86.5 c 128,-1,41
 282 75 282 75 299.5 65.5 c 128,-1,42
 317 56 317 56 333.5 49.5 c 128,-1,43
 350 43 350 43 367 43 c 0,44,45
 403 43 403 43 424 64 c 128,-1,46
 445 85 445 85 458 114 c 1,47,-1
 469 110 l 1,48,49
 463 87 463 87 452 65 c 128,-1,50
 441 43 441 43 425 26 c 128,-1,51
 409 9 409 9 388 -1.5 c 128,-1,52
 367 -12 367 -12 341 -12 c 0,53,54
 320 -12 320 -12 303.5 -3 c 128,-1,55
 287 6 287 6 271 20 c 128,-1,56
 255 34 255 34 238.5 50 c 128,-1,57
 222 66 222 66 203 80 c 1,58,59
 177 43 177 43 138.5 16.5 c 128,-1,60
 100 -10 100 -10 60 -10 c 0,61,62
 48 -10 48 -10 35.5 -6 c 128,-1,63
 23 -2 23 -2 13 5.5 c 128,-1,64
 3 13 3 13 -3 22.5 c 128,-1,65
 -9 32 -9 32 -9 44 c 0,66,67
 -9 63 -9 63 1.5 78.5 c 128,-1,68
 12 94 12 94 28.5 104 c 128,-1,69
 45 114 45 114 66 119.5 c 128,-1,70
 87 125 87 125 108 125 c 0,71,72
 127 125 127 125 144 123 c 128,-1,73
 161 121 161 121 176 118 c 1,74,75
 177 124 177 124 177 130 c 128,-1,76
 177 142 l 0,77,78
 177 168 177 168 172 188.5 c 128,-1,79
 167 209 167 209 161 227 c 1,80,-1
 92 227 l 1,81,-1
 102 249 l 1,82,-1
 155 249 l 1,12,13
EndSplineSet
EndChar
StartChar: currency
Encoding: 164 164 103
Width: 467
Flags: W
Fore
232 369 m 256,0,1
 202 369 202 369 175.5 357.5 c 128,-1,2
 149 346 149 346 129.5 326 c 128,-1,3
 110 306 110 306 98.5 280 c 128,-1,4
 87 254 87 254 87 224 c 256,5,6
 87 194 87 194 98.5 167.5 c 128,-1,7
 110 141 110 141 129.5 121.5 c 128,-1,8
 149 102 149 102 175.5 90.5 c 128,-1,9
 202 79 202 79 232 79 c 256,10,11
 262 79 262 79 288.5 90.5 c 128,-1,12
 315 102 315 102 334.5 121.5 c 128,-1,13
 354 141 354 141 365.5 167.5 c 128,-1,14
 377 194 377 194 377 224 c 256,15,16
 377 254 377 254 365.5 280 c 128,-1,17
 354 306 354 306 334.5 326 c 128,-1,18
 315 346 315 346 288.5 357.5 c 128,-1,19
 262 369 262 369 232 369 c 256,0,1
346 86 m 1,20,21
 323 66 323 66 294 55.5 c 128,-1,22
 265 45 265 45 232 45 c 0,23,24
 200 45 200 45 171.5 55.5 c 128,-1,25
 143 66 143 66 120 84 c 1,26,-1
 81 45 l 1,27,-1
 55 71 l 1,28,-1
 94 110 l 1,29,30
 75 133 75 133 64.5 162 c 128,-1,31
 54 191 54 191 54 224 c 0,32,33
 54 256 54 256 64.5 285.5 c 128,-1,34
 75 315 75 315 95 338 c 1,35,-1
 55 377 l 1,36,-1
 81 403 l 1,37,-1
 121 364 l 1,38,39
 144 382 144 382 172 392 c 128,-1,40
 200 402 200 402 232 402 c 256,41,42
 264 402 264 402 293 391.5 c 128,-1,43
 322 381 322 381 345 362 c 1,44,-1
 386 403 l 1,45,-1
 412 377 l 1,46,-1
 371 336 l 1,47,48
 390 313 390 313 400.5 284.5 c 128,-1,49
 411 256 411 256 411 224 c 256,50,51
 411 192 411 192 400.5 163.5 c 128,-1,52
 390 135 390 135 372 112 c 1,53,-1
 413 71 l 1,54,-1
 387 45 l 1,55,-1
 346 86 l 1,20,21
EndSplineSet
EndChar
StartChar: yen
Encoding: 165 165 104
Width: 458
Flags: W
Fore
252 216 m 1,0,-1
 361 216 l 1,1,-1
 361 197 l 1,2,-1
 250 197 l 1,3,-1
 250 137 l 1,4,-1
 361 137 l 1,5,-1
 361 118 l 1,6,-1
 250 118 l 1,7,-1
 250 1 l 1,8,-1
 197 1 l 1,9,-1
 197 118 l 1,10,-1
 88 118 l 1,11,-1
 88 137 l 1,12,-1
 197 137 l 1,13,-1
 197 197 l 1,14,-1
 88 197 l 1,15,-1
 88 216 l 1,16,-1
 185 216 l 1,17,-1
 5 455 l 1,18,-1
 63 455 l 1,19,-1
 234 228 l 1,20,-1
 422 455 l 1,21,-1
 453 455 l 1,22,-1
 252 216 l 1,0,-1
EndSplineSet
EndChar
StartChar: brokenbar
Encoding: 166 166 105
Width: 161
Flags: W
Fore
62 492 m 1,0,-1
 99 492 l 1,1,-1
 99 241 l 1,2,-1
 62 241 l 1,3,-1
 62 492 l 1,0,-1
62 124 m 1,4,-1
 99 124 l 1,5,-1
 99 -128 l 1,6,-1
 62 -128 l 1,7,-1
 62 124 l 1,4,-1
EndSplineSet
EndChar
StartChar: section
Encoding: 167 167 106
Width: 400
Flags: W
Fore
117 295 m 1,0,1
 100 308 100 308 90.5 327 c 128,-1,2
 81 346 81 346 81 375 c 0,3,4
 81 403 81 403 92.5 423.5 c 128,-1,5
 104 444 104 444 123 457 c 128,-1,6
 142 470 142 470 165.5 476 c 128,-1,7
 189 482 189 482 213 482 c 0,8,9
 256 482 256 482 294 462.5 c 128,-1,10
 332 443 332 443 349 388 c 1,11,-1
 302 388 l 1,12,13
 292 430 292 430 268.5 446.5 c 128,-1,14
 245 463 245 463 213 463 c 0,15,16
 175 463 175 463 151.5 445.5 c 128,-1,17
 128 428 128 428 128 388 c 0,18,19
 128 359 128 359 145 342 c 128,-1,20
 162 325 162 325 187 314 c 128,-1,21
 212 303 212 303 242 294.5 c 128,-1,22
 272 286 272 286 297 273.5 c 128,-1,23
 322 261 322 261 339 240.5 c 128,-1,24
 356 220 356 220 356 186 c 256,25,26
 356 152 356 152 341.5 131 c 128,-1,27
 327 110 327 110 307 99 c 1,28,29
 330 87 330 87 344 65 c 128,-1,30
 358 43 358 43 358 13 c 0,31,32
 358 -18 358 -18 343.5 -42 c 128,-1,33
 329 -66 329 -66 305 -82 c 128,-1,34
 281 -98 281 -98 250 -106 c 128,-1,35
 219 -114 219 -114 186 -114 c 0,36,37
 159 -114 159 -114 131.5 -106 c 128,-1,38
 104 -98 104 -98 81.5 -82 c 128,-1,39
 59 -66 59 -66 44 -43.5 c 128,-1,40
 29 -21 29 -21 26 9 c 1,41,-1
 80 9 l 1,42,43
 81 -17 81 -17 90 -35.5 c 128,-1,44
 99 -54 99 -54 113.5 -67 c 128,-1,45
 128 -80 128 -80 147 -86 c 128,-1,46
 166 -92 166 -92 186 -92 c 0,47,48
 210 -92 210 -92 231.5 -87.5 c 128,-1,49
 253 -83 253 -83 268.5 -72.5 c 128,-1,50
 284 -62 284 -62 293.5 -45 c 128,-1,51
 303 -28 303 -28 303 -2 c 0,52,53
 303 27 303 27 284 42.5 c 128,-1,54
 265 58 265 58 236 67.5 c 128,-1,55
 207 77 207 77 174 84 c 128,-1,56
 141 91 141 91 112 103 c 128,-1,57
 83 115 83 115 64 137 c 128,-1,58
 45 159 45 159 45 198 c 0,59,60
 45 235 45 235 65.5 258.5 c 128,-1,61
 86 282 86 282 117 295 c 1,0,1
308 172 m 0,62,63
 308 202 308 202 290 217.5 c 128,-1,64
 272 233 272 233 245.5 243 c 128,-1,65
 219 253 219 253 188 261 c 128,-1,66
 157 269 157 269 132 283 c 1,67,68
 114 272 114 272 106.5 254 c 128,-1,69
 99 236 99 236 99 210 c 0,70,71
 99 181 99 181 117 165.5 c 128,-1,72
 135 150 135 150 162.5 141 c 128,-1,73
 190 132 190 132 222.5 126 c 128,-1,74
 255 120 255 120 284 109 c 1,75,76
 298 118 298 118 303 133 c 128,-1,77
 308 148 308 148 308 172 c 0,62,63
EndSplineSet
EndChar
StartChar: dieresis
Encoding: 168 168 107
Width: 256
Flags: W
Fore
29 475 m 256,0,1
 29 490 29 490 40 501 c 128,-1,2
 51 512 51 512 66 512 c 256,3,4
 81 512 81 512 91.5 501 c 128,-1,5
 102 490 102 490 102 475 c 256,6,7
 102 460 102 460 91.5 449.5 c 128,-1,8
 81 439 81 439 66 439 c 256,9,10
 51 439 51 439 40 449.5 c 128,-1,11
 29 460 29 460 29 475 c 256,0,1
154 475 m 256,12,13
 154 490 154 490 164.5 501 c 128,-1,14
 175 512 175 512 191 512 c 0,15,16
 206 512 206 512 216.5 501 c 128,-1,17
 227 490 227 490 227 475 c 256,18,19
 227 460 227 460 216.5 449.5 c 128,-1,20
 206 439 206 439 191 439 c 0,21,22
 175 439 175 439 164.5 449.5 c 128,-1,23
 154 460 154 460 154 475 c 256,12,13
EndSplineSet
EndChar
StartChar: copyright
Encoding: 169 169 108
Width: 585
Flags: W
Fore
546 233 m 256,0,1
 546 181 546 181 525.5 136 c 128,-1,2
 505 91 505 91 470.5 57.5 c 128,-1,3
 436 24 436 24 390 4.5 c 128,-1,4
 344 -15 344 -15 293 -15 c 256,5,6
 242 -15 242 -15 195.5 4.5 c 128,-1,7
 149 24 149 24 114 57.5 c 128,-1,8
 79 91 79 91 58.5 136 c 128,-1,9
 38 181 38 181 38 233 c 256,10,11
 38 285 38 285 58.5 330.5 c 128,-1,12
 79 376 79 376 114 409.5 c 128,-1,13
 149 443 149 443 195.5 462.5 c 128,-1,14
 242 482 242 482 293 482 c 256,15,16
 344 482 344 482 390 462.5 c 128,-1,17
 436 443 436 443 470.5 409 c 128,-1,18
 505 375 505 375 525.5 330 c 128,-1,19
 546 285 546 285 546 233 c 256,0,1
511 234 m 256,20,21
 511 278 511 278 493.5 317.5 c 128,-1,22
 476 357 476 357 446 387 c 128,-1,23
 416 417 416 417 376.5 434.5 c 128,-1,24
 337 452 337 452 293 452 c 256,25,26
 249 452 249 452 209 434.5 c 128,-1,27
 169 417 169 417 139 387 c 128,-1,28
 109 357 109 357 91.5 317.5 c 128,-1,29
 74 278 74 278 74 234 c 256,30,31
 74 190 74 190 92 150.5 c 128,-1,32
 110 111 110 111 140 81 c 128,-1,33
 170 51 170 51 209.5 33.5 c 128,-1,34
 249 16 249 16 293 16 c 0,35,36
 336 16 336 16 375.5 33.5 c 128,-1,37
 415 51 415 51 445 81 c 128,-1,38
 475 111 475 111 493 150.5 c 128,-1,39
 511 190 511 190 511 234 c 256,20,21
433 180 m 1,40,41
 419 134 419 134 380.5 114.5 c 128,-1,42
 342 95 342 95 297 95 c 0,43,44
 267 95 267 95 239 105 c 128,-1,45
 211 115 211 115 189 133.5 c 128,-1,46
 167 152 167 152 154 178 c 128,-1,47
 141 204 141 204 141 235 c 256,48,49
 141 266 141 266 154 292 c 128,-1,50
 167 318 167 318 189 337 c 128,-1,51
 211 356 211 356 239 366 c 128,-1,52
 267 376 267 376 297 376 c 0,53,54
 342 376 342 376 380.5 356.5 c 128,-1,55
 419 337 419 337 433 291 c 1,56,-1
 386 291 l 1,57,58
 375 320 375 320 350.5 338 c 128,-1,59
 326 356 326 356 294 356 c 0,60,61
 271 356 271 356 252 345.5 c 128,-1,62
 233 335 233 335 220 318 c 128,-1,63
 207 301 207 301 200 280 c 128,-1,64
 193 259 193 259 193 238 c 0,65,66
 193 215 193 215 199.5 193 c 128,-1,67
 206 171 206 171 218.5 154 c 128,-1,68
 231 137 231 137 250 126 c 128,-1,69
 269 115 269 115 294 115 c 0,70,71
 326 115 326 115 350.5 133 c 128,-1,72
 375 151 375 151 387 180 c 1,73,-1
 433 180 l 1,40,41
EndSplineSet
EndChar
StartChar: ordfeminine
Encoding: 170 170 109
Width: 262
Flags: W
Fore
211 226 m 1,0,1
 204 243 204 243 204 257 c 1,2,3
 185 235 185 235 161 227.5 c 128,-1,4
 137 220 137 220 109 220 c 0,5,6
 90 220 90 220 72.5 224.5 c 128,-1,7
 55 229 55 229 41 238 c 128,-1,8
 27 247 27 247 18.5 260.5 c 128,-1,9
 10 274 10 274 10 292 c 0,10,11
 10 316 10 316 24.5 331 c 128,-1,12
 39 346 39 346 61.5 355 c 128,-1,13
 84 364 84 364 110.5 367 c 128,-1,14
 137 370 137 370 160 370 c 2,15,-1
 174 370 l 2,16,17
 180 370 180 370 187 370.5 c 128,-1,18
 194 371 194 371 199 371 c 1,19,-1
 199 375 l 2,20,21
 199 403 199 403 183 423.5 c 128,-1,22
 167 444 167 444 130 444 c 0,23,24
 102 444 102 444 83.5 425.5 c 128,-1,25
 65 407 65 407 65 387 c 1,26,-1
 21 387 l 1,27,28
 31 429 31 429 61 445 c 128,-1,29
 91 461 91 461 130 461 c 0,30,31
 186 461 186 461 211.5 438 c 128,-1,32
 237 415 237 415 237 374 c 2,33,-1
 237 286 l 2,34,35
 237 252 237 252 250 226 c 1,36,-1
 211 226 l 1,0,1
160 353 m 2,37,38
 140 353 140 353 121.5 349.5 c 128,-1,39
 103 346 103 346 88 338.5 c 128,-1,40
 73 331 73 331 64 319 c 128,-1,41
 55 307 55 307 55 291 c 0,42,43
 55 269 55 269 74.5 252.5 c 128,-1,44
 94 236 94 236 121 236 c 0,45,46
 155 236 155 236 177 261 c 128,-1,47
 199 286 199 286 199 330 c 2,48,-1
 199 353 l 1,49,-1
 160 353 l 2,37,38
EndSplineSet
EndChar
StartChar: guillemotleft
Encoding: 171 171 110
Width: 366
Flags: W
Fore
180 308 m 1,0,-1
 84 190 l 1,1,-1
 180 72 l 1,2,-1
 142 49 l 1,3,-1
 48 190 l 1,4,-1
 142 331 l 1,5,-1
 180 308 l 1,0,-1
299 308 m 1,6,-1
 203 190 l 1,7,-1
 299 72 l 1,8,-1
 261 49 l 1,9,-1
 168 190 l 1,10,-1
 261 331 l 1,11,-1
 299 308 l 1,6,-1
EndSplineSet
EndChar
StartChar: logicalnot
Encoding: 172 172 111
Width: 420
Flags: W
Fore
350 245 m 1,0,-1
 14 245 l 1,1,-1
 14 282 l 1,2,-1
 387 282 l 1,3,-1
 387 84 l 1,4,-1
 350 84 l 1,5,-1
 350 245 l 1,0,-1
EndSplineSet
EndChar
StartChar: registered
Encoding: 174 174 112
Width: 585
Flags: W
Fore
546 233 m 256,0,1
 546 181 546 181 525.5 136 c 128,-1,2
 505 91 505 91 470.5 57.5 c 128,-1,3
 436 24 436 24 390 4.5 c 128,-1,4
 344 -15 344 -15 293 -15 c 256,5,6
 242 -15 242 -15 195.5 4.5 c 128,-1,7
 149 24 149 24 114 57.5 c 128,-1,8
 79 91 79 91 58.5 136 c 128,-1,9
 38 181 38 181 38 233 c 256,10,11
 38 285 38 285 58.5 330.5 c 128,-1,12
 79 376 79 376 114 409.5 c 128,-1,13
 149 443 149 443 195.5 462.5 c 128,-1,14
 242 482 242 482 293 482 c 256,15,16
 344 482 344 482 390 462.5 c 128,-1,17
 436 443 436 443 470.5 409.5 c 128,-1,18
 505 376 505 376 525.5 330.5 c 128,-1,19
 546 285 546 285 546 233 c 256,0,1
511 234 m 256,20,21
 511 278 511 278 493.5 317.5 c 128,-1,22
 476 357 476 357 446 387 c 128,-1,23
 416 417 416 417 376.5 434.5 c 128,-1,24
 337 452 337 452 293 452 c 256,25,26
 249 452 249 452 209 434.5 c 128,-1,27
 169 417 169 417 139 387 c 128,-1,28
 109 357 109 357 91.5 317.5 c 128,-1,29
 74 278 74 278 74 234 c 256,30,31
 74 190 74 190 92 150.5 c 128,-1,32
 110 111 110 111 140 81 c 128,-1,33
 170 51 170 51 209.5 33.5 c 128,-1,34
 249 16 249 16 293 16 c 0,35,36
 336 16 336 16 375.5 33.5 c 128,-1,37
 415 51 415 51 445 81 c 128,-1,38
 475 111 475 111 493 150.5 c 128,-1,39
 511 190 511 190 511 234 c 256,20,21
381 101 m 1,40,41
 371 113 371 113 364 134 c 128,-1,42
 357 155 357 155 348.5 174.5 c 128,-1,43
 340 194 340 194 328 208.5 c 128,-1,44
 316 223 316 223 297 223 c 2,45,-1
 232 223 l 1,46,-1
 232 101 l 1,47,-1
 192 101 l 1,48,-1
 192 367 l 1,49,-1
 275 367 l 2,50,51
 292 367 292 367 315 365 c 128,-1,52
 338 363 338 363 358.5 356 c 128,-1,53
 379 349 379 349 393.5 335.5 c 128,-1,54
 408 322 408 322 408 298 c 0,55,56
 408 284 408 284 401.5 272.5 c 128,-1,57
 395 261 395 261 384.5 252.5 c 128,-1,58
 374 244 374 244 361.5 238 c 128,-1,59
 349 232 349 232 337 230 c 1,60,61
 361 227 361 227 372 211.5 c 128,-1,62
 383 196 383 196 390.5 176 c 128,-1,63
 398 156 398 156 405.5 135 c 128,-1,64
 413 114 413 114 428 101 c 1,65,-1
 381 101 l 1,40,41
360 298 m 0,66,67
 360 317 360 317 349.5 327.5 c 128,-1,68
 339 338 339 338 323.5 342.5 c 128,-1,69
 308 347 308 347 290 347.5 c 128,-1,70
 272 348 272 348 258 348 c 2,71,-1
 232 348 l 1,72,-1
 232 242 l 1,73,-1
 262 242 l 2,74,75
 278 242 278 242 295 243 c 128,-1,76
 312 244 312 244 326.5 249 c 128,-1,77
 341 254 341 254 350.5 265.5 c 128,-1,78
 360 277 360 277 360 298 c 0,66,67
EndSplineSet
EndChar
StartChar: macron
Encoding: 175 175 113
Width: 222
Flags: W
Fore
0 494 m 1,0,-1
 222 494 l 1,1,-1
 222 455 l 1,2,-1
 0 455 l 1,3,-1
 0 494 l 1,0,-1
EndSplineSet
EndChar
StartChar: degree
Encoding: 176 176 114
Width: 250
Flags: W
Fore
125 461 m 256,0,1
 147 461 147 461 166 452.5 c 128,-1,2
 185 444 185 444 199 429.5 c 128,-1,3
 213 415 213 415 221.5 395.5 c 128,-1,4
 230 376 230 376 230 354 c 256,5,6
 230 332 230 332 221.5 313 c 128,-1,7
 213 294 213 294 199 279.5 c 128,-1,8
 185 265 185 265 166 257 c 128,-1,9
 147 249 147 249 125 249 c 256,10,11
 103 249 103 249 83.5 257 c 128,-1,12
 64 265 64 265 50 279.5 c 128,-1,13
 36 294 36 294 27.5 313 c 128,-1,14
 19 332 19 332 19 354 c 256,15,16
 19 376 19 376 27.5 395.5 c 128,-1,17
 36 415 36 415 50 429.5 c 128,-1,18
 64 444 64 444 83.5 452.5 c 128,-1,19
 103 461 103 461 125 461 c 256,0,1
125 432 m 256,20,21
 109 432 109 432 95 426 c 128,-1,22
 81 420 81 420 70.5 409.5 c 128,-1,23
 60 399 60 399 54 384.5 c 128,-1,24
 48 370 48 370 48 354 c 0,25,26
 48 322 48 322 70.5 299.5 c 128,-1,27
 93 277 93 277 125 277 c 256,28,29
 157 277 157 277 179.5 299.5 c 128,-1,30
 202 322 202 322 202 354 c 0,31,32
 202 370 202 370 196 384.5 c 128,-1,33
 190 399 190 399 179.5 409.5 c 128,-1,34
 169 420 169 420 155 426 c 128,-1,35
 141 432 141 432 125 432 c 256,20,21
EndSplineSet
EndChar
StartChar: plusminus
Encoding: 177 177 115
Width: 432
Flags: W
Fore
234 216 m 1,0,-1
 234 83 l 1,1,-1
 198 83 l 1,2,-1
 198 216 l 1,3,-1
 30 216 l 1,4,-1
 30 247 l 1,5,-1
 198 247 l 1,6,-1
 198 379 l 1,7,-1
 234 379 l 1,8,-1
 234 247 l 1,9,-1
 402 247 l 1,10,-1
 402 216 l 1,11,-1
 234 216 l 1,0,-1
30 0 m 1,12,-1
 30 32 l 1,13,-1
 402 32 l 1,14,-1
 402 0 l 1,15,-1
 30 0 l 1,12,-1
EndSplineSet
EndChar
StartChar: twosuperior
Encoding: 178 178 116
Width: 277
Flags: W
Fore
15 184 m 1,0,1
 19 211 19 211 33.5 229 c 128,-1,2
 48 247 48 247 67.5 260 c 128,-1,3
 87 273 87 273 109 283 c 128,-1,4
 131 293 131 293 151 304 c 0,5,6
 172 316 172 316 188 331.5 c 128,-1,7
 204 347 204 347 204 373 c 0,8,9
 204 400 204 400 185 420 c 128,-1,10
 166 440 166 440 128 440 c 0,11,12
 95 440 95 440 72 422 c 128,-1,13
 49 404 49 404 48 369 c 1,14,-1
 10 369 l 1,15,16
 16 414 16 414 49.5 436.5 c 128,-1,17
 83 459 83 459 128 459 c 0,18,19
 151 459 151 459 172 453.5 c 128,-1,20
 193 448 193 448 208.5 437.5 c 128,-1,21
 224 427 224 427 233.5 410.5 c 128,-1,22
 243 394 243 394 243 373 c 0,23,24
 243 336 243 336 216.5 315 c 128,-1,25
 190 294 190 294 157 279.5 c 128,-1,26
 124 265 124 265 95 251.5 c 128,-1,27
 66 238 66 238 60 216 c 1,28,-1
 250 216 l 1,29,-1
 250 184 l 1,30,-1
 15 184 l 1,31,-1
 15 184 l 1,0,1
EndSplineSet
EndChar
StartChar: threesuperior
Encoding: 179 179 117
Width: 277
Flags: W
Fore
139 178 m 0,0,1
 94 178 94 178 61 200 c 128,-1,2
 28 222 28 222 21 267 c 1,3,-1
 60 267 l 1,4,5
 60 232 60 232 83.5 213.5 c 128,-1,6
 107 195 107 195 139 195 c 0,7,8
 173 195 173 195 200 213 c 128,-1,9
 227 231 227 231 227 262 c 0,10,11
 227 280 227 280 216 292 c 128,-1,12
 205 304 205 304 188 310 c 128,-1,13
 171 316 171 316 150 316.5 c 128,-1,14
 129 317 129 317 108 313 c 1,15,-1
 108 337 l 1,16,17
 130 333 130 333 149.5 336 c 128,-1,18
 169 339 169 339 182.5 347 c 128,-1,19
 196 355 196 355 204 366.5 c 128,-1,20
 212 378 212 378 212 392 c 0,21,22
 212 414 212 414 193.5 429.5 c 128,-1,23
 175 445 175 445 141 445 c 0,24,25
 112 445 112 445 95 427.5 c 128,-1,26
 78 410 78 410 76 381 c 1,27,-1
 37 381 l 1,28,29
 40 419 40 419 69.5 440 c 128,-1,30
 99 461 99 461 141 461 c 0,31,32
 186 461 186 461 218.5 444.5 c 128,-1,33
 251 428 251 428 251 392 c 0,34,35
 251 368 251 368 235 351.5 c 128,-1,36
 219 335 219 335 199 328 c 1,37,38
 225 323 225 323 245 306.5 c 128,-1,39
 265 290 265 290 265 261 c 0,40,41
 265 240 265 240 254.5 224 c 128,-1,42
 244 208 244 208 226 198 c 128,-1,43
 208 188 208 188 185.5 183 c 128,-1,44
 163 178 163 178 139 178 c 0,0,1
EndSplineSet
EndChar
StartChar: acute
Encoding: 180 180 118
Width: 183
Flags: W
Fore
43 425 m 1,0,-1
 153 539 l 2,1,2
 162 550 162 550 178 550 c 0,3,4
 187 550 187 550 192.5 543.5 c 128,-1,5
 198 537 198 537 198 528 c 256,6,7
 198 519 198 519 191.5 513 c 128,-1,8
 185 507 185 507 171 496 c 2,9,-1
 64 424 l 1,10,-1
 43 425 l 1,0,-1
EndSplineSet
EndChar
StartChar: mu
Encoding: 181 181 119
Width: 443
Flags: W
Fore
355 0 m 1,0,-1
 346 79 l 1,1,2
 326 34 326 34 285.5 11 c 128,-1,3
 245 -12 245 -12 197 -12 c 0,4,5
 138 -12 138 -12 100 29 c 1,6,-1
 100 -137 l 1,7,-1
 48 -137 l 1,8,-1
 48 379 l 1,9,-1
 101 379 l 1,10,-1
 101 153 l 2,11,12
 101 125 101 125 106 99.5 c 128,-1,13
 111 74 111 74 123.5 54.5 c 128,-1,14
 136 35 136 35 157 23.5 c 128,-1,15
 178 12 178 12 209 12 c 0,16,17
 242 12 242 12 267.5 24.5 c 128,-1,18
 293 37 293 37 310.5 58.5 c 128,-1,19
 328 80 328 80 337 107.5 c 128,-1,20
 346 135 346 135 346 165 c 2,21,-1
 346 379 l 1,22,-1
 395 379 l 1,23,-1
 395 0 l 1,24,-1
 355 0 l 1,0,-1
EndSplineSet
EndChar
StartChar: paragraph
Encoding: 182 182 120
Width: 366
Flags: W
Fore
287 442 m 1,0,-1
 287 -98 l 1,1,-1
 251 -98 l 1,2,-1
 251 442 l 1,3,-1
 200 442 l 1,4,-1
 200 -98 l 1,5,-1
 163 -98 l 1,6,-1
 163 171 l 1,7,8
 91 171 91 171 55 213.5 c 128,-1,9
 19 256 19 256 19 325 c 0,10,11
 19 357 19 357 30 383.5 c 128,-1,12
 41 410 41 410 60.5 428.5 c 128,-1,13
 80 447 80 447 106.5 457.5 c 128,-1,14
 133 468 133 468 165 468 c 2,15,-1
 347 468 l 1,16,-1
 347 442 l 1,17,-1
 287 442 l 1,0,-1
EndSplineSet
EndChar
StartChar: periodcentered
Encoding: 183 183 121
Width: 169
Flags: W
Fore
48 190 m 256,0,1
 48 205 48 205 58.5 216 c 128,-1,2
 69 227 69 227 84 227 c 0,3,4
 100 227 100 227 110.5 216 c 128,-1,5
 121 205 121 205 121 190 c 256,6,7
 121 175 121 175 110.5 164.5 c 128,-1,8
 100 154 100 154 84 154 c 0,9,10
 69 154 69 154 58.5 164.5 c 128,-1,11
 48 175 48 175 48 190 c 256,0,1
EndSplineSet
EndChar
StartChar: cedilla
Encoding: 184 184 122
Width: 147
Flags: W
Fore
63 0 m 1,0,-1
 82 0 l 1,1,-1
 61 -50 l 1,2,3
 71 -47 71 -47 78 -47 c 128,-1,4
 85 -47 85 -47 94 -47 c 0,5,6
 114 -47 114 -47 130.5 -61 c 128,-1,7
 147 -75 147 -75 147 -97 c 0,8,9
 147 -112 147 -112 139.5 -123.5 c 128,-1,10
 132 -135 132 -135 119.5 -142.5 c 128,-1,11
 107 -150 107 -150 92 -153.5 c 128,-1,12
 77 -157 77 -157 62 -157 c 0,13,14
 44 -157 44 -157 28.5 -155.5 c 128,-1,15
 13 -154 13 -154 1 -147 c 1,16,-1
 8 -127 l 1,17,18
 26 -136 26 -136 52 -136 c 0,19,20
 68 -136 68 -136 83 -128 c 128,-1,21
 98 -120 98 -120 98 -101 c 0,22,23
 98 -87 98 -87 86 -77.5 c 128,-1,24
 74 -68 74 -68 63 -68 c 0,25,26
 54 -68 54 -68 45 -69.5 c 128,-1,27
 36 -71 36 -71 33 -72 c 1,28,-1
 63 0 l 1,0,-1
EndSplineSet
EndChar
StartChar: onesuperior
Encoding: 185 185 123
Width: 211
Flags: W
Fore
117 406 m 1,0,-1
 50 406 l 1,1,-1
 50 423 l 1,2,3
 71 423 71 423 84 424.5 c 128,-1,4
 97 426 97 426 106 431 c 128,-1,5
 115 436 115 436 121 444 c 128,-1,6
 127 452 127 452 133 466 c 1,7,-1
 158 466 l 1,8,-1
 158 183 l 1,9,-1
 117 183 l 1,10,-1
 117 406 l 1,0,-1
EndSplineSet
EndChar
StartChar: ordmasculine
Encoding: 186 186 124
Width: 306
Flags: W
Fore
153 218 m 256,0,1
 124 218 124 218 99.5 227.5 c 128,-1,2
 75 237 75 237 57 253.5 c 128,-1,3
 39 270 39 270 29 292 c 128,-1,4
 19 314 19 314 19 339 c 256,5,6
 19 364 19 364 29.5 385.5 c 128,-1,7
 40 407 40 407 58 423.5 c 128,-1,8
 76 440 76 440 100.5 449.5 c 128,-1,9
 125 459 125 459 153 459 c 0,10,11
 180 459 180 459 204.5 449.5 c 128,-1,12
 229 440 229 440 247.5 423.5 c 128,-1,13
 266 407 266 407 276.5 385.5 c 128,-1,14
 287 364 287 364 287 339 c 256,15,16
 287 314 287 314 277 292 c 128,-1,17
 267 270 267 270 249 253.5 c 128,-1,18
 231 237 231 237 206.5 227.5 c 128,-1,19
 182 218 182 218 153 218 c 256,0,1
153 440 m 256,20,21
 115 440 115 440 90.5 413 c 128,-1,22
 66 386 66 386 66 338 c 0,23,24
 66 293 66 293 88.5 265 c 128,-1,25
 111 237 111 237 153 237 c 0,26,27
 194 237 194 237 216.5 265 c 128,-1,28
 239 293 239 293 239 338 c 0,29,30
 239 386 239 386 215 413 c 128,-1,31
 191 440 191 440 153 440 c 256,20,21
EndSplineSet
EndChar
StartChar: guillemotright
Encoding: 187 187 125
Width: 366
Flags: W
Fore
224 331 m 1,0,-1
 318 190 l 1,1,-1
 224 49 l 1,2,-1
 187 72 l 1,3,-1
 282 190 l 1,4,-1
 187 308 l 1,5,-1
 224 331 l 1,0,-1
105 331 m 1,6,-1
 199 190 l 1,7,-1
 105 49 l 1,8,-1
 67 72 l 1,9,-1
 163 190 l 1,10,-1
 67 308 l 1,11,-1
 105 331 l 1,6,-1
EndSplineSet
EndChar
StartChar: onequarter
Encoding: 188 188 126
Width: 704
Flags: W
Fore
126 -11 m 1,0,-1
 448 460 l 1,1,-1
 478 460 l 1,2,-1
 156 -11 l 1,3,-1
 126 -11 l 1,0,-1
496 65 m 1,4,-1
 496 0 l 1,5,-1
 458 0 l 1,6,-1
 458 65 l 1,7,-1
 315 65 l 1,8,-1
 306 77 l 1,9,-1
 488 276 l 1,10,-1
 496 276 l 1,11,-1
 496 87 l 1,12,-1
 560 87 l 1,13,-1
 549 65 l 1,14,-1
 496 65 l 1,4,-1
344 87 m 1,15,-1
 458 87 l 1,16,-1
 458 213 l 1,17,-1
 344 87 l 1,15,-1
126 406 m 1,18,-1
 68 406 l 1,19,-1
 68 423 l 1,20,21
 89 423 89 423 100.5 424.5 c 128,-1,22
 112 426 112 426 119.5 431 c 128,-1,23
 127 436 127 436 131.5 444 c 128,-1,24
 136 452 136 452 142 466 c 1,25,-1
 163 466 l 1,26,-1
 163 186 l 1,27,-1
 126 186 l 1,28,-1
 126 406 l 1,18,-1
EndSplineSet
Ligature: 0 0 'frac' one fraction four
Ligature: 0 0 'frac' one slash four
EndChar
StartChar: onehalf
Encoding: 189 189 127
Width: 704
Flags: W
Fore
144 -11 m 1,0,-1
 115 -11 l 1,1,-1
 440 460 l 1,2,-1
 469 460 l 1,3,-1
 144 -11 l 1,0,-1
369 0 m 1,4,5
 373 27 373 27 387 45 c 128,-1,6
 401 63 401 63 420 76 c 128,-1,7
 439 89 439 89 461.5 99 c 128,-1,8
 484 109 484 109 504 120 c 0,9,10
 525 131 525 131 541.5 147 c 128,-1,11
 558 163 558 163 558 189 c 0,12,13
 558 217 558 217 538 236 c 128,-1,14
 518 255 518 255 480 255 c 0,15,16
 448 255 448 255 424.5 237 c 128,-1,17
 401 219 401 219 401 184 c 1,18,-1
 362 184 l 1,19,20
 369 230 369 230 402 252.5 c 128,-1,21
 435 275 435 275 480 275 c 0,22,23
 503 275 503 275 524 269.5 c 128,-1,24
 545 264 545 264 561 253.5 c 128,-1,25
 577 243 577 243 586.5 226.5 c 128,-1,26
 596 210 596 210 596 189 c 0,27,28
 596 164 596 164 583.5 146.5 c 128,-1,29
 571 129 571 129 551.5 116.5 c 128,-1,30
 532 104 532 104 509.5 94.5 c 128,-1,31
 487 85 487 85 466.5 76 c 128,-1,32
 446 67 446 67 431 56.5 c 128,-1,33
 416 46 416 46 412 32 c 1,34,-1
 602 32 l 1,35,-1
 602 0 l 1,36,-1
 369 0 l 1,4,5
124 406 m 1,37,-1
 66 406 l 1,38,-1
 66 423 l 1,39,40
 87 423 87 423 98.5 424.5 c 128,-1,41
 110 426 110 426 117.5 431 c 128,-1,42
 125 436 125 436 129.5 444 c 128,-1,43
 134 452 134 452 140 466 c 1,44,-1
 161 466 l 1,45,-1
 161 186 l 1,46,-1
 124 186 l 1,47,-1
 124 406 l 1,37,-1
EndSplineSet
Ligature: 0 0 'frac' one fraction two
Ligature: 0 0 'frac' one slash two
EndChar
StartChar: threequarters
Encoding: 190 190 128
Width: 704
Flags: W
Fore
203 -11 m 1,0,-1
 528 460 l 1,1,-1
 557 460 l 1,2,-1
 232 -11 l 1,3,-1
 203 -11 l 1,0,-1
554 65 m 1,4,-1
 554 0 l 1,5,-1
 516 0 l 1,6,-1
 516 65 l 1,7,-1
 372 65 l 1,8,-1
 364 77 l 1,9,-1
 545 276 l 1,10,-1
 554 276 l 1,11,-1
 554 87 l 1,12,-1
 617 87 l 1,13,-1
 607 65 l 1,14,-1
 554 65 l 1,4,-1
401 87 m 1,15,-1
 516 87 l 1,16,-1
 516 213 l 1,17,-1
 401 87 l 1,15,-1
174 182 m 0,18,19
 129 182 129 182 95.5 204.5 c 128,-1,20
 62 227 62 227 56 272 c 1,21,-1
 95 272 l 1,22,23
 95 237 95 237 118.5 218.5 c 128,-1,24
 142 200 142 200 174 200 c 0,25,26
 209 200 209 200 235.5 218 c 128,-1,27
 262 236 262 236 262 267 c 0,28,29
 262 285 262 285 251 297 c 128,-1,30
 240 309 240 309 223 315 c 128,-1,31
 206 321 206 321 185 321.5 c 128,-1,32
 164 322 164 322 143 318 c 1,33,-1
 143 342 l 1,34,35
 188 334 188 334 217.5 349 c 128,-1,36
 247 364 247 364 247 392 c 0,37,38
 247 414 247 414 228.5 429.5 c 128,-1,39
 210 445 210 445 176 445 c 0,40,41
 147 445 147 445 129.5 427.5 c 128,-1,42
 112 410 112 410 110 381 c 1,43,-1
 72 381 l 1,44,45
 76 419 76 419 105.5 440 c 128,-1,46
 135 461 135 461 176 461 c 0,47,48
 198 461 198 461 218 457 c 128,-1,49
 238 453 238 453 253 444.5 c 128,-1,50
 268 436 268 436 276.5 423 c 128,-1,51
 285 410 285 410 285 392 c 0,52,53
 285 368 285 368 269 354 c 128,-1,54
 253 340 253 340 233 333 c 1,55,56
 259 328 259 328 279.5 311.5 c 128,-1,57
 300 295 300 295 300 266 c 0,58,59
 300 244 300 244 289 228.5 c 128,-1,60
 278 213 278 213 260.5 202.5 c 128,-1,61
 243 192 243 192 220.5 187 c 128,-1,62
 198 182 198 182 174 182 c 0,18,19
EndSplineSet
Ligature: 0 0 'frac' three fraction four
Ligature: 0 0 'frac' three slash four
EndChar
StartChar: questiondown
Encoding: 191 191 129
Width: 359
Flags: W
Fore
33 32 m 0,0,1
 33 59 33 59 45 78.5 c 128,-1,2
 57 98 57 98 75.5 114.5 c 128,-1,3
 94 131 94 131 115 147 c 128,-1,4
 136 163 136 163 154 183.5 c 128,-1,5
 172 204 172 204 183 231.5 c 128,-1,6
 194 259 194 259 193 298 c 1,7,-1
 205 298 l 1,8,9
 210 252 210 252 204.5 221 c 128,-1,10
 199 190 199 190 187.5 168 c 128,-1,11
 176 146 176 146 160.5 130.5 c 128,-1,12
 145 115 145 115 131.5 100.5 c 128,-1,13
 118 86 118 86 108.5 69.5 c 128,-1,14
 99 53 99 53 99 30 c 0,15,16
 99 -2 99 -2 106 -23 c 128,-1,17
 113 -44 113 -44 125.5 -56.5 c 128,-1,18
 138 -69 138 -69 154.5 -74 c 128,-1,19
 171 -79 171 -79 189 -79 c 0,20,21
 234 -79 234 -79 260 -47.5 c 128,-1,22
 286 -16 286 -16 286 50 c 1,23,-1
 339 50 l 1,24,25
 339 12 339 12 327 -15.5 c 128,-1,26
 315 -43 315 -43 294 -62 c 128,-1,27
 273 -81 273 -81 245.5 -90 c 128,-1,28
 218 -99 218 -99 187 -99 c 0,29,30
 159 -99 159 -99 131.5 -91.5 c 128,-1,31
 104 -84 104 -84 82 -68 c 128,-1,32
 60 -52 60 -52 46.5 -27.5 c 128,-1,33
 33 -3 33 -3 33 32 c 0,0,1
165 357 m 256,34,35
 165 371 165 371 175 381 c 128,-1,36
 185 391 185 391 199 391 c 256,37,38
 213 391 213 391 222.5 381 c 128,-1,39
 232 371 232 371 232 357 c 256,40,41
 232 343 232 343 222.5 333.5 c 128,-1,42
 213 324 213 324 199 324 c 256,43,44
 185 324 185 324 175 333.5 c 128,-1,45
 165 343 165 343 165 357 c 256,34,35
EndSplineSet
EndChar
StartChar: Aring
Encoding: 197 197 134
Width: 534
Flags: W
Fore
256 409 m 1,0,-1
 178 263 l 1,1,-1
 329 263 l 1,2,-1
 256 409 l 1,0,-1
276 567 m 256,3,4
 256 567 256 567 242 553 c 128,-1,5
 228 539 228 539 228 519 c 256,6,7
 228 499 228 499 242 485.5 c 128,-1,8
 256 472 256 472 276 472 c 256,9,10
 296 472 296 472 309.5 485.5 c 128,-1,11
 323 499 323 499 323 519 c 256,12,13
 323 539 323 539 309.5 553 c 128,-1,14
 296 567 296 567 276 567 c 256,3,4
276 591 m 0,15,16
 305 591 305 591 326 570.5 c 128,-1,17
 347 550 347 550 347 519 c 0,18,19
 347 495 347 495 332.5 476.5 c 128,-1,20
 318 458 318 458 295 451 c 1,21,-1
 529 0 l 1,22,-1
 466 0 l 1,23,-1
 340 239 l 1,24,-1
 164 239 l 1,25,-1
 37 0 l 1,26,-1
 5 0 l 1,27,-1
 253 452 l 1,28,29
 231 460 231 460 217.5 478 c 128,-1,30
 204 496 204 496 204 519 c 0,31,32
 204 550 204 550 225 570.5 c 128,-1,33
 246 591 246 591 276 591 c 0,15,16
EndSplineSet
EndChar
StartChar: AE
Encoding: 198 198 135
Width: 715
Flags: W
Fore
362 0 m 1,0,-1
 362 239 l 1,1,-1
 197 239 l 1,2,-1
 35 0 l 1,3,-1
 0 0 l 1,4,-1
 319 467 l 1,5,-1
 705 467 l 1,6,-1
 705 442 l 1,7,-1
 417 442 l 1,8,-1
 417 263 l 1,9,-1
 634 263 l 1,10,-1
 634 239 l 1,11,-1
 417 239 l 1,12,-1
 417 24 l 1,13,-1
 705 24 l 1,14,-1
 705 0 l 1,15,-1
 362 0 l 1,0,-1
362 442 m 1,16,-1
 336 442 l 1,17,-1
 214 263 l 1,18,-1
 362 263 l 1,19,-1
 362 442 l 1,16,-1
EndSplineSet
EndChar
StartChar: Eth
Encoding: 208 208 145
Width: 574
Flags: W
Fore
549 248 m 0,0,1
 549 196 549 196 534.5 151 c 128,-1,2
 520 106 520 106 484 72.5 c 128,-1,3
 448 39 448 39 388 19.5 c 128,-1,4
 328 0 328 0 237 0 c 2,5,-1
 67 0 l 1,6,-1
 67 239 l 1,7,-1
 11 239 l 1,8,-1
 11 263 l 1,9,-1
 67 263 l 1,10,-1
 67 467 l 1,11,-1
 233 467 l 2,12,13
 321 467 321 467 381.5 450 c 128,-1,14
 442 433 442 433 479 403.5 c 128,-1,15
 516 374 516 374 532.5 334 c 128,-1,16
 549 294 549 294 549 248 c 0,0,1
483 248 m 0,17,18
 483 289 483 289 471.5 324.5 c 128,-1,19
 460 360 460 360 432.5 386 c 128,-1,20
 405 412 405 412 359.5 427 c 128,-1,21
 314 442 314 442 247 442 c 2,22,-1
 121 442 l 1,23,-1
 121 263 l 1,24,-1
 256 263 l 1,25,-1
 256 239 l 1,26,-1
 121 239 l 1,27,-1
 121 24 l 1,28,-1
 247 24 l 2,29,30
 314 24 314 24 359.5 39 c 128,-1,31
 405 54 405 54 432.5 83 c 128,-1,32
 460 112 460 112 471.5 153.5 c 128,-1,33
 483 195 483 195 483 248 c 0,17,18
EndSplineSet
EndChar
StartChar: multiply
Encoding: 215 215 152
Width: 432
Flags: W
Fore
216 163 m 1,0,-1
 57 2 l 1,1,-1
 31 28 l 1,2,-1
 190 190 l 1,3,-1
 31 351 l 1,4,-1
 57 377 l 1,5,-1
 216 216 l 1,6,-1
 375 377 l 1,7,-1
 401 351 l 1,8,-1
 242 190 l 1,9,-1
 401 28 l 1,10,-1
 375 2 l 1,11,-1
 216 163 l 1,0,-1
EndSplineSet
EndChar
StartChar: Oslash
Encoding: 216 216 153
Width: 619
Flags: W
Fore
500 416 m 1,0,1
 540 381 540 381 563.5 334 c 128,-1,2
 587 287 587 287 587 233 c 0,3,4
 587 182 587 182 565.5 136.5 c 128,-1,5
 544 91 544 91 507 57 c 128,-1,6
 470 23 470 23 420 3.5 c 128,-1,7
 370 -16 370 -16 313 -16 c 0,8,9
 265 -16 265 -16 222.5 -2.5 c 128,-1,10
 180 11 180 11 145 36 c 1,11,-1
 66 -49 l 1,12,-1
 25 -49 l 1,13,-1
 122 55 l 1,14,15
 84 89 84 89 62 134.5 c 128,-1,16
 40 180 40 180 40 233 c 0,17,18
 40 285 40 285 61.5 330 c 128,-1,19
 83 375 83 375 120 409 c 128,-1,20
 157 443 157 443 207 462.5 c 128,-1,21
 257 482 257 482 313 482 c 0,22,23
 359 482 359 482 400.5 469 c 128,-1,24
 442 456 442 456 476 433 c 1,25,-1
 553 516 l 1,26,-1
 594 516 l 1,27,-1
 500 416 l 1,0,1
520 234 m 0,28,29
 520 278 520 278 506 315.5 c 128,-1,30
 492 353 492 353 468 382 c 1,31,-1
 173 66 l 1,32,33
 202 38 202 38 237.5 22.5 c 128,-1,34
 273 7 273 7 312 7 c 0,35,36
 354 7 354 7 391.5 24.5 c 128,-1,37
 429 42 429 42 457.5 73 c 128,-1,38
 486 104 486 104 503 145 c 128,-1,39
 520 186 520 186 520 234 c 0,28,29
106 234 m 0,40,41
 106 192 106 192 118.5 155 c 128,-1,42
 131 118 131 118 154 88 c 1,43,-1
 448 403 l 1,44,45
 419 429 419 429 384.5 443.5 c 128,-1,46
 350 458 350 458 312 458 c 0,47,48
 271 458 271 458 233.5 441 c 128,-1,49
 196 424 196 424 167.5 394 c 128,-1,50
 139 364 139 364 122.5 323 c 128,-1,51
 106 282 106 282 106 234 c 0,40,41
EndSplineSet
EndChar
StartChar: Thorn
Encoding: 222 222 159
Width: 457
Flags: W
Fore
429 230 m 0,0,1
 429 204 429 204 419 185 c 128,-1,2
 409 166 409 166 391.5 153 c 128,-1,3
 374 140 374 140 351.5 131.5 c 128,-1,4
 329 123 329 123 304 118 c 0,5,6
 278 113 278 113 251.5 111 c 128,-1,7
 225 109 225 109 200 109 c 0,8,9
 175 108 175 108 154 108.5 c 128,-1,10
 133 109 133 109 116 109 c 1,11,-1
 116 0 l 1,12,-1
 62 0 l 1,13,-1
 62 428 l 1,14,-1
 115 428 l 1,15,-1
 115 343 l 1,16,17
 130 343 130 343 151 343.5 c 128,-1,18
 172 344 172 344 197 344 c 0,19,20
 222 343 222 343 248.5 341.5 c 128,-1,21
 275 340 275 340 301 335 c 0,22,23
 326 330 326 330 349.5 322.5 c 128,-1,24
 373 315 373 315 390.5 302.5 c 128,-1,25
 408 290 408 290 418.5 272 c 128,-1,26
 429 254 429 254 429 230 c 0,0,1
360 230 m 0,27,28
 360 261 360 261 340 279 c 128,-1,29
 320 297 320 297 291.5 306 c 128,-1,30
 263 315 263 315 232 317 c 128,-1,31
 201 319 201 319 178 319 c 2,32,-1
 116 319 l 1,33,-1
 116 134 l 1,34,-1
 175 134 l 2,35,36
 202 134 202 134 234.5 136 c 128,-1,37
 267 138 267 138 294.5 147 c 128,-1,38
 322 156 322 156 341 175.5 c 128,-1,39
 360 195 360 195 360 230 c 0,27,28
EndSplineSet
EndChar
StartChar: uni00DF
Encoding: 223 223 160
Width: 454
Flags: W
Fore
103 0 m 1,0,-1
 50 0 l 1,1,-1
 50 347 l 2,2,3
 50 434 50 434 95 481.5 c 128,-1,4
 140 529 140 529 215 529 c 0,5,6
 246 529 246 529 276 522 c 128,-1,7
 306 515 306 515 330 500 c 128,-1,8
 354 485 354 485 368.5 460.5 c 128,-1,9
 383 436 383 436 383 401 c 0,10,11
 383 354 383 354 354 325 c 128,-1,12
 325 296 325 296 273 284 c 1,13,14
 302 284 302 284 329.5 273 c 128,-1,15
 357 262 357 262 378.5 242.5 c 128,-1,16
 400 223 400 223 413.5 196.5 c 128,-1,17
 427 170 427 170 428 139 c 0,18,19
 429 107 429 107 416 79.5 c 128,-1,20
 403 52 403 52 381.5 31.5 c 128,-1,21
 360 11 360 11 331 -0.5 c 128,-1,22
 302 -12 302 -12 270 -12 c 0,23,24
 244 -12 244 -12 212.5 -6.5 c 128,-1,25
 181 -1 181 -1 159 17 c 1,26,-1
 184 66 l 1,27,28
 188 58 188 58 197.5 48 c 128,-1,29
 207 38 207 38 219 30 c 128,-1,30
 231 22 231 22 244.5 16.5 c 128,-1,31
 258 11 258 11 272 11 c 0,32,33
 294 11 294 11 310 22.5 c 128,-1,34
 326 34 326 34 336.5 52 c 128,-1,35
 347 70 347 70 352 92.5 c 128,-1,36
 357 115 357 115 357 137 c 0,37,38
 357 162 357 162 350.5 186.5 c 128,-1,39
 344 211 344 211 331 230 c 128,-1,40
 318 249 318 249 298 260.5 c 128,-1,41
 278 272 278 272 251 272 c 0,42,43
 237 272 237 272 229.5 272 c 128,-1,44
 222 272 222 272 210 270 c 1,45,-1
 210 294 l 1,46,47
 221 291 221 291 228.5 291.5 c 128,-1,48
 236 292 236 292 249 292 c 0,49,50
 267 292 267 292 280 301 c 128,-1,51
 293 310 293 310 301.5 325 c 128,-1,52
 310 340 310 340 313.5 358.5 c 128,-1,53
 317 377 317 377 317 396 c 0,54,55
 317 456 317 456 288.5 481 c 128,-1,56
 260 506 260 506 215 506 c 0,57,58
 155 506 155 506 129 465.5 c 128,-1,59
 103 425 103 425 103 349 c 2,60,-1
 103 0 l 1,0,-1
EndSplineSet
EndChar
StartChar: ae
Encoding: 230 230 167
Width: 676
Flags: W
Fore
651 141 m 1,0,1
 636 72 636 72 592.5 30.5 c 128,-1,2
 549 -11 549 -11 477 -11 c 0,3,4
 427 -11 427 -11 380 12 c 128,-1,5
 333 35 333 35 310 82 c 1,6,7
 296 55 296 55 280.5 37 c 128,-1,8
 265 19 265 19 246 8.5 c 128,-1,9
 227 -2 227 -2 203.5 -6 c 128,-1,10
 180 -10 180 -10 149 -10 c 0,11,12
 123 -10 123 -10 99.5 -4 c 128,-1,13
 76 2 76 2 58.5 15.5 c 128,-1,14
 41 29 41 29 30.5 49 c 128,-1,15
 20 69 20 69 20 98 c 0,16,17
 20 145 20 145 50.5 169 c 128,-1,18
 81 193 81 193 124 203.5 c 128,-1,19
 167 214 167 214 213.5 215 c 128,-1,20
 260 216 260 216 292 216 c 1,21,-1
 292 230 l 2,22,23
 292 332 292 332 190 332 c 0,24,25
 173 332 173 332 156 326.5 c 128,-1,26
 139 321 139 321 125.5 311 c 128,-1,27
 112 301 112 301 103.5 286 c 128,-1,28
 95 271 95 271 95 252 c 1,29,-1
 39 252 l 1,30,31
 53 312 53 312 93 335.5 c 128,-1,32
 133 359 133 359 190 359 c 0,33,34
 210 359 210 359 231 355.5 c 128,-1,35
 252 352 252 352 271 343.5 c 128,-1,36
 290 335 290 335 305 321.5 c 128,-1,37
 320 308 320 308 328 287 c 1,38,39
 351 320 351 320 388.5 339.5 c 128,-1,40
 426 359 426 359 468 359 c 0,41,42
 543 359 543 359 585.5 325.5 c 128,-1,43
 628 292 628 292 644 217 c 1,44,-1
 352 217 l 1,45,46
 350 205 350 205 348.5 193.5 c 128,-1,47
 347 182 347 182 347 171 c 0,48,49
 347 139 347 139 355.5 110.5 c 128,-1,50
 364 82 364 82 381.5 60.5 c 128,-1,51
 399 39 399 39 424.5 26.5 c 128,-1,52
 450 14 450 14 484 14 c 0,53,54
 511 14 511 14 530 25 c 128,-1,55
 549 36 549 36 562.5 54 c 128,-1,56
 576 72 576 72 584.5 95 c 128,-1,57
 593 118 593 118 597 141 c 1,58,-1
 651 141 l 1,0,1
583 242 m 1,59,60
 570 284 570 284 541.5 308.5 c 128,-1,61
 513 333 513 333 468 333 c 0,62,63
 420 333 420 333 395.5 309 c 128,-1,64
 371 285 371 285 359 242 c 1,65,-1
 583 242 l 1,59,60
292 192 m 1,66,-1
 228 192 l 2,67,68
 203 192 203 192 176.5 188.5 c 128,-1,69
 150 185 150 185 128.5 175 c 128,-1,70
 107 165 107 165 93 146.5 c 128,-1,71
 79 128 79 128 79 98 c 0,72,73
 79 57 79 57 103.5 36 c 128,-1,74
 128 15 128 15 168 15 c 0,75,76
 200 15 200 15 223.5 26 c 128,-1,77
 247 37 247 37 262 56.5 c 128,-1,78
 277 76 277 76 284.5 102.5 c 128,-1,79
 292 129 292 129 292 159 c 2,80,-1
 292 192 l 1,66,-1
EndSplineSet
EndChar
StartChar: eth
Encoding: 240 240 177
Width: 424
Flags: W
Fore
404 172 m 0,0,1
 404 130 404 130 388.5 96.5 c 128,-1,2
 373 63 373 63 347 39.5 c 128,-1,3
 321 16 321 16 286 3.5 c 128,-1,4
 251 -9 251 -9 211 -9 c 256,5,6
 171 -9 171 -9 136 3.5 c 128,-1,7
 101 16 101 16 75 39.5 c 128,-1,8
 49 63 49 63 34 96.5 c 128,-1,9
 19 130 19 130 19 171 c 0,10,11
 19 213 19 213 34 246.5 c 128,-1,12
 49 280 49 280 75.5 303.5 c 128,-1,13
 102 327 102 327 137 339.5 c 128,-1,14
 172 352 172 352 212 352 c 0,15,16
 260 352 260 352 299 334 c 1,17,18
 279 366 279 366 255 393 c 128,-1,19
 231 420 231 420 203 442 c 1,20,-1
 81 384 l 1,21,-1
 69 410 l 1,22,-1
 176 461 l 1,23,24
 151 478 151 478 124 490.5 c 128,-1,25
 97 503 97 503 68 514 c 1,26,-1
 77 541 l 1,27,28
 147 517 147 517 208 476 c 1,29,-1
 296 519 l 1,30,-1
 309 493 l 1,31,-1
 234 457 l 1,32,33
 259 439 259 439 289 406.5 c 128,-1,34
 319 374 319 374 344.5 334.5 c 128,-1,35
 370 295 370 295 387 252 c 128,-1,36
 404 209 404 209 404 172 c 0,0,1
353 171 m 256,37,38
 353 205 353 205 345 234.5 c 128,-1,39
 337 264 337 264 319.5 285.5 c 128,-1,40
 302 307 302 307 275.5 319 c 128,-1,41
 249 331 249 331 212 331 c 256,42,43
 175 331 175 331 148.5 319 c 128,-1,44
 122 307 122 307 105 285.5 c 128,-1,45
 88 264 88 264 80 235 c 128,-1,46
 72 206 72 206 72 172 c 256,47,48
 72 138 72 138 80 108.5 c 128,-1,49
 88 79 88 79 105.5 57.5 c 128,-1,50
 123 36 123 36 149.5 24 c 128,-1,51
 176 12 176 12 213 12 c 256,52,53
 250 12 250 12 276.5 24 c 128,-1,54
 303 36 303 36 320 57.5 c 128,-1,55
 337 79 337 79 345 108 c 128,-1,56
 353 137 353 137 353 171 c 256,37,38
EndSplineSet
EndChar
StartChar: divide
Encoding: 247 247 184
Width: 429
Flags: W
Fore
400 208 m 1,0,-1
 400 171 l 1,1,-1
 29 171 l 1,2,-1
 29 208 l 1,3,-1
 400 208 l 1,0,-1
173 338 m 256,4,5
 173 355 173 355 185 366.5 c 128,-1,6
 197 378 197 378 214 378 c 256,7,8
 231 378 231 378 243 366.5 c 128,-1,9
 255 355 255 355 255 338 c 256,10,11
 255 321 255 321 243 309 c 128,-1,12
 231 297 231 297 214 297 c 256,13,14
 197 297 197 297 185 309 c 128,-1,15
 173 321 173 321 173 338 c 256,4,5
173 41 m 256,16,17
 173 58 173 58 185 70.5 c 128,-1,18
 197 83 197 83 214 83 c 256,19,20
 231 83 231 83 243 70.5 c 128,-1,21
 255 58 255 58 255 41 c 256,22,23
 255 24 255 24 243 12 c 128,-1,24
 231 0 231 0 214 0 c 256,25,26
 197 0 197 0 185 12 c 128,-1,27
 173 24 173 24 173 41 c 256,16,17
EndSplineSet
EndChar
StartChar: oslash
Encoding: 248 248 185
Width: 487
Flags: W
Fore
136 66 m 1,0,1
 159 43 159 43 187 29.5 c 128,-1,2
 215 16 215 16 247 16 c 256,3,4
 279 16 279 16 308 30 c 128,-1,5
 337 44 337 44 359.5 68 c 128,-1,6
 382 92 382 92 395 124 c 128,-1,7
 408 156 408 156 408 193 c 0,8,9
 408 255 408 255 374 300 c 1,10,-1
 136 66 l 1,0,1
358 321 m 1,11,12
 335 344 335 344 307 356.5 c 128,-1,13
 279 369 279 369 247 369 c 256,14,15
 215 369 215 369 186 355.5 c 128,-1,16
 157 342 157 342 134.5 318 c 128,-1,17
 112 294 112 294 99 262 c 128,-1,18
 86 230 86 230 86 193 c 0,19,20
 86 163 86 163 95 135.5 c 128,-1,21
 104 108 104 108 120 85 c 1,22,-1
 358 321 l 1,11,12
0 -34 m 1,23,-1
 87 53 l 1,24,25
 58 80 58 80 41 115.5 c 128,-1,26
 24 151 24 151 24 192 c 0,27,28
 24 234 24 234 41.5 270.5 c 128,-1,29
 59 307 59 307 89.5 334 c 128,-1,30
 120 361 120 361 161 376.5 c 128,-1,31
 202 392 202 392 248 392 c 0,32,33
 287 392 287 392 322.5 380 c 128,-1,34
 358 368 358 368 387 348 c 1,35,-1
 450 411 l 1,36,-1
 487 411 l 1,37,-1
 407 332 l 1,38,39
 436 306 436 306 453.5 270 c 128,-1,40
 471 234 471 234 471 192 c 0,41,42
 471 151 471 151 453.5 114.5 c 128,-1,43
 436 78 436 78 405.5 51 c 128,-1,44
 375 24 375 24 334.5 8 c 128,-1,45
 294 -8 294 -8 248 -8 c 0,46,47
 208 -8 208 -8 172.5 4 c 128,-1,48
 137 16 137 16 108 36 c 1,49,-1
 36 -34 l 1,50,-1
 0 -34 l 1,23,-1
EndSplineSet
EndChar
StartChar: thorn
Encoding: 254 254 191
Width: 466
Flags: W
Fore
441 251 m 0,0,1
 441 212 441 212 420 186.5 c 128,-1,2
 399 161 399 161 362 146 c 128,-1,3
 325 131 325 131 274.5 125.5 c 128,-1,4
 224 120 224 120 165 120 c 2,5,-1
 99 120 l 1,6,-1
 99 0 l 1,7,-1
 45 0 l 1,8,-1
 45 467 l 1,9,-1
 98 467 l 1,10,-1
 98 373 l 1,11,-1
 167 373 l 2,12,13
 301 373 301 373 371 346 c 128,-1,14
 441 319 441 319 441 251 c 0,0,1
370 252 m 0,15,16
 370 296 370 296 324 323.5 c 128,-1,17
 278 351 278 351 169 351 c 2,18,-1
 99 351 l 1,19,-1
 99 143 l 1,20,-1
 166 143 l 2,21,22
 269 143 269 143 319.5 166.5 c 128,-1,23
 370 190 370 190 370 252 c 0,15,16
EndSplineSet
EndChar
StartChar: Lslash
Encoding: 321 321 193
Width: 429
Flags: W
Fore
260 324 m 1,0,-1
 260 310 l 1,1,-1
 19 205 l 1,2,-1
 19 219 l 1,3,-1
 260 324 l 1,0,-1
75 0 m 1,4,-1
 75 467 l 1,5,-1
 130 467 l 1,6,-1
 130 24 l 1,7,-1
 420 24 l 1,8,-1
 420 0 l 1,9,-1
 75 0 l 1,4,-1
EndSplineSet
EndChar
StartChar: lslash
Encoding: 322 322 194
Width: 183
Flags: W
Fore
67 0 m 1,0,-1
 67 277 l 1,1,-1
 25 259 l 1,2,-1
 25 274 l 1,3,-1
 67 291 l 1,4,-1
 67 467 l 1,5,-1
 121 467 l 1,6,-1
 121 315 l 1,7,-1
 167 334 l 1,8,-1
 167 321 l 1,9,-1
 121 300 l 1,10,-1
 121 0 l 1,11,-1
 67 0 l 1,0,-1
EndSplineSet
EndChar
StartChar: OE
Encoding: 338 338 195
Width: 834
Flags: W
Fore
472 0 m 1,0,-1
 472 67 l 1,1,2
 437 27 437 27 386 5 c 128,-1,3
 335 -17 335 -17 276 -17 c 0,4,5
 223 -17 223 -17 176.5 1 c 128,-1,6
 130 19 130 19 95 52 c 128,-1,7
 60 85 60 85 39.5 131 c 128,-1,8
 19 177 19 177 19 232 c 256,9,10
 19 287 19 287 40 333 c 128,-1,11
 61 379 61 379 96 412 c 128,-1,12
 131 445 131 445 178 463.5 c 128,-1,13
 225 482 225 482 277 482 c 0,14,15
 336 482 336 482 386.5 460 c 128,-1,16
 437 438 437 438 472 399 c 1,17,-1
 472 467 l 1,18,-1
 825 467 l 1,19,-1
 825 442 l 1,20,-1
 526 442 l 1,21,-1
 526 263 l 1,22,-1
 753 263 l 1,23,-1
 753 239 l 1,24,-1
 526 239 l 1,25,-1
 526 24 l 1,26,-1
 825 24 l 1,27,-1
 825 0 l 1,28,-1
 472 0 l 1,0,-1
468 233 m 0,29,30
 468 279 468 279 456.5 321 c 128,-1,31
 445 363 445 363 422 394.5 c 128,-1,32
 399 426 399 426 362.5 444.5 c 128,-1,33
 326 463 326 463 277 463 c 0,34,35
 227 463 227 463 191 444.5 c 128,-1,36
 155 426 155 426 131.5 394.5 c 128,-1,37
 108 363 108 363 96.5 321 c 128,-1,38
 85 279 85 279 85 232 c 256,39,40
 85 185 85 185 96.5 143.5 c 128,-1,41
 108 102 108 102 131 70.5 c 128,-1,42
 154 39 154 39 190 20.5 c 128,-1,43
 226 2 226 2 276 2 c 256,44,45
 326 2 326 2 362 20.5 c 128,-1,46
 398 39 398 39 421.5 71 c 128,-1,47
 445 103 445 103 456.5 144.5 c 128,-1,48
 468 186 468 186 468 233 c 0,29,30
EndSplineSet
EndChar
StartChar: oe
Encoding: 339 339 196
Width: 680
Flags: W
Fore
372 217 m 1,0,1
 368 206 368 206 368.5 194 c 128,-1,2
 369 182 369 182 369 171 c 0,3,4
 369 142 369 142 377 113.5 c 128,-1,5
 385 85 385 85 401 63 c 128,-1,6
 417 41 417 41 441.5 27.5 c 128,-1,7
 466 14 466 14 498 14 c 0,8,9
 520 14 520 14 539.5 23 c 128,-1,10
 559 32 559 32 574 47 c 128,-1,11
 589 62 589 62 598 82 c 128,-1,12
 607 102 607 102 609 124 c 1,13,-1
 654 124 l 1,14,15
 653 93 653 93 639 68 c 128,-1,16
 625 43 625 43 603.5 25.5 c 128,-1,17
 582 8 582 8 554.5 -1.5 c 128,-1,18
 527 -11 527 -11 498 -11 c 0,19,20
 450 -11 450 -11 410 10.5 c 128,-1,21
 370 32 370 32 344 73 c 1,22,23
 320 31 320 31 279.5 10.5 c 128,-1,24
 239 -10 239 -10 191 -10 c 0,25,26
 151 -10 151 -10 118 4 c 128,-1,27
 85 18 85 18 62 43 c 128,-1,28
 39 68 39 68 26 101 c 128,-1,29
 13 134 13 134 13 173 c 256,30,31
 13 212 13 212 25.5 246 c 128,-1,32
 38 280 38 280 61.5 304.5 c 128,-1,33
 85 329 85 329 117.5 343 c 128,-1,34
 150 357 150 357 191 357 c 0,35,36
 238 357 238 357 278 336.5 c 128,-1,37
 318 316 318 316 343 277 c 1,38,39
 366 316 366 316 405 337.5 c 128,-1,40
 444 359 444 359 490 359 c 0,41,42
 523 359 523 359 552 349.5 c 128,-1,43
 581 340 581 340 603 322 c 128,-1,44
 625 304 625 304 639.5 277.5 c 128,-1,45
 654 251 654 251 657 217 c 1,46,-1
 372 217 l 1,0,1
602 242 m 1,47,48
 591 282 591 282 560.5 308.5 c 128,-1,49
 530 335 530 335 487 335 c 0,50,51
 445 335 445 335 417 307.5 c 128,-1,52
 389 280 389 280 380 242 c 1,53,-1
 602 242 l 1,47,48
319 173 m 256,54,55
 319 204 319 204 312.5 233 c 128,-1,56
 306 262 306 262 291 284 c 128,-1,57
 276 306 276 306 251.5 319 c 128,-1,58
 227 332 227 332 191 332 c 256,59,60
 155 332 155 332 131 319 c 128,-1,61
 107 306 107 306 92.5 284 c 128,-1,62
 78 262 78 262 71.5 233.5 c 128,-1,63
 65 205 65 205 65 174 c 256,64,65
 65 143 65 143 71.5 114.5 c 128,-1,66
 78 86 78 86 93 64 c 128,-1,67
 108 42 108 42 132.5 28.5 c 128,-1,68
 157 15 157 15 192 15 c 0,69,70
 228 15 228 15 252 28 c 128,-1,71
 276 41 276 41 291 63 c 128,-1,72
 306 85 306 85 312.5 113.5 c 128,-1,73
 319 142 319 142 319 173 c 256,54,55
EndSplineSet
EndChar
StartChar: florin
Encoding: 402 402 202
Width: 467
Flags: W
Fore
228 323 m 1,0,-1
 229 340 l 2,1,2
 233 375 233 375 246 406.5 c 128,-1,3
 259 438 259 438 279.5 462 c 128,-1,4
 300 486 300 486 328.5 500.5 c 128,-1,5
 357 515 357 515 394 515 c 0,6,7
 400 515 400 515 409 511 c 128,-1,8
 418 507 418 507 426.5 501.5 c 128,-1,9
 435 496 435 496 442.5 489 c 128,-1,10
 450 482 450 482 454 476 c 1,11,-1
 403 453 l 1,12,13
 399 465 399 465 385 477.5 c 128,-1,14
 371 490 371 490 362 490 c 0,15,16
 344 490 344 490 331 481.5 c 128,-1,17
 318 473 318 473 309 458.5 c 128,-1,18
 300 444 300 444 295 426.5 c 128,-1,19
 290 409 290 409 288 391 c 2,20,-1
 279 323 l 1,21,-1
 348 323 l 1,22,-1
 344 305 l 1,23,-1
 276 305 l 1,24,-1
 241 18 l 2,25,26
 237 -13 237 -13 224 -42.5 c 128,-1,27
 211 -72 211 -72 188.5 -94.5 c 128,-1,28
 166 -117 166 -117 134.5 -131 c 128,-1,29
 103 -145 103 -145 62 -145 c 0,30,31
 49 -145 49 -145 34 -134 c 128,-1,32
 19 -123 19 -123 12 -106 c 1,33,-1
 61 -95 l 1,34,35
 69 -104 69 -104 80.5 -113.5 c 128,-1,36
 92 -123 92 -123 112 -123 c 0,37,38
 138 -123 138 -123 159 -93 c 128,-1,39
 180 -63 180 -63 186 -13 c 2,40,-1
 226 305 l 1,41,-1
 160 305 l 1,42,-1
 165 323 l 1,43,-1
 228 323 l 1,0,-1
EndSplineSet
EndChar
StartChar: circumflex
Encoding: 710 710 203
Width: 238
Flags: W
Fore
208 443 m 1,0,-1
 119 522 l 1,1,-1
 31 443 l 1,2,-1
 10 443 l 1,3,-1
 98 564 l 1,4,-1
 141 564 l 1,5,-1
 228 443 l 1,6,-1
 208 443 l 1,0,-1
EndSplineSet
EndChar
StartChar: caron
Encoding: 711 711 204
Width: 224
Flags: W
Fore
132 419 m 1,0,-1
 89 419 l 1,1,-1
 1 540 l 1,2,-1
 22 540 l 1,3,-1
 110 461 l 1,4,-1
 200 540 l 1,5,-1
 220 540 l 1,6,-1
 132 419 l 1,0,-1
EndSplineSet
EndChar
StartChar: breve
Encoding: 728 728 205
Width: 202
Flags: W
Fore
202 533 m 1,0,1
 200 485 200 485 173.5 451.5 c 128,-1,2
 147 418 147 418 100 418 c 0,3,4
 52 418 52 418 26 451.5 c 128,-1,5
 0 485 0 485 -2 533 c 1,6,-1
 14 533 l 1,7,8
 21 501 21 501 39.5 480 c 128,-1,9
 58 459 58 459 100 459 c 256,10,11
 142 459 142 459 160 480 c 128,-1,12
 178 501 178 501 184 533 c 1,13,-1
 202 533 l 1,0,1
EndSplineSet
EndChar
StartChar: dotaccent
Encoding: 729 729 206
Width: 183
Flags: W
Fore
55 454 m 1,0,1
 55 469 55 469 65.5 480 c 128,-1,2
 76 491 76 491 91 491 c 256,3,4
 106 491 106 491 117 480 c 128,-1,5
 128 469 128 469 128 454 c 0,6,7
 128 440 128 440 117 429.5 c 128,-1,8
 106 419 106 419 91 419 c 256,9,10
 76 419 76 419 66 429.5 c 128,-1,11
 56 440 56 440 56 454 c 1,12,-1
 55 454 l 1,0,1
EndSplineSet
EndChar
StartChar: ring
Encoding: 730 730 207
Width: 183
Flags: W
Fore
92 564 m 0,0,1
 122 564 122 564 142.5 543 c 128,-1,2
 163 522 163 522 163 492 c 256,3,4
 163 462 163 462 142.5 441 c 128,-1,5
 122 420 122 420 92 420 c 0,6,7
 63 420 63 420 41.5 441 c 128,-1,8
 20 462 20 462 20 492 c 256,9,10
 20 522 20 522 41.5 543 c 128,-1,11
 63 564 63 564 92 564 c 0,0,1
92 540 m 256,12,13
 72 540 72 540 58 526 c 128,-1,14
 44 512 44 512 44 492 c 256,15,16
 44 472 44 472 58 458 c 128,-1,17
 72 444 72 444 92 444 c 256,18,19
 112 444 112 444 125.5 458 c 128,-1,20
 139 472 139 472 139 492 c 256,21,22
 139 512 139 512 125.5 526 c 128,-1,23
 112 540 112 540 92 540 c 256,12,13
EndSplineSet
EndChar
StartChar: ogonek
Encoding: 731 731 208
Width: 183
Flags: W
Fore
160 7 m 1,0,1
 141 0 141 0 121.5 -9 c 128,-1,2
 102 -18 102 -18 86.5 -30 c 128,-1,3
 71 -42 71 -42 61 -57 c 128,-1,4
 51 -72 51 -72 51 -90 c 0,5,6
 51 -107 51 -107 60 -119 c 128,-1,7
 69 -131 69 -131 92 -131 c 0,8,9
 101 -131 101 -131 111 -127.5 c 128,-1,10
 121 -124 121 -124 131 -119.5 c 128,-1,11
 141 -115 141 -115 149.5 -109.5 c 128,-1,12
 158 -104 158 -104 164 -100 c 1,13,-1
 172 -115 l 1,14,15
 155 -128 155 -128 126.5 -142 c 128,-1,16
 98 -156 98 -156 65 -156 c 0,17,18
 36 -156 36 -156 19 -139 c 128,-1,19
 2 -122 2 -122 2 -96 c 0,20,21
 2 -74 2 -74 16 -57 c 128,-1,22
 30 -40 30 -40 52 -27.5 c 128,-1,23
 74 -15 74 -15 102 -6 c 128,-1,24
 130 3 130 3 158 10 c 1,25,-1
 160 7 l 1,0,1
EndSplineSet
EndChar
StartChar: tilde
Encoding: 732 732 209
Width: 235
Flags: W
Fore
0 444 m 1,0,1
 4 464 4 464 14 480 c 0,2,3
 22 494 22 494 36 505 c 128,-1,4
 50 516 50 516 73 516 c 0,5,6
 89 516 89 516 103 510.5 c 128,-1,7
 117 505 117 505 129.5 498.5 c 128,-1,8
 142 492 142 492 153.5 486.5 c 128,-1,9
 165 481 165 481 176 481 c 0,10,11
 188 481 188 481 196 487 c 128,-1,12
 204 493 204 493 209 501 c 0,13,14
 215 510 215 510 219 521 c 1,15,-1
 235 521 l 1,16,17
 231 499 231 499 222 482 c 0,18,19
 214 468 214 468 199.5 456 c 128,-1,20
 185 444 185 444 160 444 c 0,21,22
 143 444 143 444 130 449.5 c 128,-1,23
 117 455 117 455 106 462 c 128,-1,24
 95 469 95 469 84 474.5 c 128,-1,25
 73 480 73 480 60 480 c 0,26,27
 48 480 48 480 39.5 474.5 c 128,-1,28
 31 469 31 469 26 462 c 0,29,30
 20 454 20 454 17 444 c 1,31,-1
 0 444 l 1,0,1
EndSplineSet
EndChar
StartChar: hungarumlaut
Encoding: 733 733 210
Width: 183
Flags: W
Fore
-20 425 m 1,0,-1
 65 539 l 2,1,2
 74 550 74 550 87 550 c 0,3,4
 97 550 97 550 104 543.5 c 128,-1,5
 111 537 111 537 111 527 c 0,6,7
 111 519 111 519 105 512.5 c 128,-1,8
 99 506 99 506 86 495 c 2,9,-1
 1 424 l 1,10,-1
 -20 425 l 1,0,-1
79 424 m 1,11,-1
 164 539 l 2,12,13
 173 550 173 550 186 550 c 0,14,15
 196 550 196 550 203 543.5 c 128,-1,16
 210 537 210 537 210 527 c 0,17,18
 210 519 210 519 204 512.5 c 128,-1,19
 198 506 198 506 185 495 c 2,20,-1
 100 424 l 1,21,-1
 79 424 l 1,11,-1
EndSplineSet
EndChar
StartChar: uni0E01
Encoding: 3585 3585 212
Width: 468
Flags: W
Fore
358 0 m 1,0,-1
 358 275 l 2,1,2
 358 303 358 303 347 324 c 128,-1,3
 336 345 336 345 318 359 c 128,-1,4
 300 373 300 373 276.5 380 c 128,-1,5
 253 387 253 387 228 387 c 0,6,7
 202 387 202 387 178 379.5 c 128,-1,8
 154 372 154 372 135.5 357 c 128,-1,9
 117 342 117 342 104.5 320.5 c 128,-1,10
 92 299 92 299 90 272 c 1,11,-1
 155 272 l 1,12,-1
 155 252 l 1,13,14
 131 240 131 240 120.5 218.5 c 128,-1,15
 110 197 110 197 110 171 c 2,16,-1
 110 0 l 1,17,-1
 60 0 l 1,18,-1
 60 161 l 2,19,20
 60 195 60 195 76 220.5 c 128,-1,21
 92 246 92 246 126 255 c 1,22,-1
 38 255 l 1,23,24
 41 294 41 294 57.5 322.5 c 128,-1,25
 74 351 74 351 100 369.5 c 128,-1,26
 126 388 126 388 159 397.5 c 128,-1,27
 192 407 192 407 228 407 c 0,28,29
 261 407 261 407 293.5 399.5 c 128,-1,30
 326 392 326 392 351.5 375.5 c 128,-1,31
 377 359 377 359 392.5 332.5 c 128,-1,32
 408 306 408 306 408 268 c 2,33,-1
 408 0 l 1,34,-1
 358 0 l 1,0,-1
EndSplineSet
EndChar
StartChar: uni0E02
Encoding: 3586 3586 213
Width: 466
Flags: W
Fore
103 0 m 1,0,-1
 103 144 l 1,1,2
 127 152 127 152 149.5 163 c 128,-1,3
 172 174 172 174 190 190 c 128,-1,4
 208 206 208 206 218.5 227 c 128,-1,5
 229 248 229 248 229 277 c 0,6,7
 229 298 229 298 222.5 317.5 c 128,-1,8
 216 337 216 337 204 352 c 128,-1,9
 192 367 192 367 174 376 c 128,-1,10
 156 385 156 385 134 385 c 0,11,12
 111 385 111 385 88.5 374.5 c 128,-1,13
 66 364 66 364 57 341 c 1,14,15
 77 355 77 355 102 355 c 0,16,17
 136 355 136 355 160 331 c 128,-1,18
 184 307 184 307 184 273 c 256,19,20
 184 239 184 239 160 215 c 128,-1,21
 136 191 136 191 102 191 c 0,22,23
 59 191 59 191 34.5 221 c 128,-1,24
 10 251 10 251 10 292 c 0,25,26
 10 319 10 319 21.5 340.5 c 128,-1,27
 33 362 33 362 51.5 376.5 c 128,-1,28
 70 391 70 391 94 399 c 128,-1,29
 118 407 118 407 143 407 c 0,30,31
 169 407 169 407 192.5 398 c 128,-1,32
 216 389 216 389 234 372.5 c 128,-1,33
 252 356 252 356 262.5 333.5 c 128,-1,34
 273 311 273 311 273 284 c 0,35,36
 273 256 273 256 263.5 233 c 128,-1,37
 254 210 254 210 237.5 191 c 128,-1,38
 221 172 221 172 199.5 158.5 c 128,-1,39
 178 145 178 145 153 137 c 1,40,-1
 153 25 l 1,41,-1
 356 25 l 1,42,-1
 356 400 l 1,43,-1
 406 400 l 1,44,-1
 406 0 l 1,45,-1
 103 0 l 1,0,-1
159 273 m 256,46,47
 159 296 159 296 142 313 c 128,-1,48
 125 330 125 330 102 330 c 256,49,50
 79 330 79 330 62 313 c 128,-1,51
 45 296 45 296 45 273 c 256,52,53
 45 250 45 250 62 233 c 128,-1,54
 79 216 79 216 102 216 c 256,55,56
 125 216 125 216 142 233 c 128,-1,57
 159 250 159 250 159 273 c 256,46,47
EndSplineSet
EndChar
StartChar: uni0E03
Encoding: 3587 3587 214
Width: 486
Flags: W
Fore
123 0 m 1,0,-1
 123 144 l 1,1,2
 149 154 149 154 174 167.5 c 128,-1,3
 199 181 199 181 218.5 199 c 128,-1,4
 238 217 238 217 250 241 c 128,-1,5
 262 265 262 265 262 297 c 0,6,7
 262 309 262 309 259.5 324 c 128,-1,8
 257 339 257 339 251 352.5 c 128,-1,9
 245 366 245 366 235 375.5 c 128,-1,10
 225 385 225 385 209 385 c 0,11,12
 195 385 195 385 185.5 378.5 c 128,-1,13
 176 372 176 372 168 362 c 1,14,15
 157 375 157 375 145.5 380 c 128,-1,16
 134 385 134 385 117 385 c 0,17,18
 97 385 97 385 79 371 c 128,-1,19
 61 357 61 357 57 337 c 1,20,21
 77 351 77 351 102 351 c 0,22,23
 136 351 136 351 160 327 c 128,-1,24
 184 303 184 303 184 269 c 256,25,26
 184 235 184 235 160 211 c 128,-1,27
 136 187 136 187 102 187 c 0,28,29
 59 187 59 187 34.5 217 c 128,-1,30
 10 247 10 247 10 288 c 0,31,32
 10 310 10 310 17 331.5 c 128,-1,33
 24 353 24 353 37.5 370 c 128,-1,34
 51 387 51 387 70.5 397 c 128,-1,35
 90 407 90 407 114 407 c 0,36,37
 130 407 130 407 143.5 401.5 c 128,-1,38
 157 396 157 396 167 383 c 1,39,40
 175 394 175 394 189 400.5 c 128,-1,41
 203 407 203 407 217 407 c 0,42,43
 241 407 241 407 258 398 c 128,-1,44
 275 389 275 389 286 373.5 c 128,-1,45
 297 358 297 358 302 338.5 c 128,-1,46
 307 319 307 319 307 298 c 0,47,48
 307 270 307 270 295.5 244.5 c 128,-1,49
 284 219 284 219 265.5 198 c 128,-1,50
 247 177 247 177 222.5 161.5 c 128,-1,51
 198 146 198 146 173 137 c 1,52,-1
 173 25 l 1,53,-1
 376 25 l 1,54,-1
 376 400 l 1,55,-1
 426 400 l 1,56,-1
 426 0 l 1,57,-1
 123 0 l 1,0,-1
159 269 m 256,58,59
 159 292 159 292 142 309 c 128,-1,60
 125 326 125 326 102 326 c 256,61,62
 79 326 79 326 62 309 c 128,-1,63
 45 292 45 292 45 269 c 256,64,65
 45 246 45 246 62 229 c 128,-1,66
 79 212 79 212 102 212 c 256,67,68
 125 212 125 212 142 229 c 128,-1,69
 159 246 159 246 159 269 c 256,58,59
EndSplineSet
EndChar
StartChar: uni0E04
Encoding: 3588 3588 215
Width: 495
Flags: W
Fore
385 0 m 1,0,-1
 385 275 l 2,1,2
 385 302 385 302 372.5 322.5 c 128,-1,3
 360 343 360 343 340 357.5 c 128,-1,4
 320 372 320 372 295.5 379.5 c 128,-1,5
 271 387 271 387 247 387 c 0,6,7
 220 387 220 387 193.5 378.5 c 128,-1,8
 167 370 167 370 146.5 353.5 c 128,-1,9
 126 337 126 337 113.5 313.5 c 128,-1,10
 101 290 101 290 101 260 c 0,11,12
 101 213 101 213 106 168 c 128,-1,13
 111 123 111 123 109 76 c 1,14,-1
 157 230 l 2,15,16
 167 261 167 261 188.5 281.5 c 128,-1,17
 210 302 210 302 244 302 c 0,18,19
 279 302 279 302 302.5 278.5 c 128,-1,20
 326 255 326 255 326 220 c 0,21,22
 326 186 326 186 302 162 c 128,-1,23
 278 138 278 138 244 138 c 0,24,25
 221 138 221 138 199.5 151.5 c 128,-1,26
 178 165 178 165 169 187 c 1,27,-1
 112 0 l 1,28,-1
 62 0 l 1,29,-1
 63 36 l 2,30,31
 65 92 65 92 57.5 147 c 128,-1,32
 50 202 50 202 50 258 c 0,33,34
 50 297 50 297 68.5 325 c 128,-1,35
 87 353 87 353 115.5 371 c 128,-1,36
 144 389 144 389 179 398 c 128,-1,37
 214 407 214 407 247 407 c 0,38,39
 279 407 279 407 312.5 399.5 c 128,-1,40
 346 392 346 392 373 375.5 c 128,-1,41
 400 359 400 359 417.5 333 c 128,-1,42
 435 307 435 307 435 269 c 2,43,-1
 435 0 l 1,44,-1
 385 0 l 1,0,-1
301 220 m 256,45,46
 301 243 301 243 284 260 c 128,-1,47
 267 277 267 277 244 277 c 256,48,49
 221 277 221 277 204 260 c 128,-1,50
 187 243 187 243 187 220 c 256,51,52
 187 197 187 197 204 180 c 128,-1,53
 221 163 221 163 244 163 c 256,54,55
 267 163 267 163 284 180 c 128,-1,56
 301 197 301 197 301 220 c 256,45,46
EndSplineSet
EndChar
StartChar: uni0E05
Encoding: 3589 3589 216
Width: 495
Flags: W
Fore
385 0 m 1,0,-1
 385 292 l 2,1,2
 385 308 385 308 381.5 324.5 c 128,-1,3
 378 341 378 341 369.5 354 c 128,-1,4
 361 367 361 367 348 375 c 128,-1,5
 335 383 335 383 316 383 c 0,6,7
 296 383 296 383 280 372.5 c 128,-1,8
 264 362 264 362 255 344 c 1,9,-1
 244 344 l 1,10,11
 237 362 237 362 220.5 372.5 c 128,-1,12
 204 383 204 383 185 383 c 0,13,14
 161 383 161 383 144.5 372 c 128,-1,15
 128 361 128 361 117.5 343.5 c 128,-1,16
 107 326 107 326 102.5 304.5 c 128,-1,17
 98 283 98 283 98 263 c 0,18,19
 98 218 98 218 104 174 c 128,-1,20
 110 130 110 130 112 85 c 1,21,22
 119 107 119 107 127 144 c 128,-1,23
 135 181 135 181 149 216 c 128,-1,24
 163 251 163 251 185.5 276.5 c 128,-1,25
 208 302 208 302 244 302 c 0,26,27
 279 302 279 302 302.5 278.5 c 128,-1,28
 326 255 326 255 326 220 c 0,29,30
 326 186 326 186 302 162 c 128,-1,31
 278 138 278 138 244 138 c 0,32,33
 221 138 221 138 199.5 151.5 c 128,-1,34
 178 165 178 165 169 187 c 1,35,-1
 112 0 l 1,36,-1
 62 0 l 1,37,38
 63 11 63 11 63.5 22.5 c 128,-1,39
 64 34 64 34 64 45 c 0,40,41
 64 99 64 99 55.5 153 c 128,-1,42
 47 207 47 207 47 261 c 0,43,44
 47 289 47 289 55 315.5 c 128,-1,45
 63 342 63 342 78.5 362.5 c 128,-1,46
 94 383 94 383 117 395.5 c 128,-1,47
 140 408 140 408 171 408 c 0,48,49
 194 408 194 408 216.5 400 c 128,-1,50
 239 392 239 392 250 369 c 1,51,52
 265 390 265 390 284.5 399 c 128,-1,53
 304 408 304 408 330 408 c 0,54,55
 379 408 379 408 407 378 c 128,-1,56
 435 348 435 348 435 300 c 2,57,-1
 435 0 l 1,58,-1
 385 0 l 1,0,-1
301 220 m 256,59,60
 301 243 301 243 284 260 c 128,-1,61
 267 277 267 277 244 277 c 256,62,63
 221 277 221 277 204 260 c 128,-1,64
 187 243 187 243 187 220 c 256,65,66
 187 197 187 197 204 180 c 128,-1,67
 221 163 221 163 244 163 c 256,68,69
 267 163 267 163 284 180 c 128,-1,70
 301 197 301 197 301 220 c 256,59,60
EndSplineSet
EndChar
StartChar: uni0E06
Encoding: 3590 3590 217
Width: 536
Flags: W
Fore
426 0 m 1,0,-1
 241 120 l 1,1,2
 241 93 241 93 238 70 c 128,-1,3
 235 47 235 47 225.5 30.5 c 128,-1,4
 216 14 216 14 197 4.5 c 128,-1,5
 178 -5 178 -5 146 -5 c 0,6,7
 108 -5 108 -5 81 18.5 c 128,-1,8
 54 42 54 42 54 82 c 0,9,10
 54 106 54 106 67.5 125 c 128,-1,11
 81 144 81 144 101.5 155.5 c 128,-1,12
 122 167 122 167 146 169.5 c 128,-1,13
 170 172 170 172 191 162 c 1,14,15
 191 190 191 190 202 207 c 128,-1,16
 213 224 213 224 226.5 239 c 128,-1,17
 240 254 240 254 251 271 c 128,-1,18
 262 288 262 288 262 317 c 0,19,20
 262 341 262 341 249.5 363 c 128,-1,21
 237 385 237 385 209 385 c 0,22,23
 195 385 195 385 185.5 378.5 c 128,-1,24
 176 372 176 372 168 362 c 1,25,26
 157 375 157 375 145.5 380 c 128,-1,27
 134 385 134 385 117 385 c 0,28,29
 97 385 97 385 79 371 c 128,-1,30
 61 357 61 357 57 337 c 1,31,32
 77 351 77 351 102 351 c 0,33,34
 136 351 136 351 160 327 c 128,-1,35
 184 303 184 303 184 269 c 256,36,37
 184 235 184 235 160 211 c 128,-1,38
 136 187 136 187 102 187 c 0,39,40
 59 187 59 187 34.5 217 c 128,-1,41
 10 247 10 247 10 288 c 0,42,43
 10 310 10 310 17 331.5 c 128,-1,44
 24 353 24 353 37.5 370 c 128,-1,45
 51 387 51 387 70.5 397 c 128,-1,46
 90 407 90 407 114 407 c 0,47,48
 130 407 130 407 143.5 401.5 c 128,-1,49
 157 396 157 396 167 383 c 1,50,51
 176 396 176 396 191 401.5 c 128,-1,52
 206 407 206 407 221 407 c 0,53,54
 262 407 262 407 284.5 382.5 c 128,-1,55
 307 358 307 358 307 318 c 0,56,57
 307 299 307 299 302 287 c 128,-1,58
 297 275 297 275 290 266 c 128,-1,59
 283 257 283 257 274 248 c 128,-1,60
 265 239 265 239 258 226 c 128,-1,61
 251 213 251 213 246 194.5 c 128,-1,62
 241 176 241 176 241 148 c 1,63,-1
 426 30 l 1,64,-1
 426 400 l 1,65,-1
 476 400 l 1,66,-1
 476 0 l 1,67,-1
 426 0 l 1,0,-1
159 269 m 256,68,69
 159 292 159 292 142 309 c 128,-1,70
 125 326 125 326 102 326 c 256,71,72
 79 326 79 326 62 309 c 128,-1,73
 45 292 45 292 45 269 c 256,74,75
 45 246 45 246 62 229 c 128,-1,76
 79 212 79 212 102 212 c 256,77,78
 125 212 125 212 142 229 c 128,-1,79
 159 246 159 246 159 269 c 256,68,69
191 137 m 1,80,81
 182 141 182 141 172 141.5 c 128,-1,82
 162 142 162 142 152 142 c 0,83,84
 125 142 125 142 103.5 126.5 c 128,-1,85
 82 111 82 111 82 82 c 0,86,87
 82 56 82 56 98.5 39 c 128,-1,88
 115 22 115 22 141 22 c 256,89,90
 167 22 167 22 179 41 c 128,-1,91
 191 60 191 60 191 83 c 2,92,-1
 191 137 l 1,80,81
EndSplineSet
EndChar
StartChar: uni0E07
Encoding: 3591 3591 218
Width: 408
Flags: W
Fore
176 0 m 1,0,1
 167 25 167 25 147.5 61 c 128,-1,2
 128 97 128 97 103 132.5 c 128,-1,3
 78 168 78 168 51 197.5 c 128,-1,4
 24 227 24 227 0 239 c 1,5,-1
 44 270 l 1,6,7
 67 256 67 256 91 226 c 128,-1,8
 115 196 115 196 136 160 c 128,-1,9
 157 124 157 124 172.5 87.5 c 128,-1,10
 188 51 188 51 194 25 c 1,11,-1
 297 25 l 1,12,-1
 297 260 l 1,13,14
 286 250 286 250 272 246 c 128,-1,15
 258 242 258 242 244 242 c 0,16,17
 210 242 210 242 186.5 266 c 128,-1,18
 163 290 163 290 163 324 c 0,19,20
 163 361 163 361 188 384 c 128,-1,21
 213 407 213 407 249 407 c 0,22,23
 296 407 296 407 321.5 378.5 c 128,-1,24
 347 350 347 350 347 305 c 2,25,-1
 347 0 l 1,26,-1
 176 0 l 1,0,1
301 324 m 256,27,28
 301 347 301 347 284 363.5 c 128,-1,29
 267 380 267 380 244 380 c 256,30,31
 221 380 221 380 204.5 363.5 c 128,-1,32
 188 347 188 347 188 324 c 256,33,34
 188 301 188 301 204.5 284 c 128,-1,35
 221 267 221 267 244 267 c 256,36,37
 267 267 267 267 284 284 c 128,-1,38
 301 301 301 301 301 324 c 256,27,28
EndSplineSet
EndChar
StartChar: uni0E08
Encoding: 3592 3592 219
Width: 424
Flags: W
Fore
384 255 m 0,0,1
 384 191 384 191 374 127.5 c 128,-1,2
 364 64 364 64 364 0 c 1,3,-1
 314 0 l 1,4,-1
 248 156 l 1,5,6
 240 132 240 132 218 117 c 128,-1,7
 196 102 196 102 171 102 c 0,8,9
 136 102 136 102 112.5 125.5 c 128,-1,10
 89 149 89 149 89 184 c 256,11,12
 89 219 89 219 112.5 242.5 c 128,-1,13
 136 266 136 266 171 266 c 0,14,15
 202 266 202 266 222.5 250.5 c 128,-1,16
 243 235 243 235 255 207 c 2,17,-1
 320 54 l 1,18,-1
 319 68 l 2,19,20
 318 119 318 119 326 169.5 c 128,-1,21
 334 220 334 220 334 271 c 0,22,23
 334 299 334 299 323 321 c 128,-1,24
 312 343 312 343 294 357.5 c 128,-1,25
 276 372 276 372 252 379.5 c 128,-1,26
 228 387 228 387 202 387 c 0,27,28
 174 387 174 387 147.5 378 c 128,-1,29
 121 369 121 369 100.5 352 c 128,-1,30
 80 335 80 335 67.5 311 c 128,-1,31
 55 287 55 287 55 257 c 1,32,-1
 0 257 l 1,33,34
 5 294 5 294 24 322 c 128,-1,35
 43 350 43 350 71 369 c 128,-1,36
 99 388 99 388 133 397 c 128,-1,37
 167 406 167 406 202 406 c 0,38,39
 239 406 239 406 272 397.5 c 128,-1,40
 305 389 305 389 330 371 c 128,-1,41
 355 353 355 353 369.5 324.5 c 128,-1,42
 384 296 384 296 384 255 c 0,0,1
229 184 m 256,43,44
 229 207 229 207 212 224 c 128,-1,45
 195 241 195 241 172 241 c 256,46,47
 149 241 149 241 132 224 c 128,-1,48
 115 207 115 207 115 184 c 256,49,50
 115 161 115 161 132 144 c 128,-1,51
 149 127 149 127 172 127 c 256,52,53
 195 127 195 127 212 144 c 128,-1,54
 229 161 229 161 229 184 c 256,43,44
EndSplineSet
EndChar
StartChar: uni0E09
Encoding: 3593 3593 220
Width: 514
Flags: W
Fore
480 78 m 0,0,1
 480 43 480 43 454.5 17.5 c 128,-1,2
 429 -8 429 -8 394 -8 c 0,3,4
 371 -8 371 -8 353 2 c 128,-1,5
 335 12 335 12 323.5 28 c 128,-1,6
 312 44 312 44 308.5 65 c 128,-1,7
 305 86 305 86 312 107 c 1,8,9
 280 84 280 84 250 57 c 128,-1,10
 220 30 220 30 195 0 c 1,11,-1
 144 0 l 1,12,-1
 144 120 l 1,13,14
 133 110 133 110 119 106 c 128,-1,15
 105 102 105 102 91 102 c 0,16,17
 57 102 57 102 33.5 126 c 128,-1,18
 10 150 10 150 10 184 c 0,19,20
 10 221 10 221 35 244 c 128,-1,21
 60 267 60 267 96 267 c 0,22,23
 143 267 143 267 164 243.5 c 128,-1,24
 185 220 185 220 192 186 c 128,-1,25
 199 152 199 152 196.5 113 c 128,-1,26
 194 74 194 74 194 43 c 1,27,28
 236 89 236 89 290.5 126 c 128,-1,29
 345 163 345 163 403 186 c 1,30,-1
 403 275 l 2,31,32
 403 307 403 307 389 328.5 c 128,-1,33
 375 350 375 350 353 363 c 128,-1,34
 331 376 331 376 304 381.5 c 128,-1,35
 277 387 277 387 250 387 c 0,36,37
 225 387 225 387 198.5 381.5 c 128,-1,38
 172 376 172 376 149.5 364 c 128,-1,39
 127 352 127 352 110.5 332.5 c 128,-1,40
 94 313 94 313 89 285 c 1,41,-1
 38 285 l 1,42,43
 44 321 44 321 66.5 344.5 c 128,-1,44
 89 368 89 368 119.5 382 c 128,-1,45
 150 396 150 396 184.5 401.5 c 128,-1,46
 219 407 219 407 250 407 c 0,47,48
 285 407 285 407 321 401 c 128,-1,49
 357 395 357 395 386.5 379.5 c 128,-1,50
 416 364 416 364 434.5 337 c 128,-1,51
 453 310 453 310 453 267 c 2,52,-1
 453 181 l 1,53,54
 440 179 440 179 428.5 174 c 128,-1,55
 417 169 417 169 406 163 c 1,56,57
 438 158 438 158 459 134 c 128,-1,58
 480 110 480 110 480 78 c 0,0,1
456 76 m 256,59,60
 456 101 456 101 437 120 c 128,-1,61
 418 139 418 139 393 139 c 256,62,63
 368 139 368 139 349 120 c 128,-1,64
 330 101 330 101 330 76 c 256,65,66
 330 51 330 51 349 32 c 128,-1,67
 368 13 368 13 393 13 c 256,68,69
 418 13 418 13 437 32 c 128,-1,70
 456 51 456 51 456 76 c 256,59,60
148 184 m 256,71,72
 148 207 148 207 131 223.5 c 128,-1,73
 114 240 114 240 91 240 c 256,74,75
 68 240 68 240 51.5 223.5 c 128,-1,76
 35 207 35 207 35 184 c 256,77,78
 35 161 35 161 51.5 144 c 128,-1,79
 68 127 68 127 91 127 c 256,80,81
 114 127 114 127 131 144 c 128,-1,82
 148 161 148 161 148 184 c 256,71,72
EndSplineSet
EndChar
StartChar: uni0E0A
Encoding: 3594 3594 221
Width: 466
Flags: W
Fore
424 400 m 1,0,1
 423 388 423 388 414.5 375.5 c 128,-1,2
 406 363 406 363 394 352 c 128,-1,3
 382 341 382 341 368.5 332 c 128,-1,4
 355 323 355 323 345 318 c 1,5,6
 368 309 368 309 387 291.5 c 128,-1,7
 406 274 406 274 406 247 c 2,8,-1
 406 0 l 1,9,-1
 103 0 l 1,10,-1
 103 144 l 1,11,12
 127 152 127 152 149.5 163 c 128,-1,13
 172 174 172 174 190 190 c 128,-1,14
 208 206 208 206 218.5 227 c 128,-1,15
 229 248 229 248 229 277 c 0,16,17
 229 298 229 298 222.5 317.5 c 128,-1,18
 216 337 216 337 204 352 c 128,-1,19
 192 367 192 367 174 376 c 128,-1,20
 156 385 156 385 134 385 c 0,21,22
 111 385 111 385 88.5 374.5 c 128,-1,23
 66 364 66 364 57 341 c 1,24,25
 77 355 77 355 102 355 c 0,26,27
 136 355 136 355 160 331 c 128,-1,28
 184 307 184 307 184 273 c 256,29,30
 184 239 184 239 160 215 c 128,-1,31
 136 191 136 191 102 191 c 0,32,33
 59 191 59 191 34.5 221 c 128,-1,34
 10 251 10 251 10 292 c 0,35,36
 10 319 10 319 21.5 340.5 c 128,-1,37
 33 362 33 362 51.5 376.5 c 128,-1,38
 70 391 70 391 94 399 c 128,-1,39
 118 407 118 407 143 407 c 0,40,41
 169 407 169 407 192.5 398 c 128,-1,42
 216 389 216 389 234 372.5 c 128,-1,43
 252 356 252 356 262.5 333.5 c 128,-1,44
 273 311 273 311 273 284 c 0,45,46
 273 256 273 256 263.5 233 c 128,-1,47
 254 210 254 210 237.5 191 c 128,-1,48
 221 172 221 172 199.5 158.5 c 128,-1,49
 178 145 178 145 153 137 c 1,50,-1
 153 25 l 1,51,-1
 356 25 l 1,52,-1
 356 246 l 2,53,54
 356 275 356 275 342.5 291 c 128,-1,55
 329 307 329 307 304 318 c 1,56,57
 327 330 327 330 343 352 c 128,-1,58
 359 374 359 374 363 400 c 1,59,-1
 424 400 l 1,0,1
159 273 m 256,60,61
 159 296 159 296 142 313 c 128,-1,62
 125 330 125 330 102 330 c 256,63,64
 79 330 79 330 62 313 c 128,-1,65
 45 296 45 296 45 273 c 256,66,67
 45 250 45 250 62 233 c 128,-1,68
 79 216 79 216 102 216 c 256,69,70
 125 216 125 216 142 233 c 128,-1,71
 159 250 159 250 159 273 c 256,60,61
EndSplineSet
EndChar
StartChar: uni0E0B
Encoding: 3595 3595 222
Width: 486
Flags: W
Fore
444 400 m 1,0,1
 443 388 443 388 434.5 375.5 c 128,-1,2
 426 363 426 363 414 352 c 128,-1,3
 402 341 402 341 388.5 332 c 128,-1,4
 375 323 375 323 365 318 c 1,5,6
 388 309 388 309 407 291.5 c 128,-1,7
 426 274 426 274 426 247 c 2,8,-1
 426 0 l 1,9,-1
 123 0 l 1,10,-1
 123 144 l 1,11,12
 149 154 149 154 174 167.5 c 128,-1,13
 199 181 199 181 218.5 199 c 128,-1,14
 238 217 238 217 250 241 c 128,-1,15
 262 265 262 265 262 297 c 0,16,17
 262 309 262 309 259.5 324 c 128,-1,18
 257 339 257 339 251 352.5 c 128,-1,19
 245 366 245 366 235 375.5 c 128,-1,20
 225 385 225 385 209 385 c 0,21,22
 195 385 195 385 185.5 378.5 c 128,-1,23
 176 372 176 372 168 362 c 1,24,25
 157 375 157 375 145.5 380 c 128,-1,26
 134 385 134 385 117 385 c 0,27,28
 97 385 97 385 79 371 c 128,-1,29
 61 357 61 357 57 337 c 1,30,31
 77 351 77 351 102 351 c 0,32,33
 136 351 136 351 160 327 c 128,-1,34
 184 303 184 303 184 269 c 256,35,36
 184 235 184 235 160 211 c 128,-1,37
 136 187 136 187 102 187 c 0,38,39
 59 187 59 187 34.5 217 c 128,-1,40
 10 247 10 247 10 288 c 0,41,42
 10 310 10 310 17 331.5 c 128,-1,43
 24 353 24 353 37.5 370 c 128,-1,44
 51 387 51 387 70.5 397 c 128,-1,45
 90 407 90 407 114 407 c 0,46,47
 130 407 130 407 143.5 401.5 c 128,-1,48
 157 396 157 396 167 383 c 1,49,50
 175 394 175 394 189 400.5 c 128,-1,51
 203 407 203 407 217 407 c 0,52,53
 241 407 241 407 258 398 c 128,-1,54
 275 389 275 389 286 373.5 c 128,-1,55
 297 358 297 358 302 338.5 c 128,-1,56
 307 319 307 319 307 298 c 0,57,58
 307 270 307 270 295.5 244.5 c 128,-1,59
 284 219 284 219 265.5 198 c 128,-1,60
 247 177 247 177 222.5 161.5 c 128,-1,61
 198 146 198 146 173 137 c 1,62,-1
 173 25 l 1,63,-1
 376 25 l 1,64,-1
 376 246 l 2,65,66
 376 275 376 275 362.5 291 c 128,-1,67
 349 307 349 307 324 318 c 1,68,69
 347 330 347 330 363 352 c 128,-1,70
 379 374 379 374 383 400 c 1,71,-1
 444 400 l 1,0,1
159 269 m 256,72,73
 159 292 159 292 142 309 c 128,-1,74
 125 326 125 326 102 326 c 256,75,76
 79 326 79 326 62 309 c 128,-1,77
 45 292 45 292 45 269 c 256,78,79
 45 246 45 246 62 229 c 128,-1,80
 79 212 79 212 102 212 c 256,81,82
 125 212 125 212 142 229 c 128,-1,83
 159 246 159 246 159 269 c 256,72,73
EndSplineSet
EndChar
StartChar: uni0E0C
Encoding: 3596 3596 223
Width: 697
Flags: W
Fore
586 0 m 1,0,1
 563 29 563 29 534.5 54.5 c 128,-1,2
 506 80 506 80 476 102 c 1,3,4
 480 90 480 90 480 75 c 0,5,6
 480 41 480 41 456 17 c 128,-1,7
 432 -7 432 -7 398 -7 c 256,8,9
 364 -7 364 -7 340 17 c 128,-1,10
 316 41 316 41 316 75 c 0,11,12
 316 106 316 106 337.5 129 c 128,-1,13
 359 152 359 152 389 157 c 1,14,-1
 358 175 l 1,15,16
 358 215 358 215 357.5 253.5 c 128,-1,17
 357 292 357 292 346 321.5 c 128,-1,18
 335 351 335 351 308 369 c 128,-1,19
 281 387 281 387 228 387 c 0,20,21
 202 387 202 387 178 379.5 c 128,-1,22
 154 372 154 372 135.5 357 c 128,-1,23
 117 342 117 342 104.5 320.5 c 128,-1,24
 92 299 92 299 90 272 c 1,25,-1
 155 272 l 1,26,-1
 155 252 l 1,27,28
 137 243 137 243 128 231 c 128,-1,29
 119 219 119 219 115 205 c 128,-1,30
 111 191 111 191 110.5 175 c 128,-1,31
 110 159 110 159 110 142 c 1,32,33
 121 152 121 152 135 156 c 128,-1,34
 149 160 149 160 163 160 c 0,35,36
 197 160 197 160 220.5 136 c 128,-1,37
 244 112 244 112 244 78 c 0,38,39
 244 41 244 41 219 18 c 128,-1,40
 194 -5 194 -5 158 -5 c 0,41,42
 111 -5 111 -5 85.5 23.5 c 128,-1,43
 60 52 60 52 60 97 c 2,44,-1
 60 161 l 2,45,46
 60 195 60 195 76 220.5 c 128,-1,47
 92 246 92 246 126 255 c 1,48,-1
 38 255 l 1,49,50
 41 294 41 294 57.5 322.5 c 128,-1,51
 74 351 74 351 100 369.5 c 128,-1,52
 126 388 126 388 159 397.5 c 128,-1,53
 192 407 192 407 228 407 c 0,54,55
 292 407 292 407 328.5 391.5 c 128,-1,56
 365 376 365 376 382.5 346.5 c 128,-1,57
 400 317 400 317 404 274 c 128,-1,58
 408 231 408 231 408 176 c 1,59,60
 458 151 458 151 503 116.5 c 128,-1,61
 548 82 548 82 587 43 c 1,62,-1
 587 400 l 1,63,-1
 637 400 l 1,64,-1
 637 0 l 1,65,-1
 586 0 l 1,0,1
455 75 m 256,66,67
 455 98 455 98 438 115 c 128,-1,68
 421 132 421 132 398 132 c 256,69,70
 375 132 375 132 358 115 c 128,-1,71
 341 98 341 98 341 75 c 256,72,73
 341 52 341 52 358 35 c 128,-1,74
 375 18 375 18 398 18 c 256,75,76
 421 18 421 18 438 35 c 128,-1,77
 455 52 455 52 455 75 c 256,66,67
219 78 m 256,78,79
 219 101 219 101 202.5 118 c 128,-1,80
 186 135 186 135 163 135 c 256,81,82
 140 135 140 135 123 118 c 128,-1,83
 106 101 106 101 106 78 c 256,84,85
 106 55 106 55 123 38.5 c 128,-1,86
 140 22 140 22 163 22 c 256,87,88
 186 22 186 22 202.5 38.5 c 128,-1,89
 219 55 219 55 219 78 c 256,78,79
EndSplineSet
EndChar
StartChar: uni0E0D
Encoding: 3597 3597 224
Width: 697
Flags: W
Fore
358 0 m 1,0,-1
 358 275 l 2,1,2
 358 303 358 303 347 324 c 128,-1,3
 336 345 336 345 318 359 c 128,-1,4
 300 373 300 373 276.5 380 c 128,-1,5
 253 387 253 387 228 387 c 0,6,7
 202 387 202 387 178 379.5 c 128,-1,8
 154 372 154 372 135.5 357 c 128,-1,9
 117 342 117 342 104.5 320.5 c 128,-1,10
 92 299 92 299 90 272 c 1,11,-1
 155 272 l 1,12,-1
 155 252 l 1,13,14
 137 243 137 243 128 231 c 128,-1,15
 119 219 119 219 115 205 c 128,-1,16
 111 191 111 191 110.5 175 c 128,-1,17
 110 159 110 159 110 142 c 1,18,19
 121 152 121 152 135 156 c 128,-1,20
 149 160 149 160 163 160 c 0,21,22
 197 160 197 160 220.5 136 c 128,-1,23
 244 112 244 112 244 78 c 0,24,25
 244 41 244 41 219 18 c 128,-1,26
 194 -5 194 -5 158 -5 c 0,27,28
 111 -5 111 -5 85.5 23.5 c 128,-1,29
 60 52 60 52 60 97 c 2,30,-1
 60 161 l 2,31,32
 60 195 60 195 76 220.5 c 128,-1,33
 92 246 92 246 126 255 c 1,34,-1
 38 255 l 1,35,36
 41 294 41 294 57.5 322.5 c 128,-1,37
 74 351 74 351 100 369.5 c 128,-1,38
 126 388 126 388 159 397.5 c 128,-1,39
 192 407 192 407 228 407 c 0,40,41
 261 407 261 407 293.5 400 c 128,-1,42
 326 393 326 393 351.5 376.5 c 128,-1,43
 377 360 377 360 392.5 333.5 c 128,-1,44
 408 307 408 307 408 268 c 2,45,-1
 408 25 l 1,46,-1
 587 25 l 1,47,-1
 587 400 l 1,48,-1
 637 400 l 1,49,-1
 637 0 l 1,50,-1
 358 0 l 1,0,-1
635 -32 m 1,51,52
 633 -65 633 -65 618 -92.5 c 128,-1,53
 603 -120 603 -120 579.5 -140 c 128,-1,54
 556 -160 556 -160 526 -171 c 128,-1,55
 496 -182 496 -182 465 -182 c 0,56,57
 444 -182 444 -182 424.5 -177.5 c 128,-1,58
 405 -173 405 -173 389 -163.5 c 128,-1,59
 373 -154 373 -154 363.5 -137.5 c 128,-1,60
 354 -121 354 -121 354 -97 c 0,61,62
 354 -65 354 -65 376.5 -42.5 c 128,-1,63
 399 -20 399 -20 431 -20 c 256,64,65
 463 -20 463 -20 485.5 -42.5 c 128,-1,66
 508 -65 508 -65 508 -97 c 0,67,68
 508 -115 508 -115 499 -132 c 128,-1,69
 490 -149 490 -149 476 -160 c 1,70,71
 501 -159 501 -159 521.5 -148 c 128,-1,72
 542 -137 542 -137 556.5 -119 c 128,-1,73
 571 -101 571 -101 579 -78.5 c 128,-1,74
 587 -56 587 -56 587 -32 c 1,75,-1
 635 -32 l 1,51,52
483 -98 m 256,76,77
 483 -76 483 -76 468 -61 c 128,-1,78
 453 -46 453 -46 431 -46 c 256,79,80
 409 -46 409 -46 394 -61 c 128,-1,81
 379 -76 379 -76 379 -98 c 256,82,83
 379 -120 379 -120 394 -135 c 128,-1,84
 409 -150 409 -150 431 -150 c 256,85,86
 453 -150 453 -150 468 -135 c 128,-1,87
 483 -120 483 -120 483 -98 c 256,76,77
219 78 m 256,88,89
 219 101 219 101 202.5 118 c 128,-1,90
 186 135 186 135 163 135 c 256,91,92
 140 135 140 135 123 118 c 128,-1,93
 106 101 106 101 106 78 c 256,94,95
 106 55 106 55 123 38.5 c 128,-1,96
 140 22 140 22 163 22 c 256,97,98
 186 22 186 22 202.5 38.5 c 128,-1,99
 219 55 219 55 219 78 c 256,88,89
EndSplineSet
Substitution: 0 65534 'L025' uni0E0D.alt1
Substitution: 0 65534 'L025' uni0E0D.alt1
EndChar
StartChar: uni0E0E
Encoding: 3598 3598 225
Width: 552
Flags: W
Fore
442 -160 m 1,0,1
 416 -141 416 -141 390 -124 c 128,-1,2
 364 -107 364 -107 335 -93 c 1,3,4
 315 -106 315 -106 298 -118.5 c 128,-1,5
 281 -131 281 -131 264 -141 c 128,-1,6
 247 -151 247 -151 227 -157 c 128,-1,7
 207 -163 207 -163 181 -163 c 0,8,9
 167 -163 167 -163 148.5 -160 c 128,-1,10
 130 -157 130 -157 113.5 -149.5 c 128,-1,11
 97 -142 97 -142 86 -129.5 c 128,-1,12
 75 -117 75 -117 75 -99 c 0,13,14
 75 -79 75 -79 86.5 -65.5 c 128,-1,15
 98 -52 98 -52 115 -44 c 128,-1,16
 132 -36 132 -36 151.5 -32.5 c 128,-1,17
 171 -29 171 -29 187 -29 c 0,18,19
 225 -29 225 -29 262.5 -38.5 c 128,-1,20
 300 -48 300 -48 335 -63 c 1,21,22
 374 -41 374 -41 415 -34 c 1,23,-1
 415 -58 l 1,24,25
 401 -61 401 -61 388 -65 c 128,-1,26
 375 -69 375 -69 363 -76 c 1,27,28
 385 -87 385 -87 404 -99.5 c 128,-1,29
 423 -112 423 -112 442 -126 c 1,30,-1
 442 275 l 2,31,32
 442 303 442 303 431 324 c 128,-1,33
 420 345 420 345 402 359 c 128,-1,34
 384 373 384 373 360.5 380 c 128,-1,35
 337 387 337 387 312 387 c 0,36,37
 286 387 286 387 262 379.5 c 128,-1,38
 238 372 238 372 219.5 357 c 128,-1,39
 201 342 201 342 188.5 320.5 c 128,-1,40
 176 299 176 299 174 272 c 1,41,-1
 239 272 l 1,42,-1
 239 252 l 1,43,44
 212 241 212 241 203 217.5 c 128,-1,45
 194 194 194 194 192.5 165.5 c 128,-1,46
 191 137 191 137 192 107 c 128,-1,47
 193 77 193 77 186 52 c 128,-1,48
 179 27 179 27 159 11 c 128,-1,49
 139 -5 139 -5 96 -5 c 0,50,51
 60 -5 60 -5 35 18 c 128,-1,52
 10 41 10 41 10 78 c 0,53,54
 10 112 10 112 33.5 136 c 128,-1,55
 57 160 57 160 91 160 c 0,56,57
 105 160 105 160 119 156 c 128,-1,58
 133 152 133 152 144 142 c 1,59,60
 144 166 144 166 145.5 184 c 128,-1,61
 147 202 147 202 153.5 215.5 c 128,-1,62
 160 229 160 229 174 239 c 128,-1,63
 188 249 188 249 214 255 c 1,64,-1
 122 255 l 1,65,66
 125 294 125 294 141.5 322.5 c 128,-1,67
 158 351 158 351 184 369.5 c 128,-1,68
 210 388 210 388 243 397.5 c 128,-1,69
 276 407 276 407 312 407 c 0,70,71
 345 407 345 407 377.5 400 c 128,-1,72
 410 393 410 393 435.5 376.5 c 128,-1,73
 461 360 461 360 476.5 333.5 c 128,-1,74
 492 307 492 307 492 268 c 2,75,-1
 492 -160 l 1,76,-1
 442 -160 l 1,0,1
148 78 m 256,77,78
 148 101 148 101 131 118 c 128,-1,79
 114 135 114 135 91 135 c 256,80,81
 68 135 68 135 51.5 118 c 128,-1,82
 35 101 35 101 35 78 c 256,83,84
 35 55 35 55 51.5 38.5 c 128,-1,85
 68 22 68 22 91 22 c 256,86,87
 114 22 114 22 131 38.5 c 128,-1,88
 148 55 148 55 148 78 c 256,77,78
307 -80 m 1,89,90
 279 -68 279 -68 249.5 -61 c 128,-1,91
 220 -54 220 -54 190 -54 c 0,92,93
 180 -54 180 -54 167.5 -56.5 c 128,-1,94
 155 -59 155 -59 144.5 -64 c 128,-1,95
 134 -69 134 -69 127 -77.5 c 128,-1,96
 120 -86 120 -86 120 -99 c 0,97,98
 120 -110 120 -110 127 -117.5 c 128,-1,99
 134 -125 134 -125 143.5 -129.5 c 128,-1,100
 153 -134 153 -134 164 -135.5 c 128,-1,101
 175 -137 175 -137 184 -137 c 0,102,103
 220 -137 220 -137 249 -118.5 c 128,-1,104
 278 -100 278 -100 307 -80 c 1,89,90
EndSplineSet
Substitution: 0 65534 'L025' uni0E0E.alt1
Substitution: 0 65534 'L025' uni0E0E.alt1
EndChar
StartChar: uni0E0F
Encoding: 3599 3599 226
Width: 552
Flags: W
Fore
442 -160 m 1,0,-1
 374 -96 l 1,1,-1
 304 -165 l 1,2,3
 290 -146 290 -146 273 -129.5 c 128,-1,4
 256 -113 256 -113 237 -99 c 1,5,6
 223 -112 223 -112 211 -124.5 c 128,-1,7
 199 -137 199 -137 185.5 -147 c 128,-1,8
 172 -157 172 -157 156.5 -163 c 128,-1,9
 141 -169 141 -169 120 -169 c 0,10,11
 105 -169 105 -169 91 -165 c 128,-1,12
 77 -161 77 -161 65.5 -153.5 c 128,-1,13
 54 -146 54 -146 47 -134 c 128,-1,14
 40 -122 40 -122 40 -105 c 256,15,16
 40 -88 40 -88 48.5 -75 c 128,-1,17
 57 -62 57 -62 69.5 -53 c 128,-1,18
 82 -44 82 -44 98 -39.5 c 128,-1,19
 114 -35 114 -35 129 -35 c 0,20,21
 159 -35 159 -35 185 -44 c 128,-1,22
 211 -53 211 -53 237 -68 c 1,23,24
 251 -58 251 -58 266 -51 c 128,-1,25
 281 -44 281 -44 298 -40 c 1,26,-1
 298 -64 l 1,27,28
 275 -71 275 -71 258 -82 c 1,29,30
 272 -93 272 -93 284 -104.5 c 128,-1,31
 296 -116 296 -116 307 -129 c 1,32,-1
 374 -63 l 1,33,-1
 442 -126 l 1,34,-1
 442 275 l 2,35,36
 442 303 442 303 431 324 c 128,-1,37
 420 345 420 345 402 359 c 128,-1,38
 384 373 384 373 360.5 380 c 128,-1,39
 337 387 337 387 312 387 c 0,40,41
 286 387 286 387 262 379.5 c 128,-1,42
 238 372 238 372 219.5 357 c 128,-1,43
 201 342 201 342 188.5 320.5 c 128,-1,44
 176 299 176 299 174 272 c 1,45,-1
 239 272 l 1,46,-1
 239 252 l 1,47,48
 212 241 212 241 203 217.5 c 128,-1,49
 194 194 194 194 192.5 165.5 c 128,-1,50
 191 137 191 137 192 107 c 128,-1,51
 193 77 193 77 186 52 c 128,-1,52
 179 27 179 27 159 11 c 128,-1,53
 139 -5 139 -5 96 -5 c 0,54,55
 60 -5 60 -5 35 18 c 128,-1,56
 10 41 10 41 10 78 c 0,57,58
 10 112 10 112 33.5 136 c 128,-1,59
 57 160 57 160 91 160 c 0,60,61
 105 160 105 160 119 156 c 128,-1,62
 133 152 133 152 144 142 c 1,63,64
 144 166 144 166 145.5 184 c 128,-1,65
 147 202 147 202 153.5 215.5 c 128,-1,66
 160 229 160 229 174 239 c 128,-1,67
 188 249 188 249 214 255 c 1,68,-1
 122 255 l 1,69,70
 125 294 125 294 141.5 322.5 c 128,-1,71
 158 351 158 351 184 369.5 c 128,-1,72
 210 388 210 388 243 397.5 c 128,-1,73
 276 407 276 407 312 407 c 0,74,75
 345 407 345 407 377.5 399.5 c 128,-1,76
 410 392 410 392 435.5 375.5 c 128,-1,77
 461 359 461 359 476.5 332.5 c 128,-1,78
 492 306 492 306 492 268 c 2,79,-1
 492 -160 l 1,80,-1
 442 -160 l 1,0,-1
148 78 m 256,81,82
 148 101 148 101 131 118 c 128,-1,83
 114 135 114 135 91 135 c 256,84,85
 68 135 68 135 51.5 118 c 128,-1,86
 35 101 35 101 35 78 c 256,87,88
 35 55 35 55 51.5 38.5 c 128,-1,89
 68 22 68 22 91 22 c 256,90,91
 114 22 114 22 131 38.5 c 128,-1,92
 148 55 148 55 148 78 c 256,81,82
215 -86 m 1,93,94
 196 -74 196 -74 176 -67 c 128,-1,95
 156 -60 156 -60 133 -60 c 0,96,97
 113 -60 113 -60 94 -71.5 c 128,-1,98
 75 -83 75 -83 75 -105 c 0,99,100
 75 -125 75 -125 91 -134 c 128,-1,101
 107 -143 107 -143 124 -143 c 0,102,103
 139 -143 139 -143 151.5 -137.5 c 128,-1,104
 164 -132 164 -132 174.5 -124 c 128,-1,105
 185 -116 185 -116 195 -105.5 c 128,-1,106
 205 -95 205 -95 215 -86 c 1,93,94
EndSplineSet
Substitution: 0 65534 'L025' uni0E0F.alt1
Substitution: 0 65534 'L025' uni0E0F.alt1
EndChar
StartChar: uni0E10
Encoding: 3600 3600 227
Width: 418
Flags: W
Fore
383 400 m 1,0,1
 378 370 378 370 354 348 c 128,-1,2
 330 326 330 326 299 326 c 0,3,4
 277 326 277 326 260 333 c 128,-1,5
 243 340 243 340 227 348.5 c 128,-1,6
 211 357 211 357 195 364 c 128,-1,7
 179 371 179 371 159 371 c 0,8,9
 122 371 122 371 97 346.5 c 128,-1,10
 72 322 72 322 72 285 c 1,11,-1
 368 285 l 1,12,-1
 368 271 l 2,13,14
 368 237 368 237 364.5 203 c 128,-1,15
 361 169 361 169 356.5 135.5 c 128,-1,16
 352 102 352 102 348.5 68 c 128,-1,17
 345 34 345 34 346 0 c 1,18,-1
 296 0 l 1,19,-1
 208 144 l 1,20,21
 203 114 203 114 180.5 94 c 128,-1,22
 158 74 158 74 127 74 c 0,23,24
 92 74 92 74 68.5 97.5 c 128,-1,25
 45 121 45 121 45 156 c 256,26,27
 45 191 45 191 68.5 214.5 c 128,-1,28
 92 238 92 238 127 238 c 0,29,30
 158 238 158 238 179 222.5 c 128,-1,31
 200 207 200 207 215 182 c 2,32,-1
 298 45 l 1,33,-1
 298 57 l 2,34,35
 297 82 297 82 300 107.5 c 128,-1,36
 303 133 303 133 306.5 158.5 c 128,-1,37
 310 184 310 184 313 209 c 128,-1,38
 316 234 316 234 316 260 c 1,39,-1
 10 260 l 1,40,41
 10 289 10 289 19 315 c 128,-1,42
 28 341 28 341 44.5 361 c 128,-1,43
 61 381 61 381 85 393 c 128,-1,44
 109 405 109 405 140 405 c 0,45,46
 166 405 166 405 184.5 397.5 c 128,-1,47
 203 390 203 390 218.5 381 c 128,-1,48
 234 372 234 372 248 364.5 c 128,-1,49
 262 357 262 357 280 357 c 0,50,51
 297 357 297 357 310.5 370 c 128,-1,52
 324 383 324 383 324 400 c 1,53,-1
 383 400 l 1,0,1
369 -88 m 0,54,55
 369 -105 369 -105 361.5 -120.5 c 128,-1,56
 354 -136 354 -136 342 -147 c 128,-1,57
 330 -158 330 -158 314 -164.5 c 128,-1,58
 298 -171 298 -171 281 -171 c 0,59,60
 255 -171 255 -171 232 -161.5 c 128,-1,61
 209 -152 209 -152 192 -132 c 1,62,63
 187 -142 187 -142 179 -150.5 c 128,-1,64
 171 -159 171 -159 163 -167 c 1,65,-1
 136 -167 l 1,66,67
 126 -144 126 -144 112 -127 c 1,68,69
 98 -144 98 -144 78.5 -154 c 128,-1,70
 59 -164 59 -164 37 -164 c 0,71,72
 13 -164 13 -164 -8 -150 c 128,-1,73
 -29 -136 -29 -136 -29 -109 c 256,74,75
 -29 -82 -29 -82 -7 -67.5 c 128,-1,76
 15 -53 15 -53 39 -53 c 0,77,78
 62 -53 62 -53 80.5 -63 c 128,-1,79
 99 -73 99 -73 114 -89 c 1,80,81
 122 -76 122 -76 128.5 -62.5 c 128,-1,82
 135 -49 135 -49 139 -35 c 1,83,-1
 162 -35 l 1,84,85
 154 -75 154 -75 130 -107 c 1,86,87
 137 -115 137 -115 142.5 -124 c 128,-1,88
 148 -133 148 -133 153 -143 c 1,89,90
 176 -114 176 -114 186 -81 c 1,91,92
 198 -109 198 -109 220.5 -128 c 128,-1,93
 243 -147 243 -147 275 -147 c 0,94,95
 280 -147 280 -147 288 -145 c 128,-1,96
 296 -143 296 -143 301 -140 c 1,97,98
 275 -140 275 -140 253.5 -124.5 c 128,-1,99
 232 -109 232 -109 232 -80 c 0,100,101
 232 -53 232 -53 252.5 -36.5 c 128,-1,102
 273 -20 273 -20 299 -20 c 0,103,104
 329 -20 329 -20 349 -39 c 128,-1,105
 369 -58 369 -58 369 -88 c 0,54,55
184 156 m 256,106,107
 184 179 184 179 167 196 c 128,-1,108
 150 213 150 213 127 213 c 256,109,110
 104 213 104 213 87 196 c 128,-1,111
 70 179 70 179 70 156 c 256,112,113
 70 133 70 133 87 116 c 128,-1,114
 104 99 104 99 127 99 c 256,115,116
 150 99 150 99 167 116 c 128,-1,117
 184 133 184 133 184 156 c 256,106,107
339 -80 m 256,118,119
 339 -63 339 -63 326.5 -54 c 128,-1,120
 314 -45 314 -45 299 -45 c 256,121,122
 284 -45 284 -45 271.5 -54 c 128,-1,123
 259 -63 259 -63 259 -80 c 256,124,125
 259 -97 259 -97 271.5 -106 c 128,-1,126
 284 -115 284 -115 299 -115 c 256,127,128
 314 -115 314 -115 326.5 -106 c 128,-1,129
 339 -97 339 -97 339 -80 c 256,118,119
99 -109 m 1,130,131
 87 -97 87 -97 73 -89 c 128,-1,132
 59 -81 59 -81 42 -81 c 0,133,134
 31 -81 31 -81 18.5 -88.5 c 128,-1,135
 6 -96 6 -96 6 -109 c 0,136,137
 6 -124 6 -124 18.5 -130.5 c 128,-1,138
 31 -137 31 -137 44 -137 c 0,139,140
 61 -137 61 -137 74.5 -128.5 c 128,-1,141
 88 -120 88 -120 99 -109 c 1,130,131
EndSplineSet
Substitution: 0 65534 'L025' uni0E10.alt1
Substitution: 0 65534 'L025' uni0E10.alt1
EndChar
StartChar: uni0E11
Encoding: 3601 3601 228
Width: 556
Flags: W
Fore
446 0 m 1,0,1
 446 9 446 9 446.5 36.5 c 128,-1,2
 447 64 447 64 447 100.5 c 128,-1,3
 447 137 447 137 447 177.5 c 128,-1,4
 447 218 447 218 447 252.5 c 128,-1,5
 447 287 447 287 446 310.5 c 128,-1,6
 445 334 445 334 443 337 c 1,7,-1
 431 343 l 1,8,-1
 204 0 l 1,9,-1
 153 0 l 1,10,-1
 153 143 l 2,11,12
 153 164 153 164 170 180 c 128,-1,13
 187 196 187 196 207.5 214 c 128,-1,14
 228 232 228 232 245 255 c 128,-1,15
 262 278 262 278 262 312 c 0,16,17
 262 325 262 325 259.5 338 c 128,-1,18
 257 351 257 351 251 361.5 c 128,-1,19
 245 372 245 372 234.5 378.5 c 128,-1,20
 224 385 224 385 209 385 c 0,21,22
 195 385 195 385 185.5 378.5 c 128,-1,23
 176 372 176 372 168 362 c 1,24,25
 157 375 157 375 145.5 380 c 128,-1,26
 134 385 134 385 117 385 c 0,27,28
 97 385 97 385 79 371 c 128,-1,29
 61 357 61 357 57 337 c 1,30,31
 77 351 77 351 102 351 c 0,32,33
 136 351 136 351 160 327 c 128,-1,34
 184 303 184 303 184 269 c 256,35,36
 184 235 184 235 160 211 c 128,-1,37
 136 187 136 187 102 187 c 0,38,39
 59 187 59 187 34.5 217 c 128,-1,40
 10 247 10 247 10 288 c 0,41,42
 10 310 10 310 17 331.5 c 128,-1,43
 24 353 24 353 37.5 370 c 128,-1,44
 51 387 51 387 70.5 397 c 128,-1,45
 90 407 90 407 114 407 c 0,46,47
 130 407 130 407 143.5 401.5 c 128,-1,48
 157 396 157 396 167 383 c 1,49,50
 177 396 177 396 192.5 401.5 c 128,-1,51
 208 407 208 407 223 407 c 0,52,53
 266 407 266 407 286.5 380 c 128,-1,54
 307 353 307 353 307 313 c 0,55,56
 307 282 307 282 290.5 261 c 128,-1,57
 274 240 274 240 254.5 223 c 128,-1,58
 235 206 235 206 219 190 c 128,-1,59
 203 174 203 174 203 155 c 2,60,-1
 203 44 l 1,61,-1
 440 405 l 1,62,63
 463 405 463 405 479.5 393 c 128,-1,64
 496 381 496 381 496 357 c 2,65,-1
 496 0 l 1,66,-1
 446 0 l 1,0,1
159 269 m 256,67,68
 159 292 159 292 142 309 c 128,-1,69
 125 326 125 326 102 326 c 256,70,71
 79 326 79 326 62 309 c 128,-1,72
 45 292 45 292 45 269 c 256,73,74
 45 246 45 246 62 229 c 128,-1,75
 79 212 79 212 102 212 c 256,76,77
 125 212 125 212 142 229 c 128,-1,78
 159 246 159 246 159 269 c 256,67,68
EndSplineSet
EndChar
StartChar: uni0E12
Encoding: 3602 3602 229
Width: 714
Flags: W
Fore
603 0 m 1,0,1
 580 29 580 29 551.5 54.5 c 128,-1,2
 523 80 523 80 493 102 c 1,3,4
 497 90 497 90 497 75 c 0,5,6
 497 41 497 41 473 17 c 128,-1,7
 449 -7 449 -7 415 -7 c 256,8,9
 381 -7 381 -7 357 17 c 128,-1,10
 333 41 333 41 333 75 c 0,11,12
 333 106 333 106 354.5 129 c 128,-1,13
 376 152 376 152 406 157 c 1,14,-1
 375 175 l 1,15,16
 375 186 375 186 376.5 205.5 c 128,-1,17
 378 225 378 225 378.5 248.5 c 128,-1,18
 379 272 379 272 377 295.5 c 128,-1,19
 375 319 375 319 367.5 338.5 c 128,-1,20
 360 358 360 358 346.5 370.5 c 128,-1,21
 333 383 333 383 311 383 c 0,22,23
 290 383 290 383 275.5 372 c 128,-1,24
 261 361 261 361 250 344 c 1,25,-1
 239 344 l 1,26,27
 232 362 232 362 218.5 372.5 c 128,-1,28
 205 383 205 383 185 383 c 0,29,30
 162 383 162 383 146 371 c 128,-1,31
 130 359 130 359 120 340.5 c 128,-1,32
 110 322 110 322 105.5 300.5 c 128,-1,33
 101 279 101 279 101 260 c 0,34,35
 101 200 101 200 107.5 142.5 c 128,-1,36
 114 85 114 85 111 25 c 1,37,38
 133 33 133 33 158 46.5 c 128,-1,39
 183 60 183 60 205.5 77.5 c 128,-1,40
 228 95 228 95 246 116 c 128,-1,41
 264 137 264 137 273 160 c 1,42,43
 253 150 253 150 234 150 c 0,44,45
 200 150 200 150 176 174 c 128,-1,46
 152 198 152 198 152 232 c 256,47,48
 152 266 152 266 176 290 c 128,-1,49
 200 314 200 314 234 314 c 0,50,51
 251 314 251 314 266.5 308 c 128,-1,52
 282 302 282 302 294 291 c 128,-1,53
 306 280 306 280 313 265 c 128,-1,54
 320 250 320 250 320 232 c 0,55,56
 320 190 320 190 300.5 154 c 128,-1,57
 281 118 281 118 251 88 c 128,-1,58
 221 58 221 58 184 35.5 c 128,-1,59
 147 13 147 13 112 0 c 1,60,-1
 62 0 l 1,61,62
 63 12 63 12 63.5 24.5 c 128,-1,63
 64 37 64 37 64 49 c 0,64,65
 64 102 64 102 57 153.5 c 128,-1,66
 50 205 50 205 50 258 c 0,67,68
 50 285 50 285 57.5 312 c 128,-1,69
 65 339 65 339 80.5 360 c 128,-1,70
 96 381 96 381 118.5 394.5 c 128,-1,71
 141 408 141 408 171 408 c 0,72,73
 195 408 195 408 213.5 399.5 c 128,-1,74
 232 391 232 391 245 369 c 1,75,76
 260 390 260 390 279.5 399 c 128,-1,77
 299 408 299 408 325 408 c 0,78,79
 373 408 373 408 394.5 383.5 c 128,-1,80
 416 359 416 359 423 323 c 128,-1,81
 430 287 430 287 427.5 247 c 128,-1,82
 425 207 425 207 425 176 c 1,83,84
 475 151 475 151 520 116.5 c 128,-1,85
 565 82 565 82 604 43 c 1,86,-1
 604 400 l 1,87,-1
 654 400 l 1,88,-1
 654 0 l 1,89,-1
 603 0 l 1,0,1
472 75 m 256,90,91
 472 98 472 98 455 115 c 128,-1,92
 438 132 438 132 415 132 c 256,93,94
 392 132 392 132 375 115 c 128,-1,95
 358 98 358 98 358 75 c 256,96,97
 358 52 358 52 375 35 c 128,-1,98
 392 18 392 18 415 18 c 256,99,100
 438 18 438 18 455 35 c 128,-1,101
 472 52 472 52 472 75 c 256,90,91
291 232 m 256,102,103
 291 255 291 255 274 272 c 128,-1,104
 257 289 257 289 234 289 c 256,105,106
 211 289 211 289 194 272 c 128,-1,107
 177 255 177 255 177 232 c 256,108,109
 177 209 177 209 194 192 c 128,-1,110
 211 175 211 175 234 175 c 256,111,112
 257 175 257 175 274 192 c 128,-1,113
 291 209 291 209 291 232 c 256,102,103
EndSplineSet
EndChar
StartChar: uni0E13
Encoding: 3603 3603 230
Width: 697
Flags: W
Fore
664 78 m 0,0,1
 664 43 664 43 638.5 17.5 c 128,-1,2
 613 -8 613 -8 578 -8 c 0,3,4
 556 -8 556 -8 537.5 2 c 128,-1,5
 519 12 519 12 507.5 28.5 c 128,-1,6
 496 45 496 45 492.5 65.5 c 128,-1,7
 489 86 489 86 496 107 c 1,8,9
 469 87 469 87 445.5 59.5 c 128,-1,10
 422 32 422 32 408 0 c 1,11,-1
 358 0 l 1,12,-1
 358 275 l 2,13,14
 358 303 358 303 347 324 c 128,-1,15
 336 345 336 345 318 359 c 128,-1,16
 300 373 300 373 276.5 380 c 128,-1,17
 253 387 253 387 228 387 c 0,18,19
 202 387 202 387 178 379.5 c 128,-1,20
 154 372 154 372 135.5 357 c 128,-1,21
 117 342 117 342 104.5 320.5 c 128,-1,22
 92 299 92 299 90 272 c 1,23,-1
 155 272 l 1,24,-1
 155 252 l 1,25,26
 138 243 138 243 128.5 231 c 128,-1,27
 119 219 119 219 115 205 c 128,-1,28
 111 191 111 191 110.5 175 c 128,-1,29
 110 159 110 159 110 142 c 1,30,31
 121 152 121 152 135 156 c 128,-1,32
 149 160 149 160 163 160 c 0,33,34
 197 160 197 160 220.5 136 c 128,-1,35
 244 112 244 112 244 78 c 0,36,37
 244 41 244 41 219 18 c 128,-1,38
 194 -5 194 -5 158 -5 c 0,39,40
 111 -5 111 -5 85.5 23.5 c 128,-1,41
 60 52 60 52 60 97 c 2,42,-1
 60 161 l 2,43,44
 60 195 60 195 76 220.5 c 128,-1,45
 92 246 92 246 126 255 c 1,46,-1
 38 255 l 1,47,48
 41 294 41 294 57.5 322.5 c 128,-1,49
 74 351 74 351 100 369.5 c 128,-1,50
 126 388 126 388 159 397.5 c 128,-1,51
 192 407 192 407 228 407 c 0,52,53
 285 407 285 407 320.5 393.5 c 128,-1,54
 356 380 356 380 376 356 c 128,-1,55
 396 332 396 332 403.5 299.5 c 128,-1,56
 411 267 411 267 412 228.5 c 128,-1,57
 413 190 413 190 410.5 146.5 c 128,-1,58
 408 103 408 103 408 59 c 1,59,60
 444 105 444 105 487.5 136 c 128,-1,61
 531 167 531 167 587 186 c 1,62,-1
 587 400 l 1,63,-1
 637 400 l 1,64,-1
 637 181 l 1,65,66
 614 175 614 175 591 163 c 1,67,68
 622 158 622 158 643 134 c 128,-1,69
 664 110 664 110 664 78 c 0,0,1
640 76 m 256,70,71
 640 101 640 101 621 120 c 128,-1,72
 602 139 602 139 577 139 c 0,73,74
 551 139 551 139 533 120 c 128,-1,75
 515 101 515 101 515 76 c 256,76,77
 515 51 515 51 533 32 c 128,-1,78
 551 13 551 13 577 13 c 0,79,80
 602 13 602 13 621 32 c 128,-1,81
 640 51 640 51 640 76 c 256,70,71
219 78 m 256,82,83
 219 101 219 101 202.5 118 c 128,-1,84
 186 135 186 135 163 135 c 256,85,86
 140 135 140 135 123 118 c 128,-1,87
 106 101 106 101 106 78 c 256,88,89
 106 55 106 55 123 38.5 c 128,-1,90
 140 22 140 22 163 22 c 256,91,92
 186 22 186 22 202.5 38.5 c 128,-1,93
 219 55 219 55 219 78 c 256,82,83
EndSplineSet
EndChar
StartChar: uni0E14
Encoding: 3604 3604 231
Width: 485
Flags: W
Fore
375 0 m 1,0,-1
 375 275 l 2,1,2
 375 303 375 303 363.5 324 c 128,-1,3
 352 345 352 345 333.5 359 c 128,-1,4
 315 373 315 373 291 380 c 128,-1,5
 267 387 267 387 242 387 c 0,6,7
 214 387 214 387 188.5 378.5 c 128,-1,8
 163 370 163 370 143.5 353.5 c 128,-1,9
 124 337 124 337 112.5 313.5 c 128,-1,10
 101 290 101 290 101 260 c 0,11,12
 101 200 101 200 107.5 142.5 c 128,-1,13
 114 85 114 85 111 25 c 1,14,15
 133 33 133 33 158 46.5 c 128,-1,16
 183 60 183 60 205.5 77.5 c 128,-1,17
 228 95 228 95 246 116 c 128,-1,18
 264 137 264 137 273 160 c 1,19,20
 253 150 253 150 234 150 c 0,21,22
 200 150 200 150 176 174 c 128,-1,23
 152 198 152 198 152 232 c 256,24,25
 152 266 152 266 176 290 c 128,-1,26
 200 314 200 314 234 314 c 0,27,28
 251 314 251 314 266.5 308 c 128,-1,29
 282 302 282 302 294 291 c 128,-1,30
 306 280 306 280 313 265 c 128,-1,31
 320 250 320 250 320 232 c 0,32,33
 320 190 320 190 300.5 154 c 128,-1,34
 281 118 281 118 251 88 c 128,-1,35
 221 58 221 58 184 35.5 c 128,-1,36
 147 13 147 13 112 0 c 1,37,-1
 62 0 l 1,38,39
 63 12 63 12 63.5 24.5 c 128,-1,40
 64 37 64 37 64 49 c 0,41,42
 64 102 64 102 57 153.5 c 128,-1,43
 50 205 50 205 50 258 c 0,44,45
 50 296 50 296 67.5 324 c 128,-1,46
 85 352 85 352 112.5 370.5 c 128,-1,47
 140 389 140 389 174.5 398 c 128,-1,48
 209 407 209 407 242 407 c 256,49,50
 275 407 275 407 307.5 400 c 128,-1,51
 340 393 340 393 366 376.5 c 128,-1,52
 392 360 392 360 408.5 333.5 c 128,-1,53
 425 307 425 307 425 269 c 2,54,-1
 425 0 l 1,55,-1
 375 0 l 1,0,-1
290 232 m 256,56,57
 290 255 290 255 273.5 271.5 c 128,-1,58
 257 288 257 288 234 288 c 256,59,60
 211 288 211 288 194.5 271.5 c 128,-1,61
 178 255 178 255 178 232 c 256,62,63
 178 209 178 209 194.5 192.5 c 128,-1,64
 211 176 211 176 234 176 c 256,65,66
 257 176 257 176 273.5 192.5 c 128,-1,67
 290 209 290 209 290 232 c 256,56,57
EndSplineSet
EndChar
StartChar: uni0E15
Encoding: 3605 3605 232
Width: 485
Flags: W
Fore
375 0 m 1,0,-1
 375 292 l 2,1,2
 375 308 375 308 372 324 c 128,-1,3
 369 340 369 340 362 353 c 128,-1,4
 355 366 355 366 342.5 374.5 c 128,-1,5
 330 383 330 383 311 383 c 0,6,7
 290 383 290 383 275.5 372.5 c 128,-1,8
 261 362 261 362 250 344 c 1,9,-1
 239 344 l 1,10,11
 232 362 232 362 218 372.5 c 128,-1,12
 204 383 204 383 185 383 c 0,13,14
 161 383 161 383 145 371 c 128,-1,15
 129 359 129 359 119.5 340.5 c 128,-1,16
 110 322 110 322 105.5 300.5 c 128,-1,17
 101 279 101 279 101 260 c 0,18,19
 101 200 101 200 107.5 142.5 c 128,-1,20
 114 85 114 85 111 25 c 1,21,22
 133 33 133 33 158 46.5 c 128,-1,23
 183 60 183 60 205.5 77.5 c 128,-1,24
 228 95 228 95 246 116 c 128,-1,25
 264 137 264 137 273 160 c 1,26,27
 253 150 253 150 234 150 c 0,28,29
 199 150 199 150 175.5 174 c 128,-1,30
 152 198 152 198 152 232 c 256,31,32
 152 266 152 266 175.5 290 c 128,-1,33
 199 314 199 314 234 314 c 0,34,35
 251 314 251 314 266.5 308 c 128,-1,36
 282 302 282 302 294 291 c 128,-1,37
 306 280 306 280 313 265 c 128,-1,38
 320 250 320 250 320 232 c 0,39,40
 320 190 320 190 300.5 154 c 128,-1,41
 281 118 281 118 251 88 c 128,-1,42
 221 58 221 58 184 35.5 c 128,-1,43
 147 13 147 13 112 0 c 1,44,-1
 62 0 l 1,45,46
 63 12 63 12 63.5 24.5 c 128,-1,47
 64 37 64 37 64 49 c 0,48,49
 64 102 64 102 57 153.5 c 128,-1,50
 50 205 50 205 50 258 c 0,51,52
 50 285 50 285 57.5 312 c 128,-1,53
 65 339 65 339 80 360 c 128,-1,54
 95 381 95 381 118 394.5 c 128,-1,55
 141 408 141 408 171 408 c 0,56,57
 195 408 195 408 213.5 399.5 c 128,-1,58
 232 391 232 391 245 369 c 1,59,60
 260 390 260 390 279.5 399 c 128,-1,61
 299 408 299 408 325 408 c 0,62,63
 374 408 374 408 399.5 377.5 c 128,-1,64
 425 347 425 347 425 300 c 2,65,-1
 425 0 l 1,66,-1
 375 0 l 1,0,-1
291 232 m 256,67,68
 291 255 291 255 274 272 c 128,-1,69
 257 289 257 289 234 289 c 256,70,71
 211 289 211 289 194 272 c 128,-1,72
 177 255 177 255 177 232 c 256,73,74
 177 209 177 209 194 192 c 128,-1,75
 211 175 211 175 234 175 c 256,76,77
 257 175 257 175 274 192 c 128,-1,78
 291 209 291 209 291 232 c 256,67,68
EndSplineSet
EndChar
StartChar: uni0E16
Encoding: 3606 3606 233
Width: 468
Flags: W
Fore
358 0 m 1,0,-1
 358 275 l 2,1,2
 358 303 358 303 347 324 c 128,-1,3
 336 345 336 345 318 359 c 128,-1,4
 300 373 300 373 276.5 380 c 128,-1,5
 253 387 253 387 228 387 c 0,6,7
 202 387 202 387 178 379.5 c 128,-1,8
 154 372 154 372 135.5 357 c 128,-1,9
 117 342 117 342 104.5 320.5 c 128,-1,10
 92 299 92 299 90 272 c 1,11,-1
 155 272 l 1,12,-1
 155 252 l 1,13,14
 137 243 137 243 128 231 c 128,-1,15
 119 219 119 219 115 205 c 128,-1,16
 111 191 111 191 110.5 175 c 128,-1,17
 110 159 110 159 110 142 c 1,18,19
 121 152 121 152 135 156 c 128,-1,20
 149 160 149 160 163 160 c 0,21,22
 197 160 197 160 220.5 136 c 128,-1,23
 244 112 244 112 244 78 c 0,24,25
 244 41 244 41 219 18 c 128,-1,26
 194 -5 194 -5 158 -5 c 0,27,28
 111 -5 111 -5 85.5 23.5 c 128,-1,29
 60 52 60 52 60 97 c 2,30,-1
 60 161 l 2,31,32
 60 195 60 195 76 220.5 c 128,-1,33
 92 246 92 246 126 255 c 1,34,-1
 38 255 l 1,35,36
 41 294 41 294 57.5 322.5 c 128,-1,37
 74 351 74 351 100 369.5 c 128,-1,38
 126 388 126 388 159 397.5 c 128,-1,39
 192 407 192 407 228 407 c 0,40,41
 261 407 261 407 293.5 400 c 128,-1,42
 326 393 326 393 351.5 376.5 c 128,-1,43
 377 360 377 360 392.5 333.5 c 128,-1,44
 408 307 408 307 408 268 c 2,45,-1
 408 0 l 1,46,-1
 358 0 l 1,0,-1
219 78 m 256,47,48
 219 101 219 101 202.5 118 c 128,-1,49
 186 135 186 135 163 135 c 256,50,51
 140 135 140 135 123 118 c 128,-1,52
 106 101 106 101 106 78 c 256,53,54
 106 55 106 55 123 38.5 c 128,-1,55
 140 22 140 22 163 22 c 256,56,57
 186 22 186 22 202.5 38.5 c 128,-1,58
 219 55 219 55 219 78 c 256,47,48
EndSplineSet
EndChar
StartChar: uni0E17
Encoding: 3607 3607 234
Width: 523
Flags: W
Fore
413 0 m 1,0,1
 413 9 413 9 413.5 36.5 c 128,-1,2
 414 64 414 64 414 100.5 c 128,-1,3
 414 137 414 137 414 177.5 c 128,-1,4
 414 218 414 218 414 252.5 c 128,-1,5
 414 287 414 287 413 310.5 c 128,-1,6
 412 334 412 334 410 337 c 1,7,-1
 398 343 l 1,8,-1
 194 0 l 1,9,-1
 144 0 l 1,10,-1
 144 260 l 1,11,12
 133 250 133 250 119 246 c 128,-1,13
 105 242 105 242 91 242 c 0,14,15
 57 242 57 242 33.5 266 c 128,-1,16
 10 290 10 290 10 324 c 0,17,18
 10 361 10 361 35 384 c 128,-1,19
 60 407 60 407 96 407 c 0,20,21
 143 407 143 407 168.5 378.5 c 128,-1,22
 194 350 194 350 194 305 c 2,23,-1
 194 46 l 1,24,-1
 405 405 l 1,25,26
 428 405 428 405 445.5 394 c 128,-1,27
 463 383 463 383 463 357 c 2,28,-1
 463 0 l 1,29,-1
 413 0 l 1,0,1
148 324 m 256,30,31
 148 347 148 347 131 363.5 c 128,-1,32
 114 380 114 380 91 380 c 256,33,34
 68 380 68 380 51.5 363.5 c 128,-1,35
 35 347 35 347 35 324 c 256,36,37
 35 301 35 301 51.5 284 c 128,-1,38
 68 267 68 267 91 267 c 256,39,40
 114 267 114 267 131 284 c 128,-1,41
 148 301 148 301 148 324 c 256,30,31
EndSplineSet
EndChar
StartChar: uni0E18
Encoding: 3608 3608 235
Width: 442
Flags: W
Fore
393 400 m 1,0,1
 392 385 392 385 384.5 373 c 128,-1,2
 377 361 377 361 365.5 352.5 c 128,-1,3
 354 344 354 344 340 339.5 c 128,-1,4
 326 335 326 335 312 335 c 0,5,6
 293 335 293 335 275.5 341 c 128,-1,7
 258 347 258 347 241.5 353.5 c 128,-1,8
 225 360 225 360 208 366 c 128,-1,9
 191 372 191 372 172 372 c 0,10,11
 131 372 131 372 109 343.5 c 128,-1,12
 87 315 87 315 84 278 c 1,13,-1
 382 278 l 1,14,-1
 382 0 l 1,15,-1
 60 0 l 1,16,-1
 60 223 l 1,17,-1
 110 223 l 1,18,-1
 110 25 l 1,19,-1
 332 25 l 1,20,-1
 332 253 l 1,21,-1
 32 253 l 1,22,23
 34 283 34 283 42 310.5 c 128,-1,24
 50 338 50 338 65.5 359 c 128,-1,25
 81 380 81 380 105.5 392.5 c 128,-1,26
 130 405 130 405 164 405 c 0,27,28
 184 405 184 405 200 398.5 c 128,-1,29
 216 392 216 392 230 384.5 c 128,-1,30
 244 377 244 377 257.5 370.5 c 128,-1,31
 271 364 271 364 286 364 c 0,32,33
 321 364 321 364 329 400 c 1,34,-1
 393 400 l 1,35,-1
 393 400 l 1,0,1
EndSplineSet
EndChar
StartChar: uni0E19
Encoding: 3609 3609 236
Width: 513
Flags: W
Fore
480 78 m 0,0,1
 480 43 480 43 454.5 17.5 c 128,-1,2
 429 -8 429 -8 394 -8 c 0,3,4
 371 -8 371 -8 353 2 c 128,-1,5
 335 12 335 12 323.5 28 c 128,-1,6
 312 44 312 44 308.5 65 c 128,-1,7
 305 86 305 86 312 107 c 1,8,9
 280 84 280 84 250 57 c 128,-1,10
 220 30 220 30 195 0 c 1,11,-1
 144 0 l 1,12,-1
 144 260 l 1,13,14
 133 250 133 250 119 246 c 128,-1,15
 105 242 105 242 91 242 c 0,16,17
 57 242 57 242 33.5 266 c 128,-1,18
 10 290 10 290 10 324 c 0,19,20
 10 361 10 361 35 384 c 128,-1,21
 60 407 60 407 96 407 c 0,22,23
 143 407 143 407 168.5 378.5 c 128,-1,24
 194 350 194 350 194 305 c 2,25,-1
 194 43 l 1,26,27
 236 89 236 89 290.5 126 c 128,-1,28
 345 163 345 163 403 186 c 1,29,-1
 403 400 l 1,30,-1
 453 400 l 1,31,-1
 453 181 l 1,32,33
 428 175 428 175 406 163 c 1,34,35
 438 158 438 158 459 134 c 128,-1,36
 480 110 480 110 480 78 c 0,0,1
456 76 m 256,37,38
 456 101 456 101 437 120 c 128,-1,39
 418 139 418 139 393 139 c 256,40,41
 368 139 368 139 349 120 c 128,-1,42
 330 101 330 101 330 76 c 256,43,44
 330 51 330 51 349 32 c 128,-1,45
 368 13 368 13 393 13 c 256,46,47
 418 13 418 13 437 32 c 128,-1,48
 456 51 456 51 456 76 c 256,37,38
148 324 m 256,49,50
 148 347 148 347 131 363.5 c 128,-1,51
 114 380 114 380 91 380 c 256,52,53
 68 380 68 380 51.5 363.5 c 128,-1,54
 35 347 35 347 35 324 c 256,55,56
 35 301 35 301 51.5 284 c 128,-1,57
 68 267 68 267 91 267 c 256,58,59
 114 267 114 267 131 284 c 128,-1,60
 148 301 148 301 148 324 c 256,49,50
EndSplineSet
EndChar
StartChar: uni0E1A
Encoding: 3610 3610 237
Width: 513
Flags: W
Fore
144 0 m 1,0,-1
 144 260 l 1,1,2
 133 250 133 250 119 246 c 128,-1,3
 105 242 105 242 91 242 c 0,4,5
 57 242 57 242 33.5 266 c 128,-1,6
 10 290 10 290 10 324 c 0,7,8
 10 361 10 361 35 384 c 128,-1,9
 60 407 60 407 96 407 c 0,10,11
 143 407 143 407 168.5 378.5 c 128,-1,12
 194 350 194 350 194 305 c 2,13,-1
 194 25 l 1,14,-1
 403 25 l 1,15,-1
 403 400 l 1,16,-1
 453 400 l 1,17,-1
 453 0 l 1,18,-1
 144 0 l 1,0,-1
148 324 m 256,19,20
 148 347 148 347 131 363.5 c 128,-1,21
 114 380 114 380 91 380 c 256,22,23
 68 380 68 380 51.5 363.5 c 128,-1,24
 35 347 35 347 35 324 c 256,25,26
 35 301 35 301 51.5 284 c 128,-1,27
 68 267 68 267 91 267 c 256,28,29
 114 267 114 267 131 284 c 128,-1,30
 148 301 148 301 148 324 c 256,19,20
EndSplineSet
EndChar
StartChar: uni0E1B
Encoding: 3611 3611 238
Width: 513
Flags: W
Fore
144 0 m 1,0,-1
 144 260 l 1,1,2
 133 250 133 250 119 246 c 128,-1,3
 105 242 105 242 91 242 c 0,4,5
 57 242 57 242 33.5 266 c 128,-1,6
 10 290 10 290 10 324 c 0,7,8
 10 361 10 361 35 384 c 128,-1,9
 60 407 60 407 96 407 c 0,10,11
 143 407 143 407 168.5 378.5 c 128,-1,12
 194 350 194 350 194 305 c 2,13,-1
 194 25 l 1,14,-1
 403 25 l 1,15,-1
 403 520 l 1,16,-1
 453 520 l 1,17,-1
 453 0 l 1,18,-1
 144 0 l 1,0,-1
148 324 m 256,19,20
 148 347 148 347 131 363.5 c 128,-1,21
 114 380 114 380 91 380 c 256,22,23
 68 380 68 380 51.5 363.5 c 128,-1,24
 35 347 35 347 35 324 c 256,25,26
 35 301 35 301 51.5 284 c 128,-1,27
 68 267 68 267 91 267 c 256,28,29
 114 267 114 267 131 284 c 128,-1,30
 148 301 148 301 148 324 c 256,19,20
EndSplineSet
EndChar
StartChar: uni0E1C
Encoding: 3612 3612 239
Width: 498
Flags: W
Fore
384 0 m 1,0,-1
 252 180 l 1,1,-1
 120 0 l 1,2,-1
 65 0 l 1,3,4
 65 66 65 66 59.5 132 c 128,-1,5
 54 198 54 198 54 264 c 0,6,7
 54 290 54 290 57.5 315.5 c 128,-1,8
 61 341 61 341 72 361.5 c 128,-1,9
 83 382 83 382 102.5 394.5 c 128,-1,10
 122 407 122 407 154 407 c 0,11,12
 190 407 190 407 215 384 c 128,-1,13
 240 361 240 361 240 324 c 0,14,15
 240 290 240 290 216.5 266 c 128,-1,16
 193 242 193 242 159 242 c 0,17,18
 145 242 145 242 131.5 245.5 c 128,-1,19
 118 249 118 249 107 258 c 1,20,-1
 107 239 l 2,21,22
 105 189 105 189 111 140.5 c 128,-1,23
 117 92 117 92 115 43 c 1,24,-1
 252 230 l 1,25,-1
 388 43 l 1,26,-1
 388 400 l 1,27,-1
 438 400 l 1,28,-1
 438 0 l 1,29,-1
 384 0 l 1,0,-1
215 324 m 256,30,31
 215 347 215 347 198.5 363.5 c 128,-1,32
 182 380 182 380 159 380 c 256,33,34
 136 380 136 380 119 363.5 c 128,-1,35
 102 347 102 347 102 324 c 256,36,37
 102 301 102 301 119 284 c 128,-1,38
 136 267 136 267 159 267 c 256,39,40
 182 267 182 267 198.5 284 c 128,-1,41
 215 301 215 301 215 324 c 256,30,31
EndSplineSet
EndChar
StartChar: uni0E1D
Encoding: 3613 3613 240
Width: 498
Flags: W
Fore
384 0 m 1,0,-1
 252 180 l 1,1,-1
 120 0 l 1,2,-1
 65 0 l 1,3,4
 65 66 65 66 59.5 132 c 128,-1,5
 54 198 54 198 54 264 c 0,6,7
 54 290 54 290 57.5 315.5 c 128,-1,8
 61 341 61 341 72 361.5 c 128,-1,9
 83 382 83 382 102.5 394.5 c 128,-1,10
 122 407 122 407 154 407 c 0,11,12
 190 407 190 407 215 384 c 128,-1,13
 240 361 240 361 240 324 c 0,14,15
 240 290 240 290 216.5 266 c 128,-1,16
 193 242 193 242 159 242 c 0,17,18
 145 242 145 242 131.5 245.5 c 128,-1,19
 118 249 118 249 107 258 c 1,20,-1
 107 239 l 2,21,22
 105 189 105 189 111 140.5 c 128,-1,23
 117 92 117 92 115 43 c 1,24,-1
 252 230 l 1,25,-1
 388 43 l 1,26,-1
 388 520 l 1,27,-1
 438 520 l 1,28,-1
 438 0 l 1,29,-1
 384 0 l 1,0,-1
215 324 m 256,30,31
 215 347 215 347 198.5 363.5 c 128,-1,32
 182 380 182 380 159 380 c 256,33,34
 136 380 136 380 119 363.5 c 128,-1,35
 102 347 102 347 102 324 c 256,36,37
 102 301 102 301 119 284 c 128,-1,38
 136 267 136 267 159 267 c 256,39,40
 182 267 182 267 198.5 284 c 128,-1,41
 215 301 215 301 215 324 c 256,30,31
EndSplineSet
EndChar
StartChar: uni0E1E
Encoding: 3614 3614 241
Width: 567
Flags: W
Fore
443 0 m 1,0,-1
 326 330 l 1,1,-1
 209 0 l 1,2,-1
 144 0 l 1,3,-1
 144 260 l 1,4,5
 133 250 133 250 119 246 c 128,-1,6
 105 242 105 242 91 242 c 0,7,8
 57 242 57 242 33.5 266 c 128,-1,9
 10 290 10 290 10 324 c 0,10,11
 10 361 10 361 35 384 c 128,-1,12
 60 407 60 407 96 407 c 0,13,14
 143 407 143 407 168.5 378.5 c 128,-1,15
 194 350 194 350 194 305 c 2,16,-1
 194 43 l 1,17,-1
 326 410 l 1,18,-1
 457 43 l 1,19,-1
 457 400 l 1,20,-1
 507 400 l 1,21,-1
 507 0 l 1,22,-1
 443 0 l 1,0,-1
148 324 m 256,23,24
 148 347 148 347 131 363.5 c 128,-1,25
 114 380 114 380 91 380 c 256,26,27
 68 380 68 380 51.5 363.5 c 128,-1,28
 35 347 35 347 35 324 c 256,29,30
 35 301 35 301 51.5 284 c 128,-1,31
 68 267 68 267 91 267 c 256,32,33
 114 267 114 267 131 284 c 128,-1,34
 148 301 148 301 148 324 c 256,23,24
EndSplineSet
EndChar
StartChar: uni0E1F
Encoding: 3615 3615 242
Width: 567
Flags: W
Fore
443 0 m 1,0,-1
 326 330 l 1,1,-1
 209 0 l 1,2,-1
 144 0 l 1,3,-1
 144 260 l 1,4,5
 133 250 133 250 119 246 c 128,-1,6
 105 242 105 242 91 242 c 0,7,8
 57 242 57 242 33.5 266 c 128,-1,9
 10 290 10 290 10 324 c 0,10,11
 10 361 10 361 35 384 c 128,-1,12
 60 407 60 407 96 407 c 0,13,14
 143 407 143 407 168.5 378.5 c 128,-1,15
 194 350 194 350 194 305 c 2,16,-1
 194 43 l 1,17,-1
 326 410 l 1,18,-1
 457 43 l 1,19,-1
 457 520 l 1,20,-1
 507 520 l 1,21,-1
 507 0 l 1,22,-1
 443 0 l 1,0,-1
148 324 m 256,23,24
 148 347 148 347 131 363.5 c 128,-1,25
 114 380 114 380 91 380 c 256,26,27
 68 380 68 380 51.5 363.5 c 128,-1,28
 35 347 35 347 35 324 c 256,29,30
 35 301 35 301 51.5 284 c 128,-1,31
 68 267 68 267 91 267 c 256,32,33
 114 267 114 267 131 284 c 128,-1,34
 148 301 148 301 148 324 c 256,23,24
EndSplineSet
EndChar
StartChar: uni0E20
Encoding: 3616 3616 243
Width: 552
Flags: W
Fore
442 0 m 1,0,-1
 442 275 l 2,1,2
 442 303 442 303 431 324 c 128,-1,3
 420 345 420 345 402 359 c 128,-1,4
 384 373 384 373 360.5 380 c 128,-1,5
 337 387 337 387 312 387 c 0,6,7
 286 387 286 387 262 379.5 c 128,-1,8
 238 372 238 372 219.5 357 c 128,-1,9
 201 342 201 342 188.5 320.5 c 128,-1,10
 176 299 176 299 174 272 c 1,11,-1
 239 272 l 1,12,-1
 239 252 l 1,13,14
 212 241 212 241 203 217.5 c 128,-1,15
 194 194 194 194 192.5 165.5 c 128,-1,16
 191 137 191 137 192 107 c 128,-1,17
 193 77 193 77 186 52 c 128,-1,18
 179 27 179 27 159 11 c 128,-1,19
 139 -5 139 -5 96 -5 c 0,20,21
 60 -5 60 -5 35 18 c 128,-1,22
 10 41 10 41 10 78 c 0,23,24
 10 112 10 112 33.5 136 c 128,-1,25
 57 160 57 160 91 160 c 0,26,27
 105 160 105 160 119 156 c 128,-1,28
 133 152 133 152 144 142 c 1,29,30
 144 166 144 166 145.5 184 c 128,-1,31
 147 202 147 202 153.5 215.5 c 128,-1,32
 160 229 160 229 174 239 c 128,-1,33
 188 249 188 249 214 255 c 1,34,-1
 122 255 l 1,35,36
 125 294 125 294 141.5 322.5 c 128,-1,37
 158 351 158 351 184 369.5 c 128,-1,38
 210 388 210 388 243 397.5 c 128,-1,39
 276 407 276 407 312 407 c 0,40,41
 345 407 345 407 377.5 400 c 128,-1,42
 410 393 410 393 435.5 376.5 c 128,-1,43
 461 360 461 360 476.5 333.5 c 128,-1,44
 492 307 492 307 492 268 c 2,45,-1
 492 0 l 1,46,-1
 442 0 l 1,0,-1
148 78 m 256,47,48
 148 101 148 101 131 118 c 128,-1,49
 114 135 114 135 91 135 c 256,50,51
 68 135 68 135 51.5 118 c 128,-1,52
 35 101 35 101 35 78 c 256,53,54
 35 55 35 55 51.5 38.5 c 128,-1,55
 68 22 68 22 91 22 c 256,56,57
 114 22 114 22 131 38.5 c 128,-1,58
 148 55 148 55 148 78 c 256,47,48
EndSplineSet
EndChar
StartChar: uni0E21
Encoding: 3617 3617 244
Width: 519
Flags: W
Fore
409 0 m 1,0,-1
 224 120 l 1,1,2
 224 93 224 93 221 70 c 128,-1,3
 218 47 218 47 208.5 30.5 c 128,-1,4
 199 14 199 14 180 4.5 c 128,-1,5
 161 -5 161 -5 129 -5 c 0,6,7
 91 -5 91 -5 64 18.5 c 128,-1,8
 37 42 37 42 37 82 c 0,9,10
 37 106 37 106 50.5 125 c 128,-1,11
 64 144 64 144 84.5 155.5 c 128,-1,12
 105 167 105 167 129 169.5 c 128,-1,13
 153 172 153 172 174 162 c 1,14,-1
 174 260 l 1,15,16
 163 250 163 250 149 246 c 128,-1,17
 135 242 135 242 121 242 c 0,18,19
 87 242 87 242 63.5 266 c 128,-1,20
 40 290 40 290 40 324 c 0,21,22
 40 361 40 361 65 384 c 128,-1,23
 90 407 90 407 126 407 c 0,24,25
 160 407 160 407 180.5 393.5 c 128,-1,26
 201 380 201 380 212 358 c 128,-1,27
 223 336 223 336 226 308.5 c 128,-1,28
 229 281 229 281 228.5 252 c 128,-1,29
 228 223 228 223 226 196 c 128,-1,30
 224 169 224 169 224 148 c 1,31,-1
 409 30 l 1,32,-1
 409 400 l 1,33,-1
 459 400 l 1,34,-1
 459 0 l 1,35,-1
 409 0 l 1,0,-1
178 324 m 256,36,37
 178 347 178 347 161 363.5 c 128,-1,38
 144 380 144 380 121 380 c 256,39,40
 98 380 98 380 81.5 363.5 c 128,-1,41
 65 347 65 347 65 324 c 256,42,43
 65 301 65 301 81.5 284 c 128,-1,44
 98 267 98 267 121 267 c 256,45,46
 144 267 144 267 161 284 c 128,-1,47
 178 301 178 301 178 324 c 256,36,37
174 137 m 1,48,49
 165 141 165 141 155 141.5 c 128,-1,50
 145 142 145 142 135 142 c 0,51,52
 108 142 108 142 86.5 126.5 c 128,-1,53
 65 111 65 111 65 82 c 0,54,55
 65 56 65 56 81.5 39 c 128,-1,56
 98 22 98 22 124 22 c 256,57,58
 150 22 150 22 162 41 c 128,-1,59
 174 60 174 60 174 83 c 2,60,-1
 174 137 l 1,48,49
EndSplineSet
EndChar
StartChar: uni0E22
Encoding: 3618 3618 245
Width: 480
Flags: W
Fore
92 0 m 1,0,-1
 92 92 l 2,1,2
 92 118 92 118 109 135 c 128,-1,3
 126 152 126 152 148 162 c 1,4,5
 97 168 97 168 63.5 200.5 c 128,-1,6
 30 233 30 233 30 287 c 256,7,8
 30 341 30 341 65.5 373 c 128,-1,9
 101 405 101 405 153 405 c 0,10,11
 175 405 175 405 195 400 c 128,-1,12
 215 395 215 395 231 383.5 c 128,-1,13
 247 372 247 372 256.5 354.5 c 128,-1,14
 266 337 266 337 266 313 c 0,15,16
 266 279 266 279 242 255 c 128,-1,17
 218 231 218 231 184 231 c 256,18,19
 150 231 150 231 126 255 c 128,-1,20
 102 279 102 279 102 313 c 0,21,22
 102 338 102 338 116 358 c 128,-1,23
 130 378 130 378 154 386 c 1,24,25
 136 385 136 385 121 376.5 c 128,-1,26
 106 368 106 368 95.5 354.5 c 128,-1,27
 85 341 85 341 79 324 c 128,-1,28
 73 307 73 307 73 290 c 0,29,30
 73 244 73 244 101.5 214.5 c 128,-1,31
 130 185 130 185 177 185 c 0,32,33
 191 185 191 185 204.5 188 c 128,-1,34
 218 191 218 191 230 199 c 1,35,-1
 239 185 l 1,36,37
 224 179 224 179 206.5 171.5 c 128,-1,38
 189 164 189 164 175 152.5 c 128,-1,39
 161 141 161 141 151.5 126.5 c 128,-1,40
 142 112 142 112 142 93 c 2,41,-1
 142 25 l 1,42,-1
 370 25 l 1,43,-1
 370 400 l 1,44,-1
 420 400 l 1,45,-1
 420 0 l 1,46,-1
 92 0 l 1,0,-1
241 313 m 256,47,48
 241 336 241 336 224 353 c 128,-1,49
 207 370 207 370 184 370 c 256,50,51
 161 370 161 370 144 353 c 128,-1,52
 127 336 127 336 127 313 c 256,53,54
 127 290 127 290 144 273 c 128,-1,55
 161 256 161 256 184 256 c 256,56,57
 207 256 207 256 224 273 c 128,-1,58
 241 290 241 290 241 313 c 256,47,48
EndSplineSet
EndChar
StartChar: uni0E23
Encoding: 3619 3619 246
Width: 420
Flags: W
Fore
391 400 m 1,0,1
 390 385 390 385 381.5 373 c 128,-1,2
 373 361 373 361 360.5 352.5 c 128,-1,3
 348 344 348 344 333 339.5 c 128,-1,4
 318 335 318 335 305 335 c 0,5,6
 284 335 284 335 265 341 c 128,-1,7
 246 347 246 347 227 353.5 c 128,-1,8
 208 360 208 360 189 366 c 128,-1,9
 170 372 170 372 150 372 c 0,10,11
 131 372 131 372 115.5 364 c 128,-1,12
 100 356 100 356 88.5 342.5 c 128,-1,13
 77 329 77 329 70 312 c 128,-1,14
 63 295 63 295 62 278 c 1,15,-1
 360 278 l 1,16,-1
 360 99 l 2,17,18
 360 51 360 51 330.5 20 c 128,-1,19
 301 -11 301 -11 252 -11 c 0,20,21
 217 -11 217 -11 191.5 14.5 c 128,-1,22
 166 40 166 40 166 75 c 256,23,24
 166 110 166 110 191.5 135.5 c 128,-1,25
 217 161 217 161 252 161 c 0,26,27
 268 161 268 161 284 156 c 128,-1,28
 300 151 300 151 310 138 c 1,29,-1
 310 253 l 1,30,-1
 10 253 l 1,31,32
 12 283 12 283 20 310.5 c 128,-1,33
 28 338 28 338 43.5 359 c 128,-1,34
 59 380 59 380 83.5 392.5 c 128,-1,35
 108 405 108 405 142 405 c 0,36,37
 166 405 166 405 185 398.5 c 128,-1,38
 204 392 204 392 219.5 384.5 c 128,-1,39
 235 377 235 377 249 370.5 c 128,-1,40
 263 364 263 364 276 364 c 0,41,42
 293 364 293 364 308 373 c 128,-1,43
 323 382 323 382 327 400 c 1,44,-1
 391 400 l 1,0,1
313 75 m 256,45,46
 313 100 313 100 295 118 c 128,-1,47
 277 136 277 136 252 136 c 256,48,49
 227 136 227 136 209 118 c 128,-1,50
 191 100 191 100 191 75 c 256,51,52
 191 50 191 50 209 32 c 128,-1,53
 227 14 227 14 252 14 c 256,54,55
 277 14 277 14 295 32 c 128,-1,56
 313 50 313 50 313 75 c 256,45,46
EndSplineSet
EndChar
